<svg width="193" height="32" viewBox="0 0 193 32" fill="none" xmlns="http://www.w3.org/2000/svg">
<path d="M20.5401 11C18.41 11 16.5064 12.1041 16.5064 14.144C16.5064 16.4833 19.8825 16.6449 19.8825 17.8201C19.8825 18.3149 19.3154 18.7579 18.3468 18.7579C16.9723 18.7579 15.9449 18.139 15.9449 18.139L15.5053 20.1974C15.5053 20.1974 16.6888 20.7202 18.2601 20.7202C20.589 20.7202 22.4215 19.5619 22.4215 17.4872C22.4215 15.0152 19.0314 14.8585 19.0314 13.7677C19.0314 13.38 19.4969 12.9553 20.4627 12.9553C21.5524 12.9553 22.4415 13.4054 22.4415 13.4054L22.8717 11.4173C22.8717 11.4173 21.9043 11 20.5401 11V11ZM1.05158 11.15L1 11.4501C1 11.4501 1.89614 11.6141 2.70327 11.9413C3.7425 12.3165 3.81654 12.5349 3.99156 13.2132L5.8988 20.5655H8.45546L12.3942 11.15H9.84339L7.31252 17.5517L6.27977 12.1254C6.18506 11.5043 5.70532 11.15 5.11808 11.15H1.05158V11.15ZM13.4199 11.15L11.4189 20.5655H13.8513L15.8453 11.15H13.4199V11.15ZM26.9862 11.15C26.3997 11.15 26.0889 11.4641 25.8609 12.0128L22.2973 20.5655H24.8481L25.3416 19.14H28.4492L28.7493 20.5655H31L29.0365 11.15H26.9862V11.15ZM27.318 13.6938L28.0741 17.2269H26.0485L27.318 13.6938V13.6938Z" fill="#1434CB"/>
<g clip-path="url(#clip0_5170_6418)">
<g clip-path="url(#clip1_5170_6418)">
<path d="M46.4452 27.7909V26.2554C46.454 26.1263 46.4357 25.9967 46.3917 25.8754C46.3476 25.754 46.2788 25.6437 46.1898 25.5517C46.1007 25.4596 45.9935 25.3881 45.8753 25.3418C45.7571 25.2954 45.6306 25.2754 45.5043 25.283C45.3389 25.2719 45.1736 25.3064 45.0257 25.3829C44.8778 25.4594 44.7527 25.5752 44.6634 25.718C44.5821 25.5795 44.4657 25.4659 44.3265 25.3893C44.1873 25.3128 44.0305 25.276 43.8726 25.283C43.735 25.2759 43.5979 25.3056 43.475 25.3694C43.3521 25.4331 43.2476 25.5286 43.1719 25.6464V25.3444H42.6514V27.7909H43.1769V26.4448C43.1657 26.3611 43.1728 26.276 43.1975 26.1954C43.2222 26.1149 43.2641 26.0409 43.32 25.9788C43.376 25.9167 43.4447 25.868 43.5211 25.8362C43.5976 25.8044 43.68 25.7902 43.7625 25.7948C44.1079 25.7948 44.283 26.0251 44.283 26.4397V27.8011H44.8086V26.4448C44.7978 26.3612 44.8052 26.2762 44.8301 26.1959C44.855 26.1155 44.8969 26.0418 44.9527 25.9798C45.0086 25.9178 45.0771 25.8691 45.1533 25.8371C45.2296 25.8051 45.3118 25.7907 45.3942 25.7948C45.7495 25.7948 45.9197 26.0251 45.9197 26.4397V27.8011L46.4452 27.7909ZM54.2207 25.3444H53.3648V24.6022H52.8393V25.3444H52.3638V25.8306H52.8493V26.9566C52.8493 27.5247 53.0645 27.8625 53.6801 27.8625C53.9101 27.8633 54.1357 27.7977 54.3308 27.6732L54.1806 27.2176C54.041 27.3028 53.8826 27.3503 53.7202 27.3558C53.4699 27.3558 53.3748 27.192 53.3748 26.9464V25.8306H54.2257L54.2207 25.3444ZM58.6602 25.283C58.5333 25.2791 58.4077 25.3104 58.2967 25.3735C58.1857 25.4365 58.0934 25.529 58.0296 25.6412V25.3444H57.514V27.7909H58.0346V26.4192C58.0346 26.0149 58.2047 25.7897 58.5351 25.7897C58.6464 25.7881 58.757 25.809 58.8604 25.8511L59.0206 25.3393C58.9017 25.2958 58.7765 25.2733 58.6502 25.2727L58.6602 25.283ZM51.9484 25.5389C51.6537 25.3597 51.3149 25.2709 50.9724 25.283C50.3667 25.283 49.9713 25.5798 49.9713 26.066C49.9713 26.4653 50.2616 26.7109 50.7972 26.7877L51.0474 26.8235C51.3327 26.8645 51.4679 26.9413 51.4679 27.0794C51.4679 27.2688 51.2777 27.3763 50.9223 27.3763C50.6365 27.3848 50.3562 27.2946 50.1265 27.1204L49.8762 27.535C50.1795 27.7515 50.5426 27.8627 50.9123 27.8523C51.603 27.8523 52.0034 27.5196 52.0034 27.0539C52.0034 26.5881 51.6881 26.3987 51.1676 26.322L50.9173 26.2861C50.6921 26.2554 50.5119 26.2094 50.5119 26.0456C50.5119 25.8818 50.6821 25.759 50.9674 25.759C51.231 25.7621 51.4895 25.8343 51.7181 25.9688L51.9484 25.5389ZM65.8901 25.283C65.7632 25.2791 65.6376 25.3104 65.5266 25.3735C65.4156 25.4365 65.3233 25.529 65.2594 25.6412V25.3444H64.7439V27.7909H65.2644V26.4192C65.2644 26.0149 65.4346 25.7897 65.765 25.7897C65.8763 25.7881 65.9868 25.809 66.0903 25.8511L66.2505 25.3393C66.1316 25.2958 66.0063 25.2733 65.8801 25.2727L65.8901 25.283ZM59.1832 26.5625C59.177 26.7344 59.206 26.9058 59.2683 27.0656C59.3306 27.2254 59.4248 27.3702 59.545 27.4906C59.6651 27.6111 59.8085 27.7045 59.966 27.765C60.1235 27.8256 60.2916 27.8518 60.4595 27.8421C60.7721 27.8583 61.0792 27.7542 61.3204 27.5503L61.0702 27.1204C60.8902 27.2607 60.6708 27.3379 60.4445 27.3405C60.2521 27.3246 60.0726 27.2351 59.9417 27.09C59.8109 26.9449 59.7382 26.7548 59.7382 26.5574C59.7382 26.36 59.8109 26.1698 59.9417 26.0247C60.0726 25.8796 60.2521 25.7902 60.4445 25.7743C60.6708 25.7769 60.8902 25.8541 61.0702 25.9944L61.3204 25.5645C61.0792 25.3606 60.7721 25.2565 60.4595 25.2727C60.2916 25.263 60.1235 25.2892 59.966 25.3497C59.8085 25.4103 59.6651 25.5037 59.545 25.6242C59.4248 25.7446 59.3306 25.8894 59.2683 26.0492C59.206 26.209 59.177 26.3803 59.1832 26.5523V26.5625ZM64.0582 26.5625V25.3444H63.5377V25.6412C63.4493 25.5249 63.3351 25.4318 63.2046 25.3695C63.074 25.3072 62.9309 25.2775 62.7869 25.283C62.4551 25.283 62.1368 25.4178 61.9021 25.6577C61.6675 25.8977 61.5356 26.2232 61.5356 26.5625C61.5356 26.9019 61.6675 27.2273 61.9021 27.4673C62.1368 27.7072 62.4551 27.8421 62.7869 27.8421C62.9309 27.8475 63.074 27.8178 63.2046 27.7555C63.3351 27.6932 63.4493 27.6001 63.5377 27.4838V27.7806H64.0582V26.5625ZM62.1212 26.5625C62.1295 26.4185 62.1788 26.2801 62.2631 26.1644C62.3473 26.0487 62.4628 25.9607 62.5953 25.9112C62.7279 25.8618 62.8716 25.8531 63.0089 25.8861C63.1463 25.9192 63.2711 25.9926 63.3682 26.0973C63.4652 26.202 63.5302 26.3334 63.5551 26.4754C63.58 26.6174 63.5638 26.7638 63.5084 26.8964C63.453 27.0291 63.3609 27.1423 63.2433 27.2221C63.1258 27.3019 62.988 27.3448 62.847 27.3456C62.7479 27.3469 62.6496 27.3272 62.5583 27.2877C62.4671 27.2483 62.3847 27.19 62.3166 27.1164C62.2484 27.0429 62.1959 26.9557 62.1623 26.8604C62.1286 26.765 62.1147 26.6636 62.1212 26.5625ZM55.8398 25.283C55.508 25.2877 55.1915 25.4271 54.9602 25.6704C54.7288 25.9137 54.6014 26.2411 54.6061 26.5804C54.6107 26.9198 54.747 27.2433 54.9849 27.4799C55.2229 27.7166 55.543 27.8468 55.8749 27.8421C56.2349 27.861 56.589 27.7424 56.8684 27.5094L56.6181 27.1153C56.4205 27.2773 56.1757 27.3674 55.9224 27.3712C55.7503 27.3863 55.5793 27.3322 55.4456 27.2204C55.312 27.1086 55.2262 26.9478 55.2067 26.7724H56.9835C56.9835 26.7058 56.9835 26.6393 56.9835 26.5676C56.9835 25.7999 56.518 25.2881 55.8473 25.2881L55.8398 25.283ZM55.8398 25.759C55.9177 25.7573 55.9952 25.7713 56.0678 25.8002C56.1404 25.8291 56.2067 25.8724 56.2629 25.9275C56.3192 25.9826 56.3642 26.0486 56.3955 26.1215C56.4269 26.1945 56.4438 26.273 56.4454 26.3527H55.1942C55.2032 26.1884 55.2748 26.0343 55.3936 25.9233C55.5124 25.8123 55.669 25.7533 55.8298 25.759H55.8398ZM68.8806 26.5676V24.3617H68.3801V25.6412C68.2917 25.5249 68.1775 25.4318 68.047 25.3695C67.9165 25.3072 67.7733 25.2775 67.6294 25.283C67.2975 25.283 66.9792 25.4178 66.7446 25.6577C66.5099 25.8977 66.3781 26.2232 66.3781 26.5625C66.3781 26.9019 66.5099 27.2273 66.7446 27.4673C66.9792 27.7072 67.2975 27.8421 67.6294 27.8421C67.7733 27.8475 67.9165 27.8178 68.047 27.7555C68.1775 27.6932 68.2917 27.6001 68.3801 27.4838V27.7806H68.8806V26.5676ZM69.749 27.4352C69.7816 27.4348 69.8139 27.4408 69.8441 27.4531C69.8729 27.4651 69.8992 27.4824 69.9217 27.5043C69.9437 27.5263 69.9615 27.5523 69.9743 27.581C69.9869 27.6109 69.9935 27.6431 69.9935 27.6757C69.9935 27.7083 69.9869 27.7405 69.9743 27.7704C69.9615 27.7991 69.9437 27.8251 69.9217 27.8472C69.8992 27.869 69.8729 27.8864 69.8441 27.8984C69.8142 27.9119 69.7818 27.9188 69.749 27.9188C69.7016 27.9185 69.6552 27.9043 69.6153 27.878C69.5755 27.8518 69.5437 27.8144 69.5238 27.7704C69.5113 27.7405 69.5048 27.7083 69.5048 27.6757C69.5048 27.6432 69.5113 27.6109 69.5238 27.581C69.5365 27.5523 69.5544 27.5263 69.5763 27.5043C69.5989 27.4824 69.6252 27.4651 69.6539 27.4531C69.6865 27.4398 69.7215 27.4337 69.7565 27.4352H69.749ZM69.749 27.8676C69.774 27.8678 69.7987 27.8626 69.8216 27.8523C69.8431 27.8425 69.8627 27.8286 69.8792 27.8113C69.9105 27.7764 69.9278 27.7308 69.9278 27.6834C69.9278 27.636 69.9105 27.5904 69.8792 27.5554C69.8627 27.5382 69.8432 27.5243 69.8216 27.5145C69.7987 27.5043 69.774 27.4991 69.749 27.4991C69.7241 27.4993 69.6994 27.5045 69.6764 27.5145C69.654 27.5239 69.6335 27.5378 69.6164 27.5554C69.5851 27.5904 69.5677 27.636 69.5677 27.6834C69.5677 27.7308 69.5851 27.7764 69.6164 27.8113C69.6336 27.8289 69.654 27.8428 69.6764 27.8523C69.7017 27.8634 69.7291 27.8687 69.7565 27.8676H69.749ZM69.764 27.5631C69.7874 27.562 69.8104 27.5692 69.8291 27.5836C69.8368 27.5901 69.8428 27.5983 69.8467 27.6077C69.8506 27.617 69.8523 27.6272 69.8516 27.6373C69.852 27.6458 69.8506 27.6543 69.8476 27.6622C69.8446 27.6702 69.84 27.6774 69.8341 27.6834C69.8196 27.6969 69.8011 27.705 69.7816 27.7064L69.8541 27.7909H69.7966L69.729 27.7064H69.7065V27.7909H69.6589V27.5657L69.764 27.5631ZM69.709 27.6066V27.668H69.764C69.7738 27.671 69.7843 27.671 69.7941 27.668C69.7958 27.6645 69.7967 27.6605 69.7967 27.6565C69.7967 27.6525 69.7958 27.6486 69.7941 27.645C69.7958 27.6414 69.7967 27.6375 69.7967 27.6335C69.7967 27.6295 69.7958 27.6255 69.7941 27.622C69.7843 27.619 69.7738 27.619 69.764 27.622L69.709 27.6066ZM66.9562 26.5676C66.9645 26.4236 67.0138 26.2852 67.098 26.1695C67.1822 26.0538 67.2977 25.9658 67.4303 25.9164C67.5628 25.8669 67.7066 25.8582 67.8439 25.8912C67.9812 25.9243 68.1061 25.9977 68.2031 26.1024C68.3001 26.2071 68.3651 26.3386 68.39 26.4805C68.4149 26.6225 68.3987 26.7689 68.3433 26.9015C68.2879 27.0342 68.1958 27.1474 68.0783 27.2272C67.9608 27.307 67.823 27.35 67.6819 27.3507C67.5828 27.352 67.4846 27.3323 67.3933 27.2928C67.302 27.2534 67.2197 27.1951 67.1515 27.1215C67.0833 27.048 67.0308 26.9608 66.9972 26.8655C66.9636 26.7701 66.9496 26.6687 66.9562 26.5676ZM49.3807 26.5676V25.3444H48.8602V25.6412C48.7718 25.5249 48.6576 25.4318 48.5271 25.3695C48.3965 25.3072 48.2534 25.2775 48.1094 25.283C47.7776 25.283 47.4593 25.4178 47.2247 25.6577C46.99 25.8977 46.8582 26.2232 46.8582 26.5625C46.8582 26.9019 46.99 27.2273 47.2247 27.4673C47.4593 27.7072 47.7776 27.8421 48.1094 27.8421C48.2534 27.8475 48.3965 27.8178 48.5271 27.7555C48.6576 27.6932 48.7718 27.6001 48.8602 27.4838V27.7806H49.3807V26.5676ZM47.4438 26.5676C47.4521 26.4236 47.5014 26.2852 47.5856 26.1695C47.6698 26.0538 47.7853 25.9658 47.9179 25.9164C48.0504 25.8669 48.1942 25.8582 48.3315 25.8912C48.4688 25.9243 48.5937 25.9977 48.6907 26.1024C48.7877 26.2071 48.8527 26.3386 48.8776 26.4805C48.9025 26.6225 48.8863 26.7689 48.8309 26.9015C48.7755 27.0342 48.6834 27.1474 48.5659 27.2272C48.4483 27.307 48.3106 27.35 48.1695 27.3507C48.07 27.3527 47.9712 27.3335 47.8793 27.2944C47.7874 27.2553 47.7045 27.1971 47.6358 27.1234C47.5671 27.0498 47.5141 26.9624 47.4802 26.8667C47.4462 26.771 47.4321 26.6692 47.4388 26.5676H47.4438Z" fill="#231F20"/>
<path d="M60.2053 6.85657H52.3223V21.3436H60.2053V6.85657Z" fill="#FF5F00"/>
<path d="M52.8235 14.1021C52.8221 12.7067 53.1311 11.3292 53.7273 10.074C54.3235 8.81884 55.1911 7.71883 56.2645 6.85729C54.9355 5.78918 53.3393 5.12498 51.6586 4.94062C49.9778 4.75625 48.2802 5.05915 46.7599 5.81469C45.2395 6.57024 43.9576 7.74794 43.0609 9.21321C42.1641 10.6785 41.6885 12.3722 41.6885 14.1008C41.6885 15.8294 42.1641 17.5231 43.0609 18.9884C43.9576 20.4536 45.2395 21.6313 46.7599 22.3869C48.2802 23.1424 49.9778 23.4453 51.6586 23.2609C53.3393 23.0766 54.9355 22.4124 56.2645 21.3443C55.1914 20.483 54.324 19.3834 53.7278 18.1287C53.1317 16.874 52.8224 15.497 52.8235 14.1021Z" fill="#EB001B"/>
<path d="M70.5774 14.1011C70.5773 15.8298 70.1017 17.5236 69.2047 18.9889C68.3077 20.4542 67.0257 21.6319 65.5051 22.3874C63.9846 23.1428 62.2868 23.4455 60.606 23.2609C58.9251 23.0762 57.329 22.4117 56 21.3433C57.0727 20.4812 57.9399 19.3813 58.5362 18.1265C59.1325 16.8718 59.4423 15.4949 59.4423 14.0998C59.4423 12.7047 59.1325 11.3278 58.5362 10.073C57.9399 8.81823 57.0727 7.71832 56 6.85627C57.329 5.78783 58.9251 5.12332 60.606 4.93869C62.2868 4.75405 63.9846 5.05676 65.5051 5.81219C67.0257 6.56763 68.3077 7.74532 69.2047 9.21064C70.1017 10.676 70.5773 12.3698 70.5774 14.0985V14.1011Z" fill="#F79E1B"/>
<path d="M69.981 19.8086V19.5117H70.0986V19.4503H69.8008V19.5117H69.9284V19.8086H69.981ZM70.5591 19.8086V19.4503H70.469L70.3639 19.7062L70.2587 19.4503H70.1787V19.8086H70.2437V19.5399L70.3413 19.7728H70.4089L70.5065 19.5399V19.8111L70.5591 19.8086Z" fill="#F79E1B"/>
</g>
</g>
<path d="M81 28H111V5.18015H81V28Z" fill="white"/>
<path d="M110.223 11.6024H81.7764V5.95701H110.223V11.6024Z" fill="#23509F"/>
<path d="M110.223 12.1505H81.7764V21.0297H110.223V12.1505Z" fill="#23509F"/>
<path d="M110.223 27.2231H81.7764V21.5777H110.223V27.2231Z" fill="#23509F"/>
<path d="M105.713 10.7711H106.551V10.2504H105.713V10.7711Z" fill="white"/>
<path d="M104.645 10.7711H105.482V10.2504H104.645V10.7711Z" fill="white"/>
<path d="M92.9221 9.27269H92.4105V8.53815H91.3782V9.27269H83.9197L83.8288 9.07864L84.5362 8.15837V7.50051H83.5205L82.3994 8.95895L83.0381 10.3232H93.9543V8.53815H92.9221V9.27269Z" fill="white"/>
<path d="M93.8817 7.5805H93.0439V8.1012H93.8817V7.5805Z" fill="white"/>
<path d="M86.0253 7.73833H85.1875V8.25903H86.0253V7.73833Z" fill="white"/>
<path d="M87.1122 7.73833H86.2744V8.25903H87.1122V7.73833Z" fill="white"/>
<path d="M108.956 8.32732H105.905L105.44 7.94045H108.681L108.343 7.35048H104.274L104.209 7.55908L105.607 8.72388H108.011V9.03344H105.413L104.531 8.29832H102.769V9.85555H99.8672V9.21717H102.314V8.29832H98.3584V10.61H103.813V9.38153L104.429 9.89429H108.996L109.636 9.23812V9.02466L108.956 8.32732Z" fill="white"/>
<path d="M94.9717 9.66699H96.9037V8.8235H94.9717V9.66699Z" fill="white"/>
<path d="M106.461 20.1527L101.239 16.2245L106.369 13.0822H97.1794L92.6839 15.8354V13.0822H86.2744V20.1527H92.6839V16.4717L96.7979 20.1527H106.461Z" fill="#FFF200"/>
<path d="M84.9971 26.4642V22.9609H85.9156V23.3767C86.0466 23.207 86.2013 23.0797 86.3797 22.9948C86.5581 22.9099 86.7568 22.8675 86.9759 22.8675C87.3627 22.8675 87.6522 22.9679 87.8446 23.1689C88.0368 23.3697 88.133 23.6721 88.133 24.0761V26.4642H87.1951V24.3468C87.1951 24.0954 87.1527 23.916 87.0677 23.8086C86.9829 23.7011 86.8449 23.6475 86.6537 23.6475C86.4323 23.6475 86.2572 23.7136 86.1283 23.8457C85.9994 23.9778 85.935 24.1578 85.935 24.3855V26.4642H84.9971Z" fill="white"/>
<path d="M95.2269 24.3002H96.6063C96.5978 24.0639 96.5348 23.8839 96.4177 23.7603C96.3007 23.6368 96.1326 23.575 95.9134 23.575C95.7092 23.575 95.5487 23.6374 95.4315 23.7619C95.3144 23.8866 95.2462 24.066 95.2269 24.3002ZM96.5935 25.3572H97.5281C97.4335 25.7269 97.2428 26.0164 96.956 26.2259C96.6691 26.4354 96.3195 26.54 95.9069 26.54C95.3998 26.54 94.998 26.3698 94.7016 26.0292C94.4051 25.6888 94.2568 25.2273 94.2568 24.645C94.2568 24.0714 94.4029 23.6191 94.6951 23.2882C94.9873 22.9573 95.3869 22.7917 95.894 22.7917C96.4311 22.7917 96.8458 22.9546 97.1381 23.2802C97.4302 23.6057 97.5764 24.0692 97.5764 24.6708C97.5764 24.7374 97.5758 24.7874 97.5748 24.8206C97.5737 24.854 97.571 24.8857 97.5667 24.9158H95.2269C95.2398 25.1908 95.3069 25.3982 95.4284 25.5377C95.5497 25.6774 95.7243 25.7472 95.9521 25.7472C96.1133 25.7472 96.2454 25.7155 96.3485 25.6522C96.4516 25.5888 96.5333 25.4905 96.5935 25.3572Z" fill="white"/>
<path d="M106.889 26.8995C106.803 26.9017 106.7 26.9054 106.581 26.9108C106.462 26.9161 106.386 26.9188 106.354 26.9188C105.995 26.9188 105.75 26.8517 105.617 26.7174C105.485 26.5832 105.419 26.3184 105.419 25.9229V24.0279H104.955V23.3704H105.419V22.4132H106.347V23.3704H106.889V24.0279H106.347V25.9681C106.347 26.0605 106.368 26.1212 106.409 26.1502C106.449 26.1792 106.533 26.1937 106.66 26.1937H106.889V26.8995Z" fill="white"/>
<path d="M141.544 18.2118C141.447 18.0425 141.316 17.8942 141.159 17.7757C141.003 17.6572 140.824 17.5708 140.634 17.5216C140.443 17.4723 140.244 17.4613 140.05 17.4891C139.855 17.5168 139.667 17.5829 139.498 17.6833L136.296 19.5318C136.212 19.1995 136.017 18.9051 135.742 18.6971C135.467 18.4891 135.129 18.3798 134.783 18.3872H130.958L130.869 18.2995C129.978 17.6973 128.924 17.3752 127.845 17.3752C126.766 17.3752 125.712 17.6973 124.82 18.2995V17.8595C124.811 17.7224 124.752 17.5932 124.654 17.4961C124.556 17.3989 124.425 17.3403 124.286 17.3311H121.262C121.123 17.3403 120.993 17.3989 120.895 17.4961C120.797 17.5932 120.737 17.7224 120.728 17.8595V23.8455C120.725 23.9157 120.737 23.9858 120.763 24.0512C120.788 24.1167 120.828 24.1761 120.878 24.2258C120.928 24.2755 120.988 24.3143 121.054 24.3398C121.12 24.3653 121.191 24.3769 121.262 24.374H124.286C124.425 24.3648 124.556 24.3061 124.654 24.2089C124.752 24.1118 124.811 23.9826 124.82 23.8455V23.7578L125.265 24.1087C125.499 24.2741 125.778 24.366 126.066 24.3726H133.539C133.785 24.3662 134.027 24.3061 134.248 24.1964L141.009 20.3227C141.354 20.1045 141.601 19.7641 141.7 19.3712C141.8 18.9783 141.743 18.5627 141.543 18.2097L141.544 18.2118ZM123.752 23.2301H121.706V18.2118H123.752V23.2301ZM140.476 19.3563L133.715 23.2301C133.68 23.2634 133.638 23.2886 133.592 23.3037C133.546 23.3189 133.497 23.3237 133.449 23.3178H126.065C126.017 23.3237 125.968 23.3189 125.922 23.3037C125.876 23.2886 125.833 23.2634 125.798 23.2301L124.731 22.5283V19.3563C124.779 19.3623 124.828 19.3575 124.874 19.3423C124.921 19.3271 124.963 19.3019 124.998 19.2686L125.264 19.0925C126.007 18.6184 126.872 18.3662 127.755 18.3662C128.639 18.3662 129.504 18.6184 130.246 19.0925L130.424 19.2686C130.459 19.3019 130.501 19.3271 130.547 19.3423C130.594 19.3575 130.643 19.3623 130.691 19.3563H134.697C134.826 19.3477 134.952 19.3891 135.05 19.4716C135.147 19.5541 135.209 19.6711 135.22 19.7977C135.232 19.9242 135.193 20.0503 135.112 20.1488C135.031 20.2473 134.914 20.3105 134.786 20.3248H131.577C131.439 20.334 131.308 20.3926 131.21 20.4898C131.112 20.587 131.053 20.7161 131.043 20.8532C131.04 20.9234 131.052 20.9934 131.078 21.0589C131.104 21.1244 131.143 21.1838 131.193 21.2335C131.243 21.2832 131.303 21.322 131.369 21.3475C131.436 21.373 131.506 21.3846 131.577 21.3816H134.602C134.955 21.3589 135.294 21.2372 135.58 21.0308L139.764 18.6539C139.868 18.5843 139.994 18.5533 140.119 18.5662C140.188 18.5702 140.254 18.5993 140.303 18.6479C140.352 18.6965 140.381 18.7613 140.385 18.83C140.419 18.8647 140.445 18.9064 140.46 18.952C140.475 18.9977 140.48 19.0461 140.474 19.0939C140.741 19.0939 140.652 19.27 140.474 19.3577L140.476 19.3563Z" fill="#195190"/>
<path d="M141.545 8.44057H125.977C125.906 8.4376 125.835 8.44923 125.769 8.47473C125.703 8.50023 125.643 8.53905 125.593 8.58872C125.542 8.6384 125.503 8.69785 125.477 8.76331C125.452 8.82877 125.44 8.89881 125.443 8.969V16.0996C125.452 16.2367 125.511 16.3659 125.61 16.463C125.708 16.5602 125.838 16.6188 125.977 16.6281H141.545C141.683 16.6188 141.814 16.5602 141.912 16.463C142.01 16.3659 142.069 16.2367 142.079 16.0996V8.88058C142.066 8.75268 142.002 8.63496 141.902 8.5527C141.803 8.47044 141.674 8.43018 141.545 8.44057Z" fill="#195190"/>
<path d="M133.627 16.0988C135.592 16.0988 137.185 14.5222 137.185 12.5774C137.185 10.6325 135.592 9.05591 133.627 9.05591C131.662 9.05591 130.068 10.6325 130.068 12.5774C130.068 14.5222 131.662 16.0988 133.627 16.0988Z" fill="white"/>
<path d="M133.626 11.2572C133.686 11.2538 133.745 11.2628 133.801 11.2837C133.856 11.3045 133.907 11.3368 133.949 11.3784C133.991 11.42 134.023 11.4699 134.044 11.5248C134.065 11.5798 134.075 11.6386 134.071 11.6972V11.785H134.96C134.957 11.5142 134.87 11.251 134.711 11.0306C134.552 10.8103 134.329 10.6435 134.071 10.5527V9.93652H133.182V10.465C132.857 10.5893 132.593 10.8321 132.444 11.1434C132.295 11.4547 132.273 11.8107 132.381 12.138C132.458 12.3783 132.613 12.5865 132.822 12.7299C133.032 12.8733 133.283 12.9438 133.538 12.9302C133.597 12.9268 133.656 12.9358 133.712 12.9567C133.767 12.9775 133.818 13.0098 133.86 13.0514C133.902 13.093 133.935 13.1429 133.956 13.1978C133.977 13.2528 133.986 13.3116 133.982 13.3703C133.982 13.487 133.935 13.5991 133.852 13.6816C133.769 13.7642 133.655 13.8106 133.537 13.8106C133.419 13.8106 133.306 13.7642 133.223 13.6816C133.139 13.5991 133.092 13.487 133.092 13.3703H132.203C132.206 13.641 132.293 13.9043 132.452 14.1246C132.611 14.3449 132.835 14.5117 133.092 14.6026V15.1296H133.982V14.6012C134.307 14.4768 134.571 14.234 134.72 13.9227C134.869 13.6114 134.891 13.2554 134.783 12.9281C134.706 12.6878 134.551 12.4796 134.342 12.3362C134.132 12.1928 133.881 12.1223 133.626 12.1359C133.567 12.1393 133.508 12.1303 133.452 12.1094C133.397 12.0886 133.346 12.0563 133.304 12.0147C133.262 11.9731 133.23 11.9232 133.208 11.8683C133.187 11.8133 133.178 11.7545 133.182 11.6958C133.182 11.432 133.36 11.1674 133.626 11.2558V11.2572Z" fill="#195190"/>
<path d="M146.525 24.7261C146.466 24.7295 146.407 24.7205 146.351 24.6996C146.296 24.6788 146.245 24.6465 146.203 24.6049C146.161 24.5633 146.129 24.5134 146.108 24.4585C146.086 24.4035 146.077 24.3447 146.081 24.2861V8.43952C146.081 8.32282 146.128 8.2109 146.211 8.12839C146.294 8.04587 146.408 7.99951 146.525 7.99951C146.643 7.99951 146.756 8.04587 146.84 8.12839C146.923 8.2109 146.97 8.32282 146.97 8.43952V24.2861C146.963 24.4003 146.913 24.508 146.832 24.5889C146.75 24.6699 146.641 24.7186 146.525 24.7261Z" fill="#195190"/>
<path d="M150.529 11.3445C150.548 10.827 150.731 10.3284 151.052 9.91945C151.373 9.51046 151.816 9.21177 152.318 9.06568C152.82 8.91959 153.355 8.93351 153.849 9.10546C154.343 9.27741 154.769 9.59868 155.068 10.0238C155.14 10.1589 155.17 10.3117 155.156 10.4638C155.156 10.6399 154.978 10.9038 154.802 10.9038C154.625 10.9038 154.535 10.8161 154.357 10.5529C154.233 10.3159 154.039 10.122 153.8 9.99666C153.562 9.87135 153.291 9.8206 153.023 9.85113C152.812 9.85029 152.604 9.89071 152.409 9.97005C152.214 10.0494 152.037 10.1661 151.889 10.3134C151.74 10.4607 151.622 10.6357 151.542 10.8283C151.461 11.021 151.421 11.2274 151.421 11.4357V13.1964C151.413 13.4068 151.449 13.6165 151.526 13.8125C151.604 14.0085 151.721 14.1865 151.872 14.3354C152.022 14.4842 152.202 14.6006 152.4 14.6773C152.598 14.754 152.81 14.7893 153.023 14.781C153.311 14.7961 153.599 14.7296 153.851 14.5893C154.103 14.4491 154.309 14.2408 154.446 13.9887C154.535 13.8126 154.624 13.6378 154.891 13.6378C154.95 13.6344 155.009 13.6434 155.065 13.6643C155.12 13.6851 155.171 13.7174 155.213 13.759C155.255 13.8006 155.287 13.8505 155.308 13.9054C155.33 13.9604 155.339 14.0192 155.335 14.0779C155.317 14.265 155.256 14.4456 155.157 14.6063C154.924 14.9451 154.602 15.2144 154.226 15.3852C153.85 15.5559 153.433 15.6214 153.022 15.5747C152.698 15.5925 152.373 15.5439 152.069 15.432C151.764 15.32 151.486 15.147 151.252 14.9239C151.019 14.7009 150.834 14.4324 150.71 14.1354C150.585 13.8384 150.525 13.5192 150.531 13.1978V11.3445H150.529Z" fill="#195190"/>
<path d="M159.96 13.7219H157.202L156.757 14.9542C156.669 15.2181 156.579 15.3051 156.313 15.3051C156.207 15.3156 156.101 15.2848 156.018 15.2192C155.935 15.1537 155.881 15.0586 155.868 14.9542C155.874 14.8326 155.904 14.7133 155.957 14.6033L157.914 9.4973C158.092 9.14642 158.269 8.96887 158.623 8.96887C158.978 8.96887 159.157 9.14501 159.332 9.4973L161.29 14.6033C161.342 14.7133 161.373 14.8326 161.378 14.9542C161.365 15.0586 161.311 15.1537 161.228 15.2192C161.145 15.2848 161.039 15.3156 160.934 15.3051C160.83 15.3055 160.73 15.2709 160.649 15.2071C160.568 15.1433 160.512 15.0541 160.489 14.9542L159.96 13.7219ZM157.469 12.9296H159.604L158.537 10.2005H158.448L157.469 12.9296Z" fill="#195190"/>
<path d="M162.895 10.7288C162.895 12.0495 166.542 11.4306 166.542 13.5457C166.542 14.5141 165.653 15.3941 164.14 15.3941C163.732 15.4159 163.324 15.3392 162.952 15.1705C162.58 15.0018 162.255 14.7462 162.005 14.4257C161.906 14.265 161.846 14.0844 161.827 13.8973C161.835 13.783 161.884 13.6754 161.966 13.5944C162.048 13.5134 162.156 13.4647 162.272 13.4573C162.538 13.4573 162.626 13.6334 162.716 13.8082C162.839 14.0719 163.042 14.2906 163.298 14.4329C163.554 14.5753 163.848 14.6339 164.14 14.6004C165.118 14.6004 165.652 14.072 165.652 13.5443C165.652 12.2236 162.005 12.8425 162.005 10.7274C162.005 9.75897 162.806 8.96668 164.14 8.96668C164.544 8.95368 164.945 9.04406 165.303 9.22907C165.662 9.41409 165.966 9.68749 166.186 10.0228C166.275 10.199 166.364 10.2867 166.364 10.4628C166.357 10.5771 166.308 10.6848 166.226 10.7657C166.144 10.8467 166.035 10.8954 165.92 10.9029C165.653 10.9029 165.653 10.8151 165.475 10.552C165.351 10.315 165.156 10.121 164.918 9.99573C164.68 9.87042 164.408 9.81967 164.14 9.8502C163.34 9.76038 162.895 10.2004 162.895 10.7288Z" fill="#195190"/>
<path d="M172.502 14.9542C172.479 15.0539 172.423 15.143 172.342 15.2068C172.261 15.2706 172.161 15.3054 172.058 15.3054C171.954 15.3054 171.854 15.2706 171.773 15.2068C171.692 15.143 171.636 15.0539 171.613 14.9542V12.5773H168.588V14.9542C168.566 15.0539 168.509 15.143 168.428 15.2068C168.348 15.2706 168.247 15.3054 168.144 15.3054C168.04 15.3054 167.94 15.2706 167.859 15.2068C167.779 15.143 167.722 15.0539 167.699 14.9542V9.40674C167.722 9.307 167.779 9.21792 167.859 9.15411C167.94 9.0903 168.04 9.05554 168.144 9.05554C168.247 9.05554 168.348 9.0903 168.428 9.15411C168.509 9.21792 168.566 9.307 168.588 9.40674V11.6959H171.613V9.40674C171.636 9.307 171.692 9.21792 171.773 9.15411C171.854 9.0903 171.954 9.05554 172.058 9.05554C172.161 9.05554 172.261 9.0903 172.342 9.15411C172.423 9.21792 172.479 9.307 172.502 9.40674V14.9542Z" fill="#195190"/>
<path d="M181.22 13.1087C181.226 13.4301 181.165 13.7493 181.041 14.0463C180.917 14.3433 180.732 14.6117 180.498 14.8348C180.264 15.0579 179.987 15.2309 179.682 15.3428C179.378 15.4548 179.053 15.5034 178.729 15.4856C178.403 15.5108 178.075 15.4673 177.767 15.3579C177.46 15.2486 177.179 15.0759 176.944 14.8513C176.708 14.6267 176.524 14.3552 176.402 14.0549C176.281 13.7545 176.225 13.432 176.238 13.1087V11.3452C176.232 11.0238 176.293 10.7046 176.417 10.4076C176.541 10.1106 176.726 9.84217 176.96 9.61907C177.194 9.39597 177.472 9.22303 177.776 9.11105C178.081 8.99907 178.405 8.95048 178.73 8.9683C179.056 8.94301 179.383 8.98644 179.691 9.09573C179.999 9.20502 180.28 9.37767 180.515 9.6023C180.751 9.82693 180.935 10.0984 181.057 10.3989C181.179 10.6993 181.234 11.0218 181.221 11.3452L181.22 13.1087ZM180.331 11.348C180.332 11.1397 180.291 10.9332 180.211 10.7406C180.13 10.548 180.013 10.373 179.864 10.2257C179.715 10.0783 179.538 9.96166 179.343 9.88232C179.149 9.80298 178.94 9.76257 178.73 9.7634C178.517 9.7551 178.305 9.79042 178.107 9.86711C177.909 9.94381 177.729 10.0602 177.579 10.2091C177.428 10.3579 177.311 10.5359 177.233 10.7319C177.156 10.9279 177.12 11.1377 177.128 11.348V13.1087C177.127 13.317 177.168 13.5235 177.248 13.7161C177.329 13.9087 177.447 14.0837 177.595 14.231C177.744 14.3784 177.921 14.495 178.116 14.5744C178.31 14.6537 178.519 14.6941 178.73 14.6933C178.942 14.7016 179.154 14.6663 179.352 14.5896C179.55 14.5129 179.73 14.3965 179.88 14.2476C180.031 14.0988 180.149 13.9208 180.226 13.7248C180.304 13.5288 180.339 13.319 180.331 13.1087V11.348Z" fill="#195190"/>
<path d="M183.444 10.6407V14.9544C183.421 15.0541 183.365 15.1432 183.284 15.207C183.203 15.2708 183.103 15.3056 182.999 15.3056C182.896 15.3056 182.796 15.2708 182.715 15.207C182.634 15.1432 182.578 15.0541 182.555 14.9544V9.49608C182.555 9.23222 182.733 9.05607 183.089 9.05607C183.202 9.05869 183.312 9.09304 183.407 9.15513C183.501 9.21723 183.576 9.30454 183.623 9.40695L186.469 13.7207V9.40695C186.492 9.30686 186.548 9.21738 186.629 9.15326C186.71 9.08914 186.811 9.0542 186.914 9.0542C187.018 9.0542 187.118 9.08914 187.199 9.15326C187.28 9.21738 187.337 9.30686 187.359 9.40695V14.8667C187.359 15.1305 187.181 15.3067 186.825 15.3067C186.703 15.2935 186.584 15.2555 186.477 15.1952C186.37 15.1348 186.277 15.0533 186.203 14.9558L183.445 10.6421L183.444 10.6407Z" fill="#195190"/>
<path d="M150.529 11.3445C150.548 10.827 150.731 10.3284 151.052 9.91945C151.373 9.51046 151.816 9.21177 152.318 9.06568C152.82 8.91959 153.355 8.93351 153.849 9.10546C154.343 9.27741 154.769 9.59868 155.068 10.0238C155.14 10.1589 155.17 10.3117 155.156 10.4638C155.156 10.6399 154.978 10.9038 154.802 10.9038C154.625 10.9038 154.535 10.8161 154.357 10.5529C154.233 10.3159 154.039 10.122 153.8 9.99666C153.562 9.87135 153.291 9.8206 153.023 9.85113C152.812 9.85029 152.604 9.89071 152.409 9.97005C152.214 10.0494 152.037 10.1661 151.889 10.3134C151.74 10.4607 151.622 10.6357 151.542 10.8283C151.461 11.021 151.421 11.2274 151.421 11.4357V13.1964C151.413 13.4068 151.449 13.6165 151.526 13.8125C151.604 14.0085 151.721 14.1865 151.872 14.3354C152.022 14.4842 152.202 14.6006 152.4 14.6773C152.598 14.754 152.81 14.7893 153.023 14.781C153.311 14.7961 153.599 14.7296 153.851 14.5893C154.103 14.4491 154.309 14.2408 154.446 13.9887C154.535 13.8126 154.624 13.6378 154.891 13.6378C154.95 13.6344 155.009 13.6434 155.065 13.6643C155.12 13.6851 155.171 13.7174 155.213 13.759C155.255 13.8006 155.287 13.8505 155.308 13.9054C155.33 13.9604 155.339 14.0192 155.335 14.0779C155.317 14.265 155.256 14.4456 155.157 14.6063C154.924 14.9451 154.602 15.2144 154.226 15.3852C153.85 15.5559 153.433 15.6214 153.022 15.5747C152.698 15.5925 152.373 15.5439 152.069 15.432C151.764 15.32 151.486 15.147 151.252 14.9239C151.019 14.7009 150.834 14.4324 150.71 14.1354C150.585 13.8384 150.525 13.5192 150.531 13.1978V11.3445H150.529Z" stroke="#195190" stroke-width="0.176136" stroke-miterlimit="10"/>
<path d="M159.96 13.7219H157.202L156.757 14.9542C156.669 15.2181 156.579 15.3051 156.313 15.3051C156.207 15.3156 156.101 15.2848 156.018 15.2192C155.935 15.1537 155.881 15.0586 155.868 14.9542C155.874 14.8326 155.904 14.7133 155.957 14.6033L157.914 9.4973C158.092 9.14642 158.269 8.96887 158.623 8.96887C158.978 8.96887 159.157 9.14501 159.332 9.4973L161.29 14.6033C161.342 14.7133 161.373 14.8326 161.378 14.9542C161.365 15.0586 161.311 15.1537 161.228 15.2192C161.145 15.2848 161.039 15.3156 160.934 15.3051C160.83 15.3055 160.73 15.2709 160.649 15.2071C160.568 15.1433 160.512 15.0541 160.489 14.9542L159.96 13.7219ZM157.469 12.9296H159.604L158.537 10.2005H158.448L157.469 12.9296Z" stroke="#195190" stroke-width="0.176136" stroke-miterlimit="10"/>
<path d="M162.895 10.7288C162.895 12.0495 166.542 11.4306 166.542 13.5457C166.542 14.5141 165.653 15.3941 164.14 15.3941C163.732 15.4159 163.324 15.3392 162.952 15.1705C162.58 15.0018 162.255 14.7462 162.005 14.4257C161.906 14.265 161.846 14.0844 161.827 13.8973C161.835 13.783 161.884 13.6754 161.966 13.5944C162.048 13.5134 162.156 13.4647 162.272 13.4573C162.538 13.4573 162.626 13.6334 162.716 13.8082C162.839 14.0719 163.042 14.2906 163.298 14.4329C163.554 14.5753 163.848 14.6339 164.14 14.6004C165.118 14.6004 165.652 14.072 165.652 13.5443C165.652 12.2236 162.005 12.8425 162.005 10.7274C162.005 9.75897 162.806 8.96668 164.14 8.96668C164.544 8.95368 164.945 9.04406 165.303 9.22907C165.662 9.41409 165.966 9.68749 166.186 10.0228C166.275 10.199 166.364 10.2867 166.364 10.4628C166.357 10.5771 166.308 10.6848 166.226 10.7657C166.144 10.8467 166.035 10.8954 165.92 10.9029C165.653 10.9029 165.653 10.8151 165.475 10.552C165.351 10.315 165.156 10.121 164.918 9.99573C164.68 9.87042 164.408 9.81967 164.14 9.8502C163.34 9.76038 162.895 10.2004 162.895 10.7288Z" stroke="#195190" stroke-width="0.176136" stroke-miterlimit="10"/>
<path d="M172.502 14.9542C172.479 15.0539 172.423 15.143 172.342 15.2068C172.261 15.2706 172.161 15.3054 172.058 15.3054C171.954 15.3054 171.854 15.2706 171.773 15.2068C171.692 15.143 171.636 15.0539 171.613 14.9542V12.5773H168.588V14.9542C168.566 15.0539 168.509 15.143 168.428 15.2068C168.348 15.2706 168.247 15.3054 168.144 15.3054C168.04 15.3054 167.94 15.2706 167.859 15.2068C167.779 15.143 167.722 15.0539 167.699 14.9542V9.40674C167.722 9.307 167.779 9.21792 167.859 9.15411C167.94 9.0903 168.04 9.05554 168.144 9.05554C168.247 9.05554 168.348 9.0903 168.428 9.15411C168.509 9.21792 168.566 9.307 168.588 9.40674V11.6959H171.613V9.40674C171.636 9.307 171.692 9.21792 171.773 9.15411C171.854 9.0903 171.954 9.05554 172.058 9.05554C172.161 9.05554 172.261 9.0903 172.342 9.15411C172.423 9.21792 172.479 9.307 172.502 9.40674V14.9542Z" stroke="#195190" stroke-width="0.176136" stroke-miterlimit="10"/>
<path d="M181.22 13.1087C181.226 13.4301 181.165 13.7493 181.041 14.0463C180.917 14.3433 180.732 14.6117 180.498 14.8348C180.264 15.0579 179.987 15.2309 179.682 15.3428C179.378 15.4548 179.053 15.5034 178.729 15.4856C178.403 15.5108 178.075 15.4673 177.767 15.3579C177.46 15.2486 177.179 15.0759 176.944 14.8513C176.708 14.6267 176.524 14.3552 176.402 14.0549C176.281 13.7545 176.225 13.432 176.238 13.1087V11.3452C176.232 11.0238 176.293 10.7046 176.417 10.4076C176.541 10.1106 176.726 9.84217 176.96 9.61907C177.194 9.39597 177.472 9.22303 177.776 9.11105C178.081 8.99907 178.405 8.95048 178.73 8.9683C179.056 8.94301 179.383 8.98644 179.691 9.09573C179.999 9.20502 180.28 9.37767 180.515 9.6023C180.751 9.82693 180.935 10.0984 181.057 10.3989C181.179 10.6993 181.234 11.0218 181.221 11.3452L181.22 13.1087ZM180.331 11.348C180.332 11.1397 180.291 10.9332 180.211 10.7406C180.13 10.548 180.013 10.373 179.864 10.2257C179.715 10.0783 179.538 9.96166 179.343 9.88232C179.149 9.80298 178.94 9.76257 178.73 9.7634C178.517 9.7551 178.305 9.79042 178.107 9.86711C177.909 9.94381 177.729 10.0602 177.579 10.2091C177.428 10.3579 177.311 10.5359 177.233 10.7319C177.156 10.9279 177.12 11.1377 177.128 11.348V13.1087C177.127 13.317 177.168 13.5235 177.248 13.7161C177.329 13.9087 177.447 14.0837 177.595 14.231C177.744 14.3784 177.921 14.495 178.116 14.5744C178.31 14.6537 178.519 14.6941 178.73 14.6933C178.942 14.7016 179.154 14.6663 179.352 14.5896C179.55 14.5129 179.73 14.3965 179.88 14.2476C180.031 14.0988 180.149 13.9208 180.226 13.7248C180.304 13.5288 180.339 13.319 180.331 13.1087V11.348Z" stroke="#195190" stroke-width="0.176136" stroke-miterlimit="10"/>
<path d="M183.444 10.6407V14.9544C183.421 15.0541 183.365 15.1432 183.284 15.207C183.203 15.2708 183.103 15.3056 182.999 15.3056C182.896 15.3056 182.796 15.2708 182.715 15.207C182.634 15.1432 182.578 15.0541 182.555 14.9544V9.49608C182.555 9.23222 182.733 9.05607 183.089 9.05607C183.202 9.05869 183.312 9.09304 183.407 9.15513C183.501 9.21723 183.576 9.30454 183.623 9.40695L186.469 13.7207V9.40695C186.492 9.30686 186.548 9.21738 186.629 9.15326C186.71 9.08914 186.811 9.0542 186.914 9.0542C187.018 9.0542 187.118 9.08914 187.199 9.15326C187.28 9.21738 187.337 9.30686 187.359 9.40695V14.8667C187.359 15.1305 187.181 15.3067 186.825 15.3067C186.703 15.2935 186.584 15.2555 186.477 15.1952C186.37 15.1348 186.277 15.0533 186.203 14.9558L183.445 10.6421L183.444 10.6407Z" stroke="#195190" stroke-width="0.176136" stroke-miterlimit="10"/>
<path d="M155.423 20.5012C155.429 20.8226 155.368 21.1417 155.244 21.4387C155.12 21.7357 154.935 22.0042 154.701 22.2273C154.467 22.4504 154.189 22.6233 153.885 22.7353C153.58 22.8473 153.256 22.8959 152.932 22.8781H151.152C151.093 22.8815 151.034 22.8725 150.978 22.8516C150.923 22.8308 150.872 22.7985 150.83 22.7569C150.788 22.7153 150.756 22.6654 150.734 22.6105C150.713 22.5555 150.704 22.4967 150.708 22.438V17.0667C150.721 16.9624 150.775 16.8673 150.858 16.8017C150.941 16.7362 151.047 16.7053 151.152 16.7159H152.932C153.258 16.6906 153.585 16.734 153.893 16.8433C154.201 16.9526 154.482 17.1252 154.717 17.3499C154.953 17.5745 155.137 17.846 155.259 18.1464C155.381 18.4468 155.437 18.7694 155.423 19.0927V20.5012ZM151.598 17.5082V22.0858H152.932C153.145 22.0941 153.357 22.0587 153.555 21.982C153.753 21.9054 153.933 21.7889 154.083 21.6401C154.234 21.4913 154.351 21.3133 154.429 21.1173C154.506 20.9212 154.542 20.7115 154.534 20.5012V19.0927C154.534 18.8844 154.494 18.678 154.413 18.4854C154.333 18.2927 154.215 18.1177 154.066 17.9704C153.918 17.8231 153.741 17.7064 153.546 17.6271C153.351 17.5477 153.143 17.5073 152.932 17.5082H151.598Z" fill="#195190"/>
<path d="M157.736 17.5073V19.3558H159.96C160.019 19.3523 160.078 19.3613 160.134 19.3822C160.189 19.4031 160.24 19.4354 160.282 19.4769C160.324 19.5185 160.356 19.5684 160.378 19.6234C160.399 19.6783 160.408 19.7371 160.404 19.7958C160.404 20.0596 160.226 20.1467 159.96 20.1467H157.736V22.0835H160.938C161.044 22.073 161.15 22.1038 161.233 22.1694C161.316 22.235 161.37 22.3301 161.383 22.4344C161.375 22.5487 161.326 22.6563 161.244 22.7373C161.162 22.8183 161.054 22.867 160.938 22.8744H157.291C157.232 22.8779 157.172 22.8689 157.117 22.848C157.061 22.8271 157.011 22.7948 156.969 22.7533C156.927 22.7117 156.894 22.6618 156.873 22.6068C156.852 22.5519 156.843 22.4931 156.846 22.4344V17.0659C156.86 16.9616 156.913 16.8665 156.997 16.8009C157.08 16.7353 157.185 16.7045 157.291 16.715H160.85C160.955 16.7045 161.061 16.7353 161.144 16.8009C161.227 16.8665 161.281 16.9616 161.294 17.0659C161.287 17.1802 161.237 17.2878 161.156 17.3688C161.074 17.4498 160.965 17.4985 160.85 17.5059L157.736 17.5073Z" fill="#195190"/>
<path d="M163.162 22.0856H165.831C165.936 22.0751 166.042 22.1059 166.125 22.1714C166.208 22.237 166.262 22.3321 166.275 22.4365C166.268 22.5507 166.219 22.6584 166.137 22.7393C166.055 22.8203 165.946 22.8691 165.831 22.8765H162.717C162.658 22.88 162.598 22.871 162.543 22.8501C162.487 22.8292 162.437 22.7969 162.395 22.7553C162.353 22.7137 162.32 22.6638 162.299 22.6089C162.278 22.5539 162.269 22.4952 162.272 22.4365V16.9782C162.295 16.8784 162.352 16.7893 162.432 16.7255C162.513 16.6617 162.613 16.627 162.717 16.627C162.82 16.627 162.921 16.6617 163.001 16.7255C163.082 16.7893 163.139 16.8784 163.161 16.9782L163.162 22.0856Z" fill="#195190"/>
<path d="M168.055 22.6139C168.032 22.714 167.976 22.8035 167.895 22.8676C167.814 22.9318 167.714 22.9667 167.61 22.9667C167.506 22.9667 167.406 22.9318 167.325 22.8676C167.244 22.8035 167.188 22.714 167.165 22.6139V17.0665C167.188 16.9664 167.244 16.8769 167.325 16.8128C167.406 16.7487 167.506 16.7137 167.61 16.7137C167.714 16.7137 167.814 16.7487 167.895 16.8128C167.976 16.8769 168.032 16.9664 168.055 17.0665V22.6139Z" fill="#195190"/>
<path d="M170.99 22.5256L169.122 17.4168C169.069 17.3069 169.039 17.1876 169.033 17.0659C169.046 16.9616 169.1 16.8665 169.183 16.8009C169.266 16.7353 169.372 16.7045 169.478 16.715C169.581 16.7146 169.682 16.7492 169.763 16.813C169.843 16.8768 169.9 16.966 169.922 17.0659L171.702 21.8197L173.481 17.0659C173.57 16.8021 173.659 16.715 173.926 16.715C174.031 16.7045 174.137 16.7353 174.22 16.8009C174.303 16.8665 174.357 16.9616 174.37 17.0659C174.365 17.1876 174.334 17.3069 174.282 17.4168L172.414 22.5228C172.236 22.9628 172.147 23.139 171.705 23.139C171.543 23.1036 171.394 23.0289 171.269 22.9218C171.144 22.8148 171.049 22.6786 170.99 22.5256Z" fill="#195190"/>
<path d="M176.151 17.5073V19.3558H178.375C178.434 19.3523 178.493 19.3613 178.549 19.3822C178.604 19.4031 178.655 19.4354 178.697 19.4769C178.739 19.5185 178.771 19.5684 178.793 19.6234C178.814 19.6783 178.823 19.7371 178.819 19.7958C178.819 20.0596 178.641 20.1467 178.375 20.1467H176.151V22.0835H179.353C179.459 22.073 179.565 22.1038 179.648 22.1694C179.731 22.235 179.785 22.3301 179.798 22.4344C179.79 22.5487 179.741 22.6563 179.659 22.7373C179.577 22.8183 179.469 22.867 179.353 22.8744H175.706C175.647 22.8779 175.587 22.8689 175.532 22.848C175.476 22.8271 175.426 22.7948 175.384 22.7533C175.342 22.7117 175.309 22.6618 175.288 22.6068C175.267 22.5519 175.258 22.4931 175.261 22.4344V17.0659C175.275 16.9616 175.329 16.8665 175.412 16.8009C175.495 16.7353 175.6 16.7045 175.706 16.715H179.265C179.37 16.7045 179.476 16.7353 179.559 16.8009C179.642 16.8665 179.696 16.9616 179.709 17.0659C179.702 17.1802 179.652 17.2878 179.571 17.3688C179.489 17.4498 179.38 17.4985 179.265 17.5059L176.151 17.5073Z" fill="#195190"/>
<path d="M181.666 20.4126V22.5256C181.643 22.6254 181.586 22.7145 181.505 22.7783C181.425 22.8421 181.324 22.8768 181.221 22.8768C181.118 22.8768 181.017 22.8421 180.937 22.7783C180.856 22.7145 180.799 22.6254 180.776 22.5256V17.0659C180.79 16.9616 180.843 16.8665 180.926 16.8009C181.01 16.7353 181.115 16.7045 181.221 16.715H183.089C184.601 16.715 185.313 17.4168 185.313 18.5635C185.299 18.9233 185.171 19.2696 184.948 19.5539C184.724 19.8381 184.416 20.0459 184.068 20.1481L185.491 22.0849C185.602 22.2054 185.665 22.3618 185.669 22.5249C185.656 22.6293 185.602 22.7244 185.519 22.79C185.436 22.8555 185.33 22.8863 185.224 22.8758C185.046 22.8758 184.957 22.7881 184.779 22.6997L183.089 20.4105H181.666V20.4126ZM183.089 19.6203C183.979 19.6203 184.424 19.1803 184.424 18.5642C184.424 17.948 183.979 17.508 183.089 17.508H181.666V19.6203H183.089Z" fill="#195190"/>
<path d="M190.385 16.8916C190.427 16.805 190.496 16.7335 190.581 16.6866C190.666 16.6397 190.763 16.6197 190.86 16.6293C190.957 16.6388 191.049 16.6775 191.123 16.7401C191.197 16.8026 191.249 16.8861 191.274 16.9793C191.263 17.1291 191.233 17.2769 191.185 17.4193L189.14 20.5008V22.5253C189.117 22.6251 189.06 22.7142 188.979 22.778C188.899 22.8418 188.798 22.8765 188.695 22.8765C188.592 22.8765 188.491 22.8418 188.41 22.778C188.33 22.7142 188.273 22.6251 188.25 22.5253V20.5015L186.204 17.42C186.093 17.2995 186.03 17.1432 186.026 16.98C186.026 16.7161 186.204 16.6291 186.471 16.6291C186.649 16.6291 186.826 16.7168 186.826 16.893L188.605 19.6221L190.385 16.8916Z" fill="#195190"/>
<path d="M155.423 20.5012C155.429 20.8226 155.368 21.1417 155.244 21.4387C155.12 21.7357 154.935 22.0042 154.701 22.2273C154.467 22.4504 154.189 22.6233 153.885 22.7353C153.58 22.8473 153.256 22.8959 152.932 22.8781H151.152C151.093 22.8815 151.034 22.8725 150.978 22.8516C150.923 22.8308 150.872 22.7985 150.83 22.7569C150.788 22.7153 150.756 22.6654 150.734 22.6105C150.713 22.5555 150.704 22.4967 150.708 22.438V17.0667C150.721 16.9624 150.775 16.8673 150.858 16.8017C150.941 16.7362 151.047 16.7053 151.152 16.7159H152.932C153.258 16.6906 153.585 16.734 153.893 16.8433C154.201 16.9526 154.482 17.1252 154.717 17.3499C154.953 17.5745 155.137 17.846 155.259 18.1464C155.381 18.4468 155.437 18.7694 155.423 19.0927V20.5012ZM151.598 17.5082V22.0858H152.932C153.145 22.0941 153.357 22.0587 153.555 21.982C153.753 21.9054 153.933 21.7889 154.083 21.6401C154.234 21.4913 154.351 21.3133 154.429 21.1173C154.506 20.9212 154.542 20.7115 154.534 20.5012V19.0927C154.534 18.8844 154.494 18.678 154.413 18.4854C154.333 18.2927 154.215 18.1177 154.066 17.9704C153.918 17.8231 153.741 17.7064 153.546 17.6271C153.351 17.5477 153.143 17.5073 152.932 17.5082H151.598Z" stroke="#195190" stroke-width="0.176136" stroke-miterlimit="10"/>
<path d="M157.736 17.5073V19.3558H159.96C160.019 19.3523 160.078 19.3613 160.134 19.3822C160.189 19.4031 160.24 19.4354 160.282 19.4769C160.324 19.5185 160.356 19.5684 160.378 19.6234C160.399 19.6783 160.408 19.7371 160.404 19.7958C160.404 20.0596 160.226 20.1467 159.96 20.1467H157.736V22.0835H160.938C161.044 22.073 161.15 22.1038 161.233 22.1694C161.316 22.235 161.37 22.3301 161.383 22.4344C161.375 22.5487 161.326 22.6563 161.244 22.7373C161.162 22.8183 161.054 22.867 160.938 22.8744H157.291C157.232 22.8779 157.172 22.8689 157.117 22.848C157.061 22.8271 157.011 22.7948 156.969 22.7533C156.927 22.7117 156.894 22.6618 156.873 22.6068C156.852 22.5519 156.843 22.4931 156.846 22.4344V17.0659C156.86 16.9616 156.913 16.8665 156.997 16.8009C157.08 16.7353 157.185 16.7045 157.291 16.715H160.85C160.955 16.7045 161.061 16.7353 161.144 16.8009C161.227 16.8665 161.281 16.9616 161.294 17.0659C161.287 17.1802 161.237 17.2878 161.156 17.3688C161.074 17.4498 160.965 17.4985 160.85 17.5059L157.736 17.5073Z" stroke="#195190" stroke-width="0.176136" stroke-miterlimit="10"/>
<path d="M163.162 22.0856H165.831C165.936 22.0751 166.042 22.1059 166.125 22.1714C166.208 22.237 166.262 22.3321 166.275 22.4365C166.268 22.5507 166.219 22.6584 166.137 22.7393C166.055 22.8203 165.946 22.8691 165.831 22.8765H162.717C162.658 22.88 162.598 22.871 162.543 22.8501C162.487 22.8292 162.437 22.7969 162.395 22.7553C162.353 22.7137 162.32 22.6638 162.299 22.6089C162.278 22.5539 162.269 22.4952 162.272 22.4365V16.9782C162.295 16.8784 162.352 16.7893 162.432 16.7255C162.513 16.6617 162.613 16.627 162.717 16.627C162.82 16.627 162.921 16.6617 163.001 16.7255C163.082 16.7893 163.139 16.8784 163.161 16.9782L163.162 22.0856Z" stroke="#195190" stroke-width="0.176136" stroke-miterlimit="10"/>
<path d="M168.055 22.6139C168.032 22.714 167.976 22.8035 167.895 22.8676C167.814 22.9318 167.714 22.9667 167.61 22.9667C167.506 22.9667 167.406 22.9318 167.325 22.8676C167.244 22.8035 167.188 22.714 167.165 22.6139V17.0665C167.188 16.9664 167.244 16.8769 167.325 16.8128C167.406 16.7487 167.506 16.7137 167.61 16.7137C167.714 16.7137 167.814 16.7487 167.895 16.8128C167.976 16.8769 168.032 16.9664 168.055 17.0665V22.6139Z" stroke="#195190" stroke-width="0.176136" stroke-miterlimit="10"/>
<path d="M170.99 22.5256L169.122 17.4168C169.069 17.3069 169.039 17.1876 169.033 17.0659C169.046 16.9616 169.1 16.8665 169.183 16.8009C169.266 16.7353 169.372 16.7045 169.478 16.715C169.581 16.7146 169.682 16.7492 169.763 16.813C169.843 16.8768 169.9 16.966 169.922 17.0659L171.702 21.8197L173.481 17.0659C173.57 16.8021 173.659 16.715 173.926 16.715C174.031 16.7045 174.137 16.7353 174.22 16.8009C174.303 16.8665 174.357 16.9616 174.37 17.0659C174.365 17.1876 174.334 17.3069 174.282 17.4168L172.414 22.5228C172.236 22.9628 172.147 23.139 171.705 23.139C171.543 23.1036 171.394 23.0289 171.269 22.9218C171.144 22.8148 171.049 22.6786 170.99 22.5256V22.5256Z" stroke="#195190" stroke-width="0.176136" stroke-miterlimit="10"/>
<path d="M176.151 17.5073V19.3558H178.375C178.434 19.3523 178.493 19.3613 178.549 19.3822C178.604 19.4031 178.655 19.4354 178.697 19.4769C178.739 19.5185 178.771 19.5684 178.793 19.6234C178.814 19.6783 178.823 19.7371 178.819 19.7958C178.819 20.0596 178.641 20.1467 178.375 20.1467H176.151V22.0835H179.353C179.459 22.073 179.565 22.1038 179.648 22.1694C179.731 22.235 179.785 22.3301 179.798 22.4344C179.79 22.5487 179.741 22.6563 179.659 22.7373C179.577 22.8183 179.469 22.867 179.353 22.8744H175.706C175.647 22.8779 175.587 22.8689 175.532 22.848C175.476 22.8271 175.426 22.7948 175.384 22.7533C175.342 22.7117 175.309 22.6618 175.288 22.6068C175.267 22.5519 175.258 22.4931 175.261 22.4344V17.0659C175.275 16.9616 175.329 16.8665 175.412 16.8009C175.495 16.7353 175.6 16.7045 175.706 16.715H179.265C179.37 16.7045 179.476 16.7353 179.559 16.8009C179.642 16.8665 179.696 16.9616 179.709 17.0659C179.702 17.1802 179.652 17.2878 179.571 17.3688C179.489 17.4498 179.38 17.4985 179.265 17.5059L176.151 17.5073Z" stroke="#195190" stroke-width="0.176136" stroke-miterlimit="10"/>
<path d="M181.666 20.4126V22.5256C181.643 22.6254 181.586 22.7145 181.505 22.7783C181.425 22.8421 181.324 22.8768 181.221 22.8768C181.118 22.8768 181.017 22.8421 180.937 22.7783C180.856 22.7145 180.799 22.6254 180.776 22.5256V17.0659C180.79 16.9616 180.843 16.8665 180.926 16.8009C181.01 16.7353 181.115 16.7045 181.221 16.715H183.089C184.601 16.715 185.313 17.4168 185.313 18.5635C185.299 18.9233 185.171 19.2696 184.948 19.5539C184.724 19.8381 184.416 20.0459 184.068 20.1481V20.1481L185.491 22.0849C185.602 22.2054 185.665 22.3618 185.669 22.5249C185.656 22.6293 185.602 22.7244 185.519 22.79C185.436 22.8555 185.33 22.8863 185.224 22.8758C185.046 22.8758 184.957 22.7881 184.779 22.6997L183.089 20.4105H181.666V20.4126ZM183.089 19.6203C183.979 19.6203 184.424 19.1803 184.424 18.5642C184.424 17.948 183.979 17.508 183.089 17.508H181.666V19.6203H183.089Z" stroke="#195190" stroke-width="0.176136" stroke-miterlimit="10"/>
<path d="M190.385 16.8916C190.427 16.805 190.496 16.7335 190.581 16.6866C190.666 16.6397 190.763 16.6197 190.86 16.6293C190.957 16.6388 191.049 16.6775 191.123 16.7401C191.197 16.8026 191.249 16.8861 191.274 16.9793C191.263 17.1291 191.233 17.2769 191.185 17.4193L189.14 20.5008V22.5253C189.117 22.6251 189.06 22.7142 188.979 22.778C188.899 22.8418 188.798 22.8765 188.695 22.8765C188.592 22.8765 188.491 22.8418 188.41 22.778C188.33 22.7142 188.273 22.6251 188.25 22.5253V20.5015L186.204 17.42C186.093 17.2995 186.03 17.1432 186.026 16.98C186.026 16.7161 186.204 16.6291 186.471 16.6291C186.649 16.6291 186.826 16.7168 186.826 16.893L188.605 19.6221L190.385 16.8916Z" stroke="#195190" stroke-width="0.176136" stroke-miterlimit="10"/>
<defs>
<clipPath id="clip0_5170_6418">
<rect width="30.7801" height="26.7055" fill="white" transform="translate(40.7275 2.90906)"/>
</clipPath>
<clipPath id="clip1_5170_6418">
<rect width="36.7375" height="30.814" fill="white" transform="translate(36.7559 0.85437)"/>
</clipPath>
</defs>
</svg>
