<svg width="273" height="32" viewBox="0 0 273 32" fill="none" xmlns="http://www.w3.org/2000/svg">
<path d="M20.5401 11C18.41 11 16.5064 12.1041 16.5064 14.144C16.5064 16.4833 19.8825 16.6449 19.8825 17.8201C19.8825 18.3149 19.3154 18.7579 18.3468 18.7579C16.9723 18.7579 15.9449 18.139 15.9449 18.139L15.5053 20.1974C15.5053 20.1974 16.6888 20.7202 18.2601 20.7202C20.589 20.7202 22.4215 19.5619 22.4215 17.4872C22.4215 15.0152 19.0314 14.8585 19.0314 13.7677C19.0314 13.38 19.4969 12.9553 20.4627 12.9553C21.5524 12.9553 22.4415 13.4054 22.4415 13.4054L22.8717 11.4173C22.8717 11.4173 21.9043 11 20.5401 11V11ZM1.05158 11.15L1 11.4501C1 11.4501 1.89614 11.6141 2.70327 11.9413C3.7425 12.3165 3.81654 12.5349 3.99156 13.2132L5.8988 20.5655H8.45546L12.3942 11.15H9.84339L7.31252 17.5517L6.27977 12.1254C6.18506 11.5043 5.70532 11.15 5.11808 11.15H1.05158V11.15ZM13.4199 11.15L11.4189 20.5655H13.8513L15.8453 11.15H13.4199V11.15ZM26.9862 11.15C26.3997 11.15 26.0889 11.4641 25.8609 12.0128L22.2973 20.5655H24.8481L25.3416 19.14H28.4492L28.7493 20.5655H31L29.0365 11.15H26.9862V11.15ZM27.318 13.6938L28.0741 17.2269H26.0485L27.318 13.6938V13.6938Z" fill="#1434CB"/>
<g clip-path="url(#clip0_5169_5626)">
<g clip-path="url(#clip1_5169_5626)">
<path d="M46.4452 27.7909V26.2554C46.454 26.1263 46.4357 25.9967 46.3917 25.8754C46.3476 25.754 46.2788 25.6437 46.1898 25.5517C46.1007 25.4596 45.9935 25.3881 45.8753 25.3418C45.7571 25.2954 45.6306 25.2754 45.5043 25.283C45.3389 25.2719 45.1736 25.3064 45.0257 25.3829C44.8778 25.4594 44.7527 25.5752 44.6634 25.718C44.5821 25.5795 44.4657 25.4659 44.3265 25.3893C44.1873 25.3128 44.0305 25.276 43.8726 25.283C43.735 25.2759 43.5979 25.3056 43.475 25.3694C43.3521 25.4331 43.2476 25.5286 43.1719 25.6464V25.3444H42.6514V27.7909H43.1769V26.4448C43.1657 26.3611 43.1728 26.276 43.1975 26.1954C43.2222 26.1149 43.2641 26.0409 43.32 25.9788C43.376 25.9167 43.4447 25.868 43.5211 25.8362C43.5976 25.8044 43.68 25.7902 43.7625 25.7948C44.1079 25.7948 44.283 26.0251 44.283 26.4397V27.8011H44.8086V26.4448C44.7978 26.3612 44.8052 26.2762 44.8301 26.1959C44.855 26.1155 44.8969 26.0418 44.9527 25.9798C45.0086 25.9178 45.0771 25.8691 45.1533 25.8371C45.2296 25.8051 45.3118 25.7907 45.3942 25.7948C45.7495 25.7948 45.9197 26.0251 45.9197 26.4397V27.8011L46.4452 27.7909ZM54.2207 25.3444H53.3648V24.6022H52.8393V25.3444H52.3638V25.8306H52.8493V26.9566C52.8493 27.5247 53.0645 27.8625 53.6801 27.8625C53.9101 27.8633 54.1357 27.7977 54.3308 27.6732L54.1806 27.2176C54.041 27.3028 53.8826 27.3503 53.7202 27.3558C53.4699 27.3558 53.3748 27.192 53.3748 26.9464V25.8306H54.2257L54.2207 25.3444ZM58.6602 25.283C58.5333 25.2791 58.4077 25.3104 58.2967 25.3735C58.1857 25.4365 58.0934 25.529 58.0296 25.6412V25.3444H57.514V27.7909H58.0346V26.4192C58.0346 26.0149 58.2047 25.7897 58.5351 25.7897C58.6464 25.7881 58.757 25.809 58.8604 25.8511L59.0206 25.3393C58.9017 25.2958 58.7765 25.2733 58.6502 25.2727L58.6602 25.283ZM51.9484 25.5389C51.6537 25.3597 51.3149 25.2709 50.9724 25.283C50.3667 25.283 49.9713 25.5798 49.9713 26.066C49.9713 26.4653 50.2616 26.7109 50.7972 26.7877L51.0474 26.8235C51.3327 26.8645 51.4679 26.9413 51.4679 27.0794C51.4679 27.2688 51.2777 27.3763 50.9223 27.3763C50.6365 27.3848 50.3562 27.2946 50.1265 27.1204L49.8762 27.535C50.1795 27.7515 50.5426 27.8627 50.9123 27.8523C51.603 27.8523 52.0034 27.5196 52.0034 27.0539C52.0034 26.5881 51.6881 26.3987 51.1676 26.322L50.9173 26.2861C50.6921 26.2554 50.5119 26.2094 50.5119 26.0456C50.5119 25.8818 50.6821 25.759 50.9674 25.759C51.231 25.7621 51.4895 25.8343 51.7181 25.9688L51.9484 25.5389ZM65.8901 25.283C65.7632 25.2791 65.6376 25.3104 65.5266 25.3735C65.4156 25.4365 65.3233 25.529 65.2594 25.6412V25.3444H64.7439V27.7909H65.2644V26.4192C65.2644 26.0149 65.4346 25.7897 65.765 25.7897C65.8763 25.7881 65.9868 25.809 66.0903 25.8511L66.2505 25.3393C66.1316 25.2958 66.0063 25.2733 65.8801 25.2727L65.8901 25.283ZM59.1832 26.5625C59.177 26.7344 59.206 26.9058 59.2683 27.0656C59.3306 27.2254 59.4248 27.3702 59.545 27.4906C59.6651 27.6111 59.8085 27.7045 59.966 27.765C60.1235 27.8256 60.2916 27.8518 60.4595 27.8421C60.7721 27.8583 61.0792 27.7542 61.3204 27.5503L61.0702 27.1204C60.8902 27.2607 60.6708 27.3379 60.4445 27.3405C60.2521 27.3246 60.0726 27.2351 59.9417 27.09C59.8109 26.9449 59.7382 26.7548 59.7382 26.5574C59.7382 26.36 59.8109 26.1698 59.9417 26.0247C60.0726 25.8796 60.2521 25.7902 60.4445 25.7743C60.6708 25.7769 60.8902 25.8541 61.0702 25.9944L61.3204 25.5645C61.0792 25.3606 60.7721 25.2565 60.4595 25.2727C60.2916 25.263 60.1235 25.2892 59.966 25.3497C59.8085 25.4103 59.6651 25.5037 59.545 25.6242C59.4248 25.7446 59.3306 25.8894 59.2683 26.0492C59.206 26.209 59.177 26.3803 59.1832 26.5523V26.5625ZM64.0582 26.5625V25.3444H63.5377V25.6412C63.4493 25.5249 63.3351 25.4318 63.2046 25.3695C63.074 25.3072 62.9309 25.2775 62.7869 25.283C62.4551 25.283 62.1368 25.4178 61.9021 25.6577C61.6675 25.8977 61.5356 26.2232 61.5356 26.5625C61.5356 26.9019 61.6675 27.2273 61.9021 27.4673C62.1368 27.7072 62.4551 27.8421 62.7869 27.8421C62.9309 27.8475 63.074 27.8178 63.2046 27.7555C63.3351 27.6932 63.4493 27.6001 63.5377 27.4838V27.7806H64.0582V26.5625ZM62.1212 26.5625C62.1295 26.4185 62.1788 26.2801 62.2631 26.1644C62.3473 26.0487 62.4628 25.9607 62.5953 25.9112C62.7279 25.8618 62.8716 25.8531 63.0089 25.8861C63.1463 25.9192 63.2711 25.9926 63.3682 26.0973C63.4652 26.202 63.5302 26.3334 63.5551 26.4754C63.58 26.6174 63.5638 26.7638 63.5084 26.8964C63.453 27.0291 63.3609 27.1423 63.2433 27.2221C63.1258 27.3019 62.988 27.3448 62.847 27.3456C62.7479 27.3469 62.6496 27.3272 62.5583 27.2877C62.4671 27.2483 62.3847 27.19 62.3166 27.1164C62.2484 27.0429 62.1959 26.9557 62.1623 26.8604C62.1286 26.765 62.1147 26.6636 62.1212 26.5625ZM55.8398 25.283C55.508 25.2877 55.1915 25.4271 54.9602 25.6704C54.7288 25.9137 54.6014 26.2411 54.6061 26.5804C54.6107 26.9198 54.747 27.2433 54.9849 27.4799C55.2229 27.7166 55.543 27.8468 55.8749 27.8421C56.2349 27.861 56.589 27.7424 56.8684 27.5094L56.6181 27.1153C56.4205 27.2773 56.1757 27.3674 55.9224 27.3712C55.7503 27.3863 55.5793 27.3322 55.4456 27.2204C55.312 27.1086 55.2262 26.9478 55.2067 26.7724H56.9835C56.9835 26.7058 56.9835 26.6393 56.9835 26.5676C56.9835 25.7999 56.518 25.2881 55.8473 25.2881L55.8398 25.283ZM55.8398 25.759C55.9177 25.7573 55.9952 25.7713 56.0678 25.8002C56.1404 25.8291 56.2067 25.8724 56.2629 25.9275C56.3192 25.9826 56.3642 26.0486 56.3955 26.1215C56.4269 26.1945 56.4438 26.273 56.4454 26.3527H55.1942C55.2032 26.1884 55.2748 26.0343 55.3936 25.9233C55.5124 25.8123 55.669 25.7533 55.8298 25.759H55.8398ZM68.8806 26.5676V24.3617H68.3801V25.6412C68.2917 25.5249 68.1775 25.4318 68.047 25.3695C67.9165 25.3072 67.7733 25.2775 67.6294 25.283C67.2975 25.283 66.9792 25.4178 66.7446 25.6577C66.5099 25.8977 66.3781 26.2232 66.3781 26.5625C66.3781 26.9019 66.5099 27.2273 66.7446 27.4673C66.9792 27.7072 67.2975 27.8421 67.6294 27.8421C67.7733 27.8475 67.9165 27.8178 68.047 27.7555C68.1775 27.6932 68.2917 27.6001 68.3801 27.4838V27.7806H68.8806V26.5676ZM69.749 27.4352C69.7816 27.4348 69.8139 27.4408 69.8441 27.4531C69.8729 27.4651 69.8992 27.4824 69.9217 27.5043C69.9437 27.5263 69.9615 27.5523 69.9743 27.581C69.9869 27.6109 69.9935 27.6431 69.9935 27.6757C69.9935 27.7083 69.9869 27.7405 69.9743 27.7704C69.9615 27.7991 69.9437 27.8251 69.9217 27.8472C69.8992 27.869 69.8729 27.8864 69.8441 27.8984C69.8142 27.9119 69.7818 27.9188 69.749 27.9188C69.7016 27.9185 69.6552 27.9043 69.6153 27.878C69.5755 27.8518 69.5437 27.8144 69.5238 27.7704C69.5113 27.7405 69.5048 27.7083 69.5048 27.6757C69.5048 27.6432 69.5113 27.6109 69.5238 27.581C69.5365 27.5523 69.5544 27.5263 69.5763 27.5043C69.5989 27.4824 69.6252 27.4651 69.6539 27.4531C69.6865 27.4398 69.7215 27.4337 69.7565 27.4352H69.749ZM69.749 27.8676C69.774 27.8678 69.7987 27.8626 69.8216 27.8523C69.8431 27.8425 69.8627 27.8286 69.8792 27.8113C69.9105 27.7764 69.9278 27.7308 69.9278 27.6834C69.9278 27.636 69.9105 27.5904 69.8792 27.5554C69.8627 27.5382 69.8432 27.5243 69.8216 27.5145C69.7987 27.5043 69.774 27.4991 69.749 27.4991C69.7241 27.4993 69.6994 27.5045 69.6764 27.5145C69.654 27.5239 69.6335 27.5378 69.6164 27.5554C69.5851 27.5904 69.5677 27.636 69.5677 27.6834C69.5677 27.7308 69.5851 27.7764 69.6164 27.8113C69.6336 27.8289 69.654 27.8428 69.6764 27.8523C69.7017 27.8634 69.7291 27.8687 69.7565 27.8676H69.749ZM69.764 27.5631C69.7874 27.562 69.8104 27.5692 69.8291 27.5836C69.8368 27.5901 69.8428 27.5983 69.8467 27.6077C69.8506 27.617 69.8523 27.6272 69.8516 27.6373C69.852 27.6458 69.8506 27.6543 69.8476 27.6622C69.8446 27.6702 69.84 27.6774 69.8341 27.6834C69.8196 27.6969 69.8011 27.705 69.7816 27.7064L69.8541 27.7909H69.7966L69.729 27.7064H69.7065V27.7909H69.6589V27.5657L69.764 27.5631ZM69.709 27.6066V27.668H69.764C69.7738 27.671 69.7843 27.671 69.7941 27.668C69.7958 27.6645 69.7967 27.6605 69.7967 27.6565C69.7967 27.6525 69.7958 27.6486 69.7941 27.645C69.7958 27.6414 69.7967 27.6375 69.7967 27.6335C69.7967 27.6295 69.7958 27.6255 69.7941 27.622C69.7843 27.619 69.7738 27.619 69.764 27.622L69.709 27.6066ZM66.9562 26.5676C66.9645 26.4236 67.0138 26.2852 67.098 26.1695C67.1822 26.0538 67.2977 25.9658 67.4303 25.9164C67.5628 25.8669 67.7066 25.8582 67.8439 25.8912C67.9812 25.9243 68.1061 25.9977 68.2031 26.1024C68.3001 26.2071 68.3651 26.3386 68.39 26.4805C68.4149 26.6225 68.3987 26.7689 68.3433 26.9015C68.2879 27.0342 68.1958 27.1474 68.0783 27.2272C67.9608 27.307 67.823 27.35 67.6819 27.3507C67.5828 27.352 67.4846 27.3323 67.3933 27.2928C67.302 27.2534 67.2197 27.1951 67.1515 27.1215C67.0833 27.048 67.0308 26.9608 66.9972 26.8655C66.9636 26.7701 66.9496 26.6687 66.9562 26.5676ZM49.3807 26.5676V25.3444H48.8602V25.6412C48.7718 25.5249 48.6576 25.4318 48.5271 25.3695C48.3965 25.3072 48.2534 25.2775 48.1094 25.283C47.7776 25.283 47.4593 25.4178 47.2247 25.6577C46.99 25.8977 46.8582 26.2232 46.8582 26.5625C46.8582 26.9019 46.99 27.2273 47.2247 27.4673C47.4593 27.7072 47.7776 27.8421 48.1094 27.8421C48.2534 27.8475 48.3965 27.8178 48.5271 27.7555C48.6576 27.6932 48.7718 27.6001 48.8602 27.4838V27.7806H49.3807V26.5676ZM47.4438 26.5676C47.4521 26.4236 47.5014 26.2852 47.5856 26.1695C47.6698 26.0538 47.7853 25.9658 47.9179 25.9164C48.0504 25.8669 48.1942 25.8582 48.3315 25.8912C48.4688 25.9243 48.5937 25.9977 48.6907 26.1024C48.7877 26.2071 48.8527 26.3386 48.8776 26.4805C48.9025 26.6225 48.8863 26.7689 48.8309 26.9015C48.7755 27.0342 48.6834 27.1474 48.5659 27.2272C48.4483 27.307 48.3106 27.35 48.1695 27.3507C48.07 27.3527 47.9712 27.3335 47.8793 27.2944C47.7874 27.2553 47.7045 27.1971 47.6358 27.1234C47.5671 27.0498 47.5141 26.9624 47.4802 26.8667C47.4462 26.771 47.4321 26.6692 47.4388 26.5676H47.4438Z" fill="#231F20"/>
<path d="M60.2053 6.85657H52.3223V21.3436H60.2053V6.85657Z" fill="#FF5F00"/>
<path d="M52.8235 14.1021C52.8221 12.7067 53.1311 11.3292 53.7273 10.074C54.3235 8.81884 55.1911 7.71883 56.2645 6.85729C54.9355 5.78918 53.3393 5.12498 51.6586 4.94062C49.9778 4.75625 48.2802 5.05915 46.7599 5.81469C45.2395 6.57024 43.9576 7.74794 43.0609 9.21321C42.1641 10.6785 41.6885 12.3722 41.6885 14.1008C41.6885 15.8294 42.1641 17.5231 43.0609 18.9884C43.9576 20.4536 45.2395 21.6313 46.7599 22.3869C48.2802 23.1424 49.9778 23.4453 51.6586 23.2609C53.3393 23.0766 54.9355 22.4124 56.2645 21.3443C55.1914 20.483 54.324 19.3834 53.7278 18.1287C53.1317 16.874 52.8224 15.497 52.8235 14.1021Z" fill="#EB001B"/>
<path d="M70.5774 14.1011C70.5773 15.8298 70.1017 17.5236 69.2047 18.9889C68.3077 20.4542 67.0257 21.6319 65.5051 22.3874C63.9846 23.1428 62.2868 23.4455 60.606 23.2609C58.9251 23.0762 57.329 22.4117 56 21.3433C57.0727 20.4812 57.9399 19.3813 58.5362 18.1265C59.1325 16.8718 59.4423 15.4949 59.4423 14.0998C59.4423 12.7047 59.1325 11.3278 58.5362 10.073C57.9399 8.81823 57.0727 7.71832 56 6.85627C57.329 5.78783 58.9251 5.12332 60.606 4.93869C62.2868 4.75405 63.9846 5.05676 65.5051 5.81219C67.0257 6.56763 68.3077 7.74532 69.2047 9.21064C70.1017 10.676 70.5773 12.3698 70.5774 14.0985V14.1011Z" fill="#F79E1B"/>
<path d="M69.981 19.8086V19.5117H70.0986V19.4503H69.8008V19.5117H69.9284V19.8086H69.981ZM70.5591 19.8086V19.4503H70.469L70.3639 19.7062L70.2587 19.4503H70.1787V19.8086H70.2437V19.5399L70.3413 19.7728H70.4089L70.5065 19.5399V19.8111L70.5591 19.8086Z" fill="#F79E1B"/>
</g>
</g>
<path d="M106.084 7.99951H85.1888C85.1017 7.99951 85.0145 7.99951 84.9277 8.00001C84.8542 8.00052 84.781 8.00132 84.7077 8.00329C84.5479 8.00753 84.3868 8.01679 84.229 8.04463C84.0687 8.07295 83.9195 8.11916 83.774 8.19191C83.6309 8.26334 83.5 8.35678 83.3864 8.46827C83.2729 8.57976 83.1777 8.70815 83.105 8.84877C83.0309 8.99166 82.9838 9.13817 82.9551 9.29568C82.9266 9.45065 82.9171 9.60884 82.9128 9.76556C82.9109 9.83749 82.91 9.90942 82.9095 9.98134C82.909 10.0668 82.9092 10.1522 82.9092 10.2379V21.7613C82.9092 21.847 82.909 21.9322 82.9095 22.0179C82.91 22.0898 82.9109 22.1617 82.9128 22.2336C82.9171 22.3902 82.9266 22.5484 82.9551 22.7033C82.9838 22.8609 83.0309 23.0074 83.105 23.1503C83.1777 23.2909 83.2729 23.4194 83.3864 23.5308C83.5 23.6424 83.6309 23.7359 83.774 23.8071C83.9195 23.8801 84.0687 23.9263 84.229 23.9546C84.3868 23.9823 84.5479 23.9917 84.7077 23.9959C84.781 23.9975 84.8542 23.9985 84.9277 23.9988C85.0145 23.9995 85.1017 23.9995 85.1888 23.9995H106.084C106.171 23.9995 106.258 23.9995 106.345 23.9988C106.418 23.9985 106.492 23.9975 106.565 23.9959C106.725 23.9917 106.886 23.9823 107.044 23.9546C107.204 23.9263 107.353 23.8801 107.499 23.8071C107.642 23.7359 107.773 23.6424 107.886 23.5308C108 23.4194 108.095 23.2909 108.168 23.1503C108.242 23.0074 108.289 22.8609 108.318 22.7033C108.346 22.5484 108.355 22.3902 108.36 22.2336C108.362 22.1617 108.363 22.0898 108.363 22.0179C108.364 21.9322 108.364 21.847 108.364 21.7613V10.2379C108.364 10.1522 108.364 10.0668 108.363 9.98134C108.363 9.90942 108.362 9.83749 108.36 9.76556C108.355 9.60884 108.346 9.45065 108.318 9.29568C108.289 9.13817 108.242 8.99166 108.168 8.84877C108.095 8.70815 108 8.57976 107.886 8.46827C107.773 8.35678 107.642 8.26334 107.499 8.19191C107.353 8.11916 107.204 8.07295 107.044 8.04463C106.886 8.01679 106.725 8.00753 106.565 8.00329C106.492 8.00132 106.418 8.00052 106.345 8.00001C106.258 7.99951 106.171 7.99951 106.084 7.99951Z" fill="black"/>
<path d="M106.085 8.53271L106.342 8.5332C106.412 8.53368 106.481 8.53442 106.551 8.53629C106.673 8.53952 106.816 8.546 106.948 8.56938C107.064 8.58979 107.161 8.62083 107.254 8.66728C107.345 8.71305 107.429 8.77302 107.503 8.84497C107.576 8.9174 107.638 9.00005 107.685 9.09112C107.732 9.18164 107.763 9.27625 107.784 9.39043C107.808 9.51941 107.814 9.65968 107.818 9.78001C107.819 9.84792 107.82 9.91584 107.821 9.98537C107.821 10.0695 107.821 10.1535 107.821 10.2378V21.7612C107.821 21.8455 107.821 21.9294 107.821 22.0153C107.82 22.0832 107.819 22.1511 107.818 22.2191C107.814 22.3393 107.808 22.4794 107.784 22.61C107.763 22.7226 107.732 22.8172 107.685 22.9082C107.637 22.999 107.576 23.0816 107.503 23.1535C107.429 23.226 107.345 23.2858 107.253 23.332C107.16 23.3782 107.064 23.4092 106.949 23.4294C106.814 23.4531 106.665 23.4597 106.554 23.4626C106.483 23.4642 106.413 23.4651 106.342 23.4655C106.256 23.4661 106.17 23.4661 106.085 23.4661H85.1895C85.1884 23.4661 85.1873 23.4661 85.1861 23.4661C85.1016 23.4661 85.017 23.4661 84.9309 23.4654C84.8608 23.4651 84.7908 23.4642 84.7232 23.4627C84.6088 23.4597 84.4603 23.4532 84.3259 23.4296C84.2106 23.4092 84.1139 23.3782 84.0205 23.3314C83.9285 23.2856 83.8448 23.2259 83.771 23.1533C83.6977 23.0815 83.6369 22.9992 83.5898 22.9082C83.5427 22.8173 83.5111 22.7224 83.4904 22.6084C83.4664 22.4782 83.4599 22.3385 83.4566 22.2192C83.4547 22.1509 83.4539 22.0826 83.4535 22.0147L83.4531 21.8142L83.4531 21.7612V10.2378L83.4531 10.1848L83.4534 9.98474C83.4539 9.91642 83.4547 9.84811 83.4566 9.77984C83.4599 9.66039 83.4664 9.52069 83.4906 9.38936C83.5111 9.27643 83.5427 9.18152 83.59 9.09018C83.6367 8.9999 83.6977 8.91749 83.7714 8.8452C83.8447 8.77314 83.9287 8.71324 84.0212 8.66704C84.1137 8.62082 84.2105 8.58979 84.3258 8.56942C84.4586 8.54599 84.6012 8.53952 84.7233 8.53628C84.7929 8.53442 84.8625 8.53368 84.9316 8.53321L85.1895 8.53271H106.085Z" fill="white"/>
<path d="M89.8584 13.3805C90.0764 13.1129 90.2243 12.7535 90.1853 12.3862C89.8662 12.4018 89.4769 12.5929 89.2515 12.8608C89.0491 13.0902 88.87 13.4646 88.9167 13.8164C89.2748 13.8469 89.6326 13.6407 89.8584 13.3805Z" fill="black"/>
<path d="M90.1809 13.8855C89.6607 13.855 89.2185 14.1753 88.9701 14.1753C88.7216 14.1753 88.3413 13.9008 87.9299 13.9082C87.3944 13.9159 86.8976 14.2132 86.6259 14.6859C86.067 15.6317 86.4784 17.0346 87.0219 17.8048C87.2858 18.1859 87.6039 18.6055 88.023 18.5904C88.419 18.5752 88.5742 18.3387 89.0555 18.3387C89.5365 18.3387 89.6763 18.5904 90.0955 18.5828C90.5302 18.5752 90.8019 18.2016 91.0659 17.8201C91.3686 17.3857 91.4926 16.9662 91.5004 16.9432C91.4926 16.9356 90.6622 16.6228 90.6545 15.6849C90.6466 14.8996 91.3064 14.526 91.3375 14.5029C90.9649 13.9618 90.3827 13.9008 90.1809 13.8855Z" fill="black"/>
<path d="M94.7097 12.8221C95.8401 12.8221 96.6273 13.5872 96.6273 14.7012C96.6273 15.8191 95.824 16.5881 94.6813 16.5881H93.4297V18.5425H92.5254V12.8221H94.7097V12.8221ZM93.4297 15.8428H94.4673C95.2547 15.8428 95.7028 15.4266 95.7028 14.7051C95.7028 13.9837 95.2547 13.5714 94.4714 13.5714H93.4297V15.8428Z" fill="black"/>
<path d="M96.8633 17.3576C96.8633 16.6282 97.4326 16.1802 98.442 16.1247L99.6047 16.0574V15.7363C99.6047 15.2725 99.2857 14.995 98.7529 14.995C98.2481 14.995 97.9332 15.2328 97.8565 15.6055H97.0329C97.0813 14.8522 97.7353 14.2972 98.7851 14.2972C99.8147 14.2972 100.473 14.8324 100.473 15.6688V18.5429H99.6369V17.8571H99.6169C99.3706 18.3209 98.8336 18.6142 98.2764 18.6142C97.4447 18.6142 96.8633 18.1068 96.8633 17.3576ZM99.6047 16.981V16.652L98.559 16.7154C98.0381 16.7511 97.7434 16.9771 97.7434 17.3338C97.7434 17.6985 98.0503 17.9364 98.5186 17.9364C99.1283 17.9364 99.6047 17.5241 99.6047 16.981Z" fill="black"/>
<path d="M101.263 20.0768V19.383C101.327 19.3989 101.472 19.3989 101.545 19.3989C101.949 19.3989 102.167 19.2324 102.3 18.8043C102.3 18.7963 102.377 18.5506 102.377 18.5466L100.843 14.3723H101.787L102.862 17.7657H102.878L103.952 14.3723H104.872L103.281 18.7606C102.918 19.7716 102.498 20.0966 101.618 20.0966C101.545 20.0966 101.327 20.0887 101.263 20.0768Z" fill="black"/>
<path d="M148.647 11.9551C148.658 12.0857 148.673 12.1961 148.674 12.3067C148.677 12.7272 148.679 13.1479 148.672 13.5684C148.671 13.6719 148.708 13.71 148.803 13.7163C148.969 13.7274 149.134 13.7492 149.3 13.7524C149.66 13.7594 149.895 13.5876 149.992 13.2427C150.08 12.9279 150.078 12.6081 149.995 12.2924C149.945 12.1036 149.842 11.9394 149.649 11.8769C149.301 11.7642 148.963 11.8289 148.647 11.9551ZM151.001 13.0939C150.98 13.1779 150.961 13.2621 150.94 13.3458C150.738 14.1305 150.094 14.6048 149.25 14.5833C148.928 14.5751 148.614 14.5271 148.305 14.4258C148.201 14.3916 148.07 14.4375 147.951 14.4478C147.794 14.4614 147.637 14.4881 147.48 14.4884C146.004 14.4916 144.529 14.4903 143.053 14.4903H142.892C142.928 14.2466 142.963 14.0173 142.997 13.7956H144.85C144.839 13.8095 144.848 13.8036 144.848 13.7977C144.84 13.3442 144.835 12.8905 144.82 12.4372C144.817 12.3528 144.781 12.2669 144.748 12.1867C144.629 11.8984 144.412 11.7506 144.098 11.7494C143.853 11.7485 143.607 11.7491 143.361 11.7491C143.316 11.7491 143.272 11.7491 143.213 11.7491C143.246 11.5206 143.274 11.3109 143.308 11.1024C143.313 11.0772 143.355 11.0391 143.38 11.0395C143.796 11.0473 144.217 11.0229 144.627 11.0808C145.24 11.1675 145.683 11.6579 145.79 12.3115C145.829 12.5525 145.832 12.8004 145.841 13.0456C145.849 13.2823 145.842 13.5194 145.842 13.7655C145.887 13.7688 145.923 13.7738 145.959 13.7739C146.492 13.7744 147.026 13.7709 147.559 13.7769C147.669 13.7782 147.711 13.7301 147.722 13.6365C147.73 13.5705 147.731 13.5034 147.731 13.4368C147.732 12.9908 147.731 12.5447 147.732 12.0986C147.733 11.5794 147.945 11.279 148.441 11.1243C148.638 11.0629 148.846 11.0352 149.049 10.9922H149.474C149.506 11.0005 149.537 11.0124 149.57 11.0167C150.249 11.1077 150.745 11.5411 150.926 12.205C150.954 12.3085 150.976 12.4139 151.001 12.5184V13.0939Z" fill="#231F20"/>
<path d="M142.541 11.0524C142.505 11.2865 142.471 11.5125 142.434 11.7548H142.284C141.659 11.7548 141.033 11.7543 140.408 11.7553C140.32 11.7554 140.232 11.7566 140.146 11.7674C139.89 11.7992 139.754 11.9588 139.766 12.2066C139.778 12.4518 139.931 12.6144 140.178 12.6213C140.495 12.63 140.812 12.6208 141.128 12.6277C141.269 12.6307 141.412 12.6413 141.55 12.6707C142.074 12.7831 142.407 13.2025 142.399 13.7395C142.397 13.8759 142.383 14.0154 142.35 14.1475C142.244 14.5768 141.93 14.7837 141.523 14.8637C141.316 14.9044 141.102 14.9246 140.89 14.925C139.502 14.9279 138.113 14.9309 136.725 14.9175C135.859 14.9091 135.286 14.3466 135.237 13.4837C135.213 13.0593 135.193 12.6333 135.311 12.2168C135.507 11.5282 136.045 11.1088 136.762 11.0961C137.199 11.0883 137.636 11.0947 138.083 11.0947C138.048 11.3343 138.014 11.5638 137.978 11.8093C137.81 11.8093 137.644 11.809 137.479 11.8094C137.316 11.8098 137.153 11.8065 136.991 11.813C136.697 11.825 136.478 11.9662 136.366 12.2362C136.304 12.3873 136.262 12.5564 136.256 12.7188C136.247 13.0214 136.243 13.3293 136.288 13.6271C136.341 13.9714 136.577 14.1757 136.923 14.1966C137.33 14.2211 137.739 14.2145 138.148 14.216C139.044 14.2192 139.941 14.2192 140.837 14.2195C140.904 14.2195 140.971 14.218 141.036 14.2059C141.307 14.1552 141.463 13.9551 141.44 13.6915C141.418 13.4303 141.231 13.2616 140.952 13.2567C140.561 13.2499 140.168 13.2588 139.777 13.2385C139.313 13.2145 138.977 12.9534 138.856 12.556C138.716 12.0957 138.844 11.6109 139.179 11.35C139.446 11.1418 139.763 11.0555 140.091 11.0496C140.891 11.0351 141.692 11.0418 142.492 11.0404C142.504 11.0404 142.516 11.046 142.541 11.0524Z" fill="#231F20"/>
<path d="M149.685 19.4745C149.684 19.4694 149.683 19.4643 149.682 19.4592C149.502 19.4844 149.317 19.4913 149.144 19.5398C148.965 19.59 148.881 19.7588 148.897 19.9546C148.911 20.1223 149.011 20.2582 149.192 20.275C149.378 20.2923 149.573 20.277 149.757 20.244C150.067 20.1888 150.067 20.1782 150.064 19.8606C150.063 19.7378 150.095 19.5754 150.031 19.5042C149.974 19.4414 149.805 19.4804 149.685 19.4745ZM151 21C150.689 20.9437 150.379 20.8821 150.066 20.8344C149.979 20.8212 149.885 20.8429 149.796 20.8593C149.417 20.9294 149.038 20.9746 148.657 20.8739C148.205 20.7545 147.948 20.4362 147.932 19.9754C147.916 19.4976 148.137 19.1554 148.599 19.0264C148.872 18.9501 149.162 18.9305 149.447 18.9041C149.64 18.8862 149.837 18.9007 150.03 18.9007C150.123 18.5041 149.941 18.2567 149.547 18.2497C149.113 18.2421 148.696 18.3399 148.288 18.4803C148.249 18.4936 148.21 18.5048 148.159 18.5206C148.124 18.2833 148.09 18.0548 148.055 17.8174C148.729 17.6012 149.399 17.4067 150.113 17.5492C150.635 17.6533 150.911 17.9534 150.978 18.4768C150.982 18.5093 150.992 18.5409 151 18.573V21Z" fill="#231F20"/>
<path d="M140.055 20.891H139.074V20.7373C139.074 20.1118 139.074 19.4864 139.074 18.8609C139.074 18.7942 139.073 18.7271 139.066 18.661C139.043 18.4718 138.92 18.3432 138.736 18.3232C138.511 18.2989 138.296 18.3371 138.119 18.4291C138.125 18.7045 138.135 18.9643 138.136 19.2242C138.139 19.7329 138.137 20.2417 138.137 20.7504V20.8911H137.158V20.7472C137.158 20.1217 137.152 19.4962 137.16 18.8707C137.166 18.3838 136.948 18.2572 136.492 18.3373C136.218 18.3853 136.22 18.3924 136.22 18.6659C136.22 19.354 136.22 20.042 136.22 20.73V20.8867H135.224V20.736C135.224 19.927 135.223 19.118 135.224 18.3091C135.224 17.8989 135.328 17.7603 135.726 17.6515C136.217 17.517 136.715 17.4512 137.221 17.5521C137.357 17.5792 137.49 17.6381 137.615 17.7011C137.682 17.7346 137.729 17.7417 137.797 17.713C138.279 17.5101 138.777 17.4478 139.288 17.5728C139.737 17.6825 140.019 17.9983 140.035 18.4591C140.058 19.1005 140.05 19.7429 140.055 20.3849C140.056 20.5509 140.055 20.7168 140.055 20.891Z" fill="#231F20"/>
<path d="M146.388 19.2484V18.7613C146.388 18.3147 146.388 18.3147 145.936 18.2747C145.587 18.2437 145.333 18.4129 145.244 18.7506C145.162 19.0618 145.163 19.3778 145.246 19.6888C145.339 20.0344 145.576 20.2088 145.933 20.2022C146.041 20.2002 146.148 20.1764 146.255 20.1682C146.357 20.1604 146.394 20.1182 146.39 20.0103C146.381 19.7566 146.388 19.5024 146.388 19.2484ZM146.388 17.6494C146.388 17.5917 146.388 17.5476 146.388 17.5034C146.388 17.095 146.389 16.6865 146.387 16.278C146.386 16.2127 146.395 16.1676 146.472 16.1553C146.768 16.1079 147.063 16.0563 147.377 16.0033V16.144C147.377 17.486 147.377 18.8281 147.377 20.1702C147.376 20.5546 147.292 20.672 146.926 20.7845C146.449 20.9312 145.96 20.967 145.468 20.8937C144.756 20.7877 144.28 20.252 144.224 19.5046C144.199 19.1837 144.209 18.8642 144.293 18.5494C144.46 17.9177 144.91 17.5428 145.562 17.5296C145.783 17.5251 146.006 17.5781 146.227 17.6076C146.275 17.6139 146.322 17.6318 146.388 17.6494Z" fill="#231F20"/>
<path d="M142.736 19.4997C142.45 19.4997 142.187 19.4826 141.928 19.5047C141.691 19.525 141.556 19.7098 141.567 19.9368C141.578 20.1472 141.73 20.3062 141.969 20.2947C142.207 20.2831 142.443 20.2231 142.68 20.1794C142.702 20.1753 142.733 20.136 142.734 20.1125C142.738 19.909 142.736 19.7054 142.736 19.4997ZM142.716 18.9022C142.748 18.4016 142.594 18.2368 142.116 18.2501C141.722 18.2612 141.341 18.35 140.969 18.4785C140.93 18.4919 140.891 18.5035 140.833 18.5218C140.802 18.2981 140.769 18.0817 140.742 17.8645C140.74 17.8442 140.771 17.8056 140.794 17.7983C141.331 17.626 141.872 17.4749 142.445 17.5045C142.532 17.509 142.62 17.5179 142.706 17.5328C143.35 17.6444 143.656 17.9981 143.661 18.6568C143.667 19.4073 143.662 20.158 143.662 20.9086C143.662 20.9333 143.66 20.958 143.658 20.9968C143.548 20.9781 143.442 20.9673 143.339 20.9413C142.939 20.8395 142.542 20.8191 142.132 20.9069C141.838 20.9698 141.534 20.9485 141.243 20.8481C140.837 20.708 140.618 20.406 140.605 19.9726C140.592 19.5306 140.784 19.2199 141.18 19.0532C141.449 18.9396 141.735 18.9103 142.024 18.9033C142.252 18.8978 142.48 18.9022 142.716 18.9022Z" fill="#231F20"/>
<path d="M121 10.9917H133.686V15.1952H121V10.9917Z" fill="#289BD7"/>
<path d="M121 16.7217H133.686V20.9252H121V16.7217Z" fill="#86B840"/>
<path d="M187.134 22.3734H164.866C162.72 22.3734 161 20.6348 161 18.5078V13.8654C161 11.7199 162.739 9.9998 164.866 9.9998H187.134C189.28 9.9998 191 11.7384 191 13.8654V18.5078C191 20.6348 189.28 22.3734 187.134 22.3734Z" fill="#5AFEAE"/>
<path d="M185.599 13.9768L184.064 19.8399V19.8584H185.267L186.802 13.9953H185.599V13.9768ZM166.623 17.306C166.438 17.3985 166.253 17.4355 166.05 17.4355C165.624 17.4355 165.384 17.3615 165.347 17.0101V16.9916C165.347 16.9731 165.347 16.9731 165.347 16.9546V15.9373V15.8263V15.105V14.8091V14.6981V14.0138L164.274 14.1432C164.995 13.9953 165.402 13.4404 165.402 12.867V12.5156H164.2V14.1617L164.126 14.1802V17.2135C164.163 18.0643 164.736 18.5822 165.643 18.5822C165.976 18.5822 166.327 18.5082 166.604 18.3787L166.623 17.306Z" fill="#292929"/>
<path d="M166.808 13.755L163.441 14.2728V15.1236L166.808 14.6058V13.755ZM166.808 15.0127L163.441 15.5306V16.3444L166.808 15.8265V15.0127ZM170.581 15.4011C170.525 14.4578 169.933 13.8844 168.972 13.8844C168.417 13.8844 167.954 14.1064 167.64 14.5133C167.325 14.9202 167.159 15.5121 167.159 16.2334C167.159 16.9547 167.325 17.5466 167.64 17.9535C167.954 18.3604 168.417 18.5638 168.972 18.5638C169.933 18.5638 170.525 18.009 170.581 17.0472V18.4714H171.783V13.9954L170.581 14.1804V15.4011ZM170.655 16.2334C170.655 17.0657 170.211 17.6206 169.526 17.6206C168.824 17.6206 168.398 17.1027 168.398 16.2334C168.398 15.3641 168.824 14.8462 169.526 14.8462C169.859 14.8462 170.155 14.9757 170.359 15.2346C170.544 15.4751 170.655 15.8265 170.655 16.2334ZM175.279 13.8844C174.317 13.8844 173.725 14.4393 173.67 15.4011V12.6822L172.467 12.8672V18.4714H173.67V17.0472C173.725 18.009 174.317 18.5638 175.279 18.5638C176.407 18.5638 177.091 17.6945 177.091 16.2334C177.091 14.7722 176.407 13.8844 175.279 13.8844ZM174.742 17.6206C174.058 17.6206 173.614 17.0842 173.614 16.2334C173.614 15.8265 173.725 15.4751 173.91 15.2346C174.113 14.9757 174.391 14.8462 174.742 14.8462C175.445 14.8462 175.871 15.3641 175.871 16.2334C175.871 17.1027 175.445 17.6206 174.742 17.6206ZM180.346 13.8844C179.385 13.8844 178.793 14.4393 178.737 15.4011V12.6822L177.535 12.8672V18.4714H178.737V17.0472C178.793 18.009 179.385 18.5638 180.346 18.5638C181.475 18.5638 182.159 17.6945 182.159 16.2334C182.159 14.7722 181.475 13.8844 180.346 13.8844ZM179.81 17.6206C179.126 17.6206 178.682 17.0842 178.682 16.2334C178.682 15.8265 178.793 15.4751 178.978 15.2346C179.181 14.9757 179.459 14.8462 179.81 14.8462C180.513 14.8462 180.938 15.3641 180.938 16.2334C180.938 17.1027 180.513 17.6206 179.81 17.6206ZM182.159 13.9769H183.435L184.471 18.4714H183.324L182.159 13.9769ZM187.782 14.4393V14.0879H187.634V14.0139H188.022V14.0879H187.874V14.4393H187.782ZM188.041 14.4393V13.9954H188.189L188.263 14.1989C188.281 14.2543 188.3 14.2728 188.3 14.2913C188.3 14.2728 188.318 14.2543 188.337 14.1989L188.411 13.9954H188.559V14.4393H188.466V14.0879L188.337 14.4393H188.244L188.133 14.0879V14.4393H188.041Z" fill="#292929"/>
<path d="M221.544 18.2118C221.447 18.0425 221.316 17.8942 221.159 17.7757C221.003 17.6572 220.824 17.5708 220.634 17.5216C220.443 17.4723 220.244 17.4613 220.05 17.4891C219.855 17.5168 219.667 17.5829 219.498 17.6833L216.296 19.5318C216.212 19.1995 216.017 18.9051 215.742 18.6971C215.467 18.4891 215.129 18.3798 214.783 18.3872H210.958L210.869 18.2995C209.978 17.6973 208.924 17.3752 207.845 17.3752C206.766 17.3752 205.712 17.6973 204.82 18.2995V17.8595C204.811 17.7224 204.752 17.5932 204.654 17.4961C204.556 17.3989 204.425 17.3403 204.286 17.3311H201.262C201.123 17.3403 200.993 17.3989 200.895 17.4961C200.797 17.5932 200.737 17.7224 200.728 17.8595V23.8455C200.725 23.9157 200.737 23.9858 200.763 24.0512C200.788 24.1167 200.828 24.1761 200.878 24.2258C200.928 24.2755 200.988 24.3143 201.054 24.3398C201.12 24.3653 201.191 24.3769 201.262 24.374H204.286C204.425 24.3648 204.556 24.3061 204.654 24.2089C204.752 24.1118 204.811 23.9826 204.82 23.8455V23.7578L205.265 24.1087C205.499 24.2741 205.778 24.366 206.066 24.3726H213.539C213.785 24.3662 214.027 24.3061 214.248 24.1964L221.009 20.3227C221.354 20.1045 221.601 19.7641 221.7 19.3712C221.8 18.9783 221.743 18.5627 221.543 18.2097L221.544 18.2118ZM203.752 23.2301H201.706V18.2118H203.752V23.2301ZM220.476 19.3563L213.715 23.2301C213.68 23.2634 213.638 23.2886 213.592 23.3037C213.546 23.3189 213.497 23.3237 213.449 23.3178H206.065C206.017 23.3237 205.968 23.3189 205.922 23.3037C205.876 23.2886 205.833 23.2634 205.798 23.2301L204.731 22.5283V19.3563C204.779 19.3623 204.828 19.3575 204.874 19.3423C204.921 19.3271 204.963 19.3019 204.998 19.2686L205.264 19.0925C206.007 18.6184 206.872 18.3662 207.755 18.3662C208.639 18.3662 209.504 18.6184 210.246 19.0925L210.424 19.2686C210.459 19.3019 210.501 19.3271 210.547 19.3423C210.594 19.3575 210.643 19.3623 210.691 19.3563H214.697C214.826 19.3477 214.952 19.3891 215.05 19.4716C215.147 19.5541 215.209 19.6711 215.22 19.7977C215.232 19.9242 215.193 20.0503 215.112 20.1488C215.031 20.2473 214.914 20.3105 214.786 20.3248H211.577C211.439 20.334 211.308 20.3926 211.21 20.4898C211.112 20.587 211.053 20.7161 211.043 20.8532C211.04 20.9234 211.052 20.9934 211.078 21.0589C211.104 21.1244 211.143 21.1838 211.193 21.2335C211.243 21.2832 211.303 21.322 211.369 21.3475C211.436 21.373 211.506 21.3846 211.577 21.3816H214.602C214.955 21.3589 215.294 21.2372 215.58 21.0308L219.764 18.6539C219.868 18.5843 219.994 18.5533 220.119 18.5662C220.188 18.5702 220.254 18.5993 220.303 18.6479C220.352 18.6965 220.381 18.7613 220.385 18.83C220.419 18.8647 220.445 18.9064 220.46 18.952C220.475 18.9977 220.48 19.0461 220.474 19.0939C220.741 19.0939 220.652 19.27 220.474 19.3577L220.476 19.3563Z" fill="#195190"/>
<path d="M221.545 8.44057H205.977C205.906 8.4376 205.835 8.44923 205.769 8.47473C205.703 8.50023 205.643 8.53905 205.593 8.58872C205.542 8.6384 205.503 8.69785 205.477 8.76331C205.452 8.82877 205.44 8.89881 205.443 8.969V16.0996C205.452 16.2367 205.511 16.3659 205.61 16.463C205.708 16.5602 205.838 16.6188 205.977 16.6281H221.545C221.683 16.6188 221.814 16.5602 221.912 16.463C222.01 16.3659 222.069 16.2367 222.079 16.0996V8.88058C222.066 8.75268 222.002 8.63496 221.902 8.5527C221.803 8.47044 221.674 8.43018 221.545 8.44057Z" fill="#195190"/>
<path d="M213.627 16.0988C215.592 16.0988 217.185 14.5222 217.185 12.5774C217.185 10.6325 215.592 9.05591 213.627 9.05591C211.662 9.05591 210.068 10.6325 210.068 12.5774C210.068 14.5222 211.662 16.0988 213.627 16.0988Z" fill="white"/>
<path d="M213.626 11.2572C213.686 11.2538 213.745 11.2628 213.801 11.2837C213.856 11.3045 213.907 11.3368 213.949 11.3784C213.991 11.42 214.023 11.4699 214.044 11.5248C214.065 11.5798 214.075 11.6386 214.071 11.6972V11.785H214.96C214.957 11.5142 214.87 11.251 214.711 11.0306C214.552 10.8103 214.329 10.6435 214.071 10.5527V9.93652H213.182V10.465C212.857 10.5893 212.593 10.8321 212.444 11.1434C212.295 11.4547 212.273 11.8107 212.381 12.138C212.458 12.3783 212.613 12.5865 212.822 12.7299C213.032 12.8733 213.283 12.9438 213.538 12.9302C213.597 12.9268 213.656 12.9358 213.712 12.9567C213.767 12.9775 213.818 13.0098 213.86 13.0514C213.902 13.093 213.935 13.1429 213.956 13.1978C213.977 13.2528 213.986 13.3116 213.982 13.3703C213.982 13.487 213.935 13.5991 213.852 13.6816C213.769 13.7642 213.655 13.8106 213.537 13.8106C213.419 13.8106 213.306 13.7642 213.223 13.6816C213.139 13.5991 213.092 13.487 213.092 13.3703H212.203C212.206 13.641 212.293 13.9043 212.452 14.1246C212.611 14.3449 212.835 14.5117 213.092 14.6026V15.1296H213.982V14.6012C214.307 14.4768 214.571 14.234 214.72 13.9227C214.869 13.6114 214.891 13.2554 214.783 12.9281C214.706 12.6878 214.551 12.4796 214.342 12.3362C214.132 12.1928 213.881 12.1223 213.626 12.1359C213.567 12.1393 213.508 12.1303 213.452 12.1094C213.397 12.0886 213.346 12.0563 213.304 12.0147C213.262 11.9731 213.23 11.9232 213.208 11.8683C213.187 11.8133 213.178 11.7545 213.182 11.6958C213.182 11.432 213.36 11.1674 213.626 11.2558V11.2572Z" fill="#195190"/>
<path d="M226.525 24.7261C226.466 24.7295 226.407 24.7205 226.351 24.6996C226.296 24.6788 226.245 24.6465 226.203 24.6049C226.161 24.5633 226.129 24.5134 226.108 24.4585C226.086 24.4035 226.077 24.3447 226.081 24.2861V8.43952C226.081 8.32282 226.128 8.2109 226.211 8.12839C226.294 8.04587 226.408 7.99951 226.525 7.99951C226.643 7.99951 226.756 8.04587 226.84 8.12839C226.923 8.2109 226.97 8.32282 226.97 8.43952V24.2861C226.963 24.4003 226.913 24.508 226.832 24.5889C226.75 24.6699 226.641 24.7186 226.525 24.7261Z" fill="#195190"/>
<path d="M230.529 11.3445C230.548 10.827 230.731 10.3284 231.052 9.91945C231.373 9.51046 231.816 9.21177 232.318 9.06568C232.82 8.91959 233.355 8.93351 233.849 9.10546C234.343 9.27741 234.769 9.59868 235.068 10.0238C235.14 10.1589 235.17 10.3117 235.156 10.4638C235.156 10.6399 234.978 10.9038 234.802 10.9038C234.625 10.9038 234.535 10.8161 234.357 10.5529C234.233 10.3159 234.039 10.122 233.8 9.99666C233.562 9.87135 233.291 9.8206 233.023 9.85113C232.812 9.85029 232.604 9.89071 232.409 9.97005C232.214 10.0494 232.037 10.1661 231.889 10.3134C231.74 10.4607 231.622 10.6357 231.542 10.8283C231.461 11.021 231.421 11.2274 231.421 11.4357V13.1964C231.413 13.4068 231.449 13.6165 231.526 13.8125C231.604 14.0085 231.721 14.1865 231.872 14.3354C232.022 14.4842 232.202 14.6006 232.4 14.6773C232.598 14.754 232.81 14.7893 233.023 14.781C233.311 14.7961 233.599 14.7296 233.851 14.5893C234.103 14.4491 234.309 14.2408 234.446 13.9887C234.535 13.8126 234.624 13.6378 234.891 13.6378C234.95 13.6344 235.009 13.6434 235.065 13.6643C235.12 13.6851 235.171 13.7174 235.213 13.759C235.255 13.8006 235.287 13.8505 235.308 13.9054C235.33 13.9604 235.339 14.0192 235.335 14.0779C235.317 14.265 235.256 14.4456 235.157 14.6063C234.924 14.9451 234.602 15.2144 234.226 15.3852C233.85 15.5559 233.433 15.6214 233.022 15.5747C232.698 15.5925 232.373 15.5439 232.069 15.432C231.764 15.32 231.486 15.147 231.252 14.9239C231.019 14.7009 230.834 14.4324 230.71 14.1354C230.585 13.8384 230.525 13.5192 230.531 13.1978V11.3445H230.529Z" fill="#195190"/>
<path d="M239.96 13.7219H237.202L236.757 14.9542C236.669 15.2181 236.579 15.3051 236.313 15.3051C236.207 15.3156 236.101 15.2848 236.018 15.2192C235.935 15.1537 235.881 15.0586 235.868 14.9542C235.874 14.8326 235.904 14.7133 235.957 14.6033L237.914 9.4973C238.092 9.14642 238.269 8.96887 238.623 8.96887C238.978 8.96887 239.157 9.14501 239.332 9.4973L241.29 14.6033C241.342 14.7133 241.373 14.8326 241.378 14.9542C241.365 15.0586 241.311 15.1537 241.228 15.2192C241.145 15.2848 241.039 15.3156 240.934 15.3051C240.83 15.3055 240.73 15.2709 240.649 15.2071C240.568 15.1433 240.512 15.0541 240.489 14.9542L239.96 13.7219ZM237.469 12.9296H239.604L238.537 10.2005H238.448L237.469 12.9296Z" fill="#195190"/>
<path d="M242.895 10.7288C242.895 12.0495 246.542 11.4306 246.542 13.5457C246.542 14.5141 245.653 15.3941 244.14 15.3941C243.732 15.4159 243.324 15.3392 242.952 15.1705C242.58 15.0018 242.255 14.7462 242.005 14.4257C241.906 14.265 241.846 14.0844 241.827 13.8973C241.835 13.783 241.884 13.6754 241.966 13.5944C242.048 13.5134 242.156 13.4647 242.272 13.4573C242.538 13.4573 242.626 13.6334 242.716 13.8082C242.839 14.0719 243.042 14.2906 243.298 14.4329C243.554 14.5753 243.848 14.6339 244.14 14.6004C245.118 14.6004 245.652 14.072 245.652 13.5443C245.652 12.2236 242.005 12.8425 242.005 10.7274C242.005 9.75897 242.806 8.96668 244.14 8.96668C244.544 8.95368 244.945 9.04406 245.303 9.22907C245.662 9.41409 245.966 9.68749 246.186 10.0228C246.275 10.199 246.364 10.2867 246.364 10.4628C246.357 10.5771 246.308 10.6848 246.226 10.7657C246.144 10.8467 246.035 10.8954 245.92 10.9029C245.653 10.9029 245.653 10.8151 245.475 10.552C245.351 10.315 245.156 10.121 244.918 9.99573C244.68 9.87042 244.408 9.81967 244.14 9.8502C243.34 9.76038 242.895 10.2004 242.895 10.7288Z" fill="#195190"/>
<path d="M252.502 14.9542C252.479 15.0539 252.423 15.143 252.342 15.2068C252.261 15.2706 252.161 15.3054 252.058 15.3054C251.954 15.3054 251.854 15.2706 251.773 15.2068C251.692 15.143 251.636 15.0539 251.613 14.9542V12.5773H248.588V14.9542C248.566 15.0539 248.509 15.143 248.428 15.2068C248.348 15.2706 248.247 15.3054 248.144 15.3054C248.04 15.3054 247.94 15.2706 247.859 15.2068C247.779 15.143 247.722 15.0539 247.699 14.9542V9.40674C247.722 9.307 247.779 9.21792 247.859 9.15411C247.94 9.0903 248.04 9.05554 248.144 9.05554C248.247 9.05554 248.348 9.0903 248.428 9.15411C248.509 9.21792 248.566 9.307 248.588 9.40674V11.6959H251.613V9.40674C251.636 9.307 251.692 9.21792 251.773 9.15411C251.854 9.0903 251.954 9.05554 252.058 9.05554C252.161 9.05554 252.261 9.0903 252.342 9.15411C252.423 9.21792 252.479 9.307 252.502 9.40674V14.9542Z" fill="#195190"/>
<path d="M261.22 13.1087C261.226 13.4301 261.165 13.7493 261.041 14.0463C260.917 14.3433 260.732 14.6117 260.498 14.8348C260.264 15.0579 259.987 15.2309 259.682 15.3428C259.378 15.4548 259.053 15.5034 258.729 15.4856C258.403 15.5108 258.075 15.4673 257.767 15.3579C257.46 15.2486 257.179 15.0759 256.944 14.8513C256.708 14.6267 256.524 14.3552 256.402 14.0549C256.281 13.7545 256.225 13.432 256.238 13.1087V11.3452C256.232 11.0238 256.293 10.7046 256.417 10.4076C256.541 10.1106 256.726 9.84217 256.96 9.61907C257.194 9.39597 257.472 9.22303 257.776 9.11105C258.081 8.99907 258.405 8.95048 258.73 8.9683C259.056 8.94301 259.383 8.98644 259.691 9.09573C259.999 9.20502 260.28 9.37767 260.515 9.6023C260.751 9.82693 260.935 10.0984 261.057 10.3989C261.179 10.6993 261.234 11.0218 261.221 11.3452L261.22 13.1087ZM260.331 11.348C260.332 11.1397 260.291 10.9332 260.211 10.7406C260.13 10.548 260.013 10.373 259.864 10.2257C259.715 10.0783 259.538 9.96166 259.343 9.88232C259.149 9.80298 258.94 9.76257 258.73 9.7634C258.517 9.7551 258.305 9.79042 258.107 9.86711C257.909 9.94381 257.729 10.0602 257.579 10.2091C257.428 10.3579 257.311 10.5359 257.233 10.7319C257.156 10.9279 257.12 11.1377 257.128 11.348V13.1087C257.127 13.317 257.168 13.5235 257.248 13.7161C257.329 13.9087 257.447 14.0837 257.595 14.231C257.744 14.3784 257.921 14.495 258.116 14.5744C258.31 14.6537 258.519 14.6941 258.73 14.6933C258.942 14.7016 259.154 14.6663 259.352 14.5896C259.55 14.5129 259.73 14.3965 259.88 14.2476C260.031 14.0988 260.149 13.9208 260.226 13.7248C260.304 13.5288 260.339 13.319 260.331 13.1087V11.348Z" fill="#195190"/>
<path d="M263.444 10.6407V14.9544C263.421 15.0541 263.365 15.1432 263.284 15.207C263.203 15.2708 263.103 15.3056 262.999 15.3056C262.896 15.3056 262.796 15.2708 262.715 15.207C262.634 15.1432 262.578 15.0541 262.555 14.9544V9.49608C262.555 9.23222 262.733 9.05607 263.089 9.05607C263.202 9.05869 263.312 9.09304 263.407 9.15513C263.501 9.21723 263.576 9.30454 263.623 9.40695L266.469 13.7207V9.40695C266.492 9.30686 266.548 9.21738 266.629 9.15326C266.71 9.08914 266.811 9.0542 266.914 9.0542C267.018 9.0542 267.118 9.08914 267.199 9.15326C267.28 9.21738 267.337 9.30686 267.359 9.40695V14.8667C267.359 15.1305 267.181 15.3067 266.825 15.3067C266.703 15.2935 266.584 15.2555 266.477 15.1952C266.37 15.1348 266.277 15.0533 266.203 14.9558L263.445 10.6421L263.444 10.6407Z" fill="#195190"/>
<path d="M230.529 11.3445C230.548 10.827 230.731 10.3284 231.052 9.91945C231.373 9.51046 231.816 9.21177 232.318 9.06568C232.82 8.91959 233.355 8.93351 233.849 9.10546C234.343 9.27741 234.769 9.59868 235.068 10.0238C235.14 10.1589 235.17 10.3117 235.156 10.4638C235.156 10.6399 234.978 10.9038 234.802 10.9038C234.625 10.9038 234.535 10.8161 234.357 10.5529C234.233 10.3159 234.039 10.122 233.8 9.99666C233.562 9.87135 233.291 9.8206 233.023 9.85113C232.812 9.85029 232.604 9.89071 232.409 9.97005C232.214 10.0494 232.037 10.1661 231.889 10.3134C231.74 10.4607 231.622 10.6357 231.542 10.8283C231.461 11.021 231.421 11.2274 231.421 11.4357V13.1964C231.413 13.4068 231.449 13.6165 231.526 13.8125C231.604 14.0085 231.721 14.1865 231.872 14.3354C232.022 14.4842 232.202 14.6006 232.4 14.6773C232.598 14.754 232.81 14.7893 233.023 14.781C233.311 14.7961 233.599 14.7296 233.851 14.5893C234.103 14.4491 234.309 14.2408 234.446 13.9887C234.535 13.8126 234.624 13.6378 234.891 13.6378C234.95 13.6344 235.009 13.6434 235.065 13.6643C235.12 13.6851 235.171 13.7174 235.213 13.759C235.255 13.8006 235.287 13.8505 235.308 13.9054C235.33 13.9604 235.339 14.0192 235.335 14.0779C235.317 14.265 235.256 14.4456 235.157 14.6063C234.924 14.9451 234.602 15.2144 234.226 15.3852C233.85 15.5559 233.433 15.6214 233.022 15.5747C232.698 15.5925 232.373 15.5439 232.069 15.432C231.764 15.32 231.486 15.147 231.252 14.9239C231.019 14.7009 230.834 14.4324 230.71 14.1354C230.585 13.8384 230.525 13.5192 230.531 13.1978V11.3445H230.529Z" stroke="#195190" stroke-width="0.176136" stroke-miterlimit="10"/>
<path d="M239.96 13.7219H237.202L236.757 14.9542C236.669 15.2181 236.579 15.3051 236.313 15.3051C236.207 15.3156 236.101 15.2848 236.018 15.2192C235.935 15.1537 235.881 15.0586 235.868 14.9542C235.874 14.8326 235.904 14.7133 235.957 14.6033L237.914 9.4973C238.092 9.14642 238.269 8.96887 238.623 8.96887C238.978 8.96887 239.157 9.14501 239.332 9.4973L241.29 14.6033C241.342 14.7133 241.373 14.8326 241.378 14.9542C241.365 15.0586 241.311 15.1537 241.228 15.2192C241.145 15.2848 241.039 15.3156 240.934 15.3051C240.83 15.3055 240.73 15.2709 240.649 15.2071C240.568 15.1433 240.512 15.0541 240.489 14.9542L239.96 13.7219ZM237.469 12.9296H239.604L238.537 10.2005H238.448L237.469 12.9296Z" stroke="#195190" stroke-width="0.176136" stroke-miterlimit="10"/>
<path d="M242.895 10.7288C242.895 12.0495 246.542 11.4306 246.542 13.5457C246.542 14.5141 245.653 15.3941 244.14 15.3941C243.732 15.4159 243.324 15.3392 242.952 15.1705C242.58 15.0018 242.255 14.7462 242.005 14.4257C241.906 14.265 241.846 14.0844 241.827 13.8973C241.835 13.783 241.884 13.6754 241.966 13.5944C242.048 13.5134 242.156 13.4647 242.272 13.4573C242.538 13.4573 242.626 13.6334 242.716 13.8082C242.839 14.0719 243.042 14.2906 243.298 14.4329C243.554 14.5753 243.848 14.6339 244.14 14.6004C245.118 14.6004 245.652 14.072 245.652 13.5443C245.652 12.2236 242.005 12.8425 242.005 10.7274C242.005 9.75897 242.806 8.96668 244.14 8.96668C244.544 8.95368 244.945 9.04406 245.303 9.22907C245.662 9.41409 245.966 9.68749 246.186 10.0228C246.275 10.199 246.364 10.2867 246.364 10.4628C246.357 10.5771 246.308 10.6848 246.226 10.7657C246.144 10.8467 246.035 10.8954 245.92 10.9029C245.653 10.9029 245.653 10.8151 245.475 10.552C245.351 10.315 245.156 10.121 244.918 9.99573C244.68 9.87042 244.408 9.81967 244.14 9.8502C243.34 9.76038 242.895 10.2004 242.895 10.7288Z" stroke="#195190" stroke-width="0.176136" stroke-miterlimit="10"/>
<path d="M252.502 14.9542C252.479 15.0539 252.423 15.143 252.342 15.2068C252.261 15.2706 252.161 15.3054 252.058 15.3054C251.954 15.3054 251.854 15.2706 251.773 15.2068C251.692 15.143 251.636 15.0539 251.613 14.9542V12.5773H248.588V14.9542C248.566 15.0539 248.509 15.143 248.428 15.2068C248.348 15.2706 248.247 15.3054 248.144 15.3054C248.04 15.3054 247.94 15.2706 247.859 15.2068C247.779 15.143 247.722 15.0539 247.699 14.9542V9.40674C247.722 9.307 247.779 9.21792 247.859 9.15411C247.94 9.0903 248.04 9.05554 248.144 9.05554C248.247 9.05554 248.348 9.0903 248.428 9.15411C248.509 9.21792 248.566 9.307 248.588 9.40674V11.6959H251.613V9.40674C251.636 9.307 251.692 9.21792 251.773 9.15411C251.854 9.0903 251.954 9.05554 252.058 9.05554C252.161 9.05554 252.261 9.0903 252.342 9.15411C252.423 9.21792 252.479 9.307 252.502 9.40674V14.9542Z" stroke="#195190" stroke-width="0.176136" stroke-miterlimit="10"/>
<path d="M261.22 13.1087C261.226 13.4301 261.165 13.7493 261.041 14.0463C260.917 14.3433 260.732 14.6117 260.498 14.8348C260.264 15.0579 259.987 15.2309 259.682 15.3428C259.378 15.4548 259.053 15.5034 258.729 15.4856C258.403 15.5108 258.075 15.4673 257.767 15.3579C257.46 15.2486 257.179 15.0759 256.944 14.8513C256.708 14.6267 256.524 14.3552 256.402 14.0549C256.281 13.7545 256.225 13.432 256.238 13.1087V11.3452C256.232 11.0238 256.293 10.7046 256.417 10.4076C256.541 10.1106 256.726 9.84217 256.96 9.61907C257.194 9.39597 257.472 9.22303 257.776 9.11105C258.081 8.99907 258.405 8.95048 258.73 8.9683C259.056 8.94301 259.383 8.98644 259.691 9.09573C259.999 9.20502 260.28 9.37767 260.515 9.6023C260.751 9.82693 260.935 10.0984 261.057 10.3989C261.179 10.6993 261.234 11.0218 261.221 11.3452L261.22 13.1087ZM260.331 11.348C260.332 11.1397 260.291 10.9332 260.211 10.7406C260.13 10.548 260.013 10.373 259.864 10.2257C259.715 10.0783 259.538 9.96166 259.343 9.88232C259.149 9.80298 258.94 9.76257 258.73 9.7634C258.517 9.7551 258.305 9.79042 258.107 9.86711C257.909 9.94381 257.729 10.0602 257.579 10.2091C257.428 10.3579 257.311 10.5359 257.233 10.7319C257.156 10.9279 257.12 11.1377 257.128 11.348V13.1087C257.127 13.317 257.168 13.5235 257.248 13.7161C257.329 13.9087 257.447 14.0837 257.595 14.231C257.744 14.3784 257.921 14.495 258.116 14.5744C258.31 14.6537 258.519 14.6941 258.73 14.6933C258.942 14.7016 259.154 14.6663 259.352 14.5896C259.55 14.5129 259.73 14.3965 259.88 14.2476C260.031 14.0988 260.149 13.9208 260.226 13.7248C260.304 13.5288 260.339 13.319 260.331 13.1087V11.348Z" stroke="#195190" stroke-width="0.176136" stroke-miterlimit="10"/>
<path d="M263.444 10.6407V14.9544C263.421 15.0541 263.365 15.1432 263.284 15.207C263.203 15.2708 263.103 15.3056 262.999 15.3056C262.896 15.3056 262.796 15.2708 262.715 15.207C262.634 15.1432 262.578 15.0541 262.555 14.9544V9.49608C262.555 9.23222 262.733 9.05607 263.089 9.05607C263.202 9.05869 263.312 9.09304 263.407 9.15513C263.501 9.21723 263.576 9.30454 263.623 9.40695L266.469 13.7207V9.40695C266.492 9.30686 266.548 9.21738 266.629 9.15326C266.71 9.08914 266.811 9.0542 266.914 9.0542C267.018 9.0542 267.118 9.08914 267.199 9.15326C267.28 9.21738 267.337 9.30686 267.359 9.40695V14.8667C267.359 15.1305 267.181 15.3067 266.825 15.3067C266.703 15.2935 266.584 15.2555 266.477 15.1952C266.37 15.1348 266.277 15.0533 266.203 14.9558L263.445 10.6421L263.444 10.6407Z" stroke="#195190" stroke-width="0.176136" stroke-miterlimit="10"/>
<path d="M235.423 20.5012C235.429 20.8226 235.368 21.1417 235.244 21.4387C235.12 21.7357 234.935 22.0042 234.701 22.2273C234.467 22.4504 234.189 22.6233 233.885 22.7353C233.58 22.8473 233.256 22.8959 232.932 22.8781H231.152C231.093 22.8815 231.034 22.8725 230.978 22.8516C230.923 22.8308 230.872 22.7985 230.83 22.7569C230.788 22.7153 230.756 22.6654 230.734 22.6105C230.713 22.5555 230.704 22.4967 230.708 22.438V17.0667C230.721 16.9624 230.775 16.8673 230.858 16.8017C230.941 16.7362 231.047 16.7053 231.152 16.7159H232.932C233.258 16.6906 233.585 16.734 233.893 16.8433C234.201 16.9526 234.482 17.1252 234.717 17.3499C234.953 17.5745 235.137 17.846 235.259 18.1464C235.381 18.4468 235.437 18.7694 235.423 19.0927V20.5012ZM231.598 17.5082V22.0858H232.932C233.145 22.0941 233.357 22.0587 233.555 21.982C233.753 21.9054 233.933 21.7889 234.083 21.6401C234.234 21.4913 234.351 21.3133 234.429 21.1173C234.506 20.9212 234.542 20.7115 234.534 20.5012V19.0927C234.534 18.8844 234.494 18.678 234.413 18.4854C234.333 18.2927 234.215 18.1177 234.066 17.9704C233.918 17.8231 233.741 17.7064 233.546 17.6271C233.351 17.5477 233.143 17.5073 232.932 17.5082H231.598Z" fill="#195190"/>
<path d="M237.736 17.5073V19.3558H239.96C240.019 19.3523 240.078 19.3613 240.134 19.3822C240.189 19.4031 240.24 19.4354 240.282 19.4769C240.324 19.5185 240.356 19.5684 240.378 19.6234C240.399 19.6783 240.408 19.7371 240.404 19.7958C240.404 20.0596 240.226 20.1467 239.96 20.1467H237.736V22.0835H240.938C241.044 22.073 241.15 22.1038 241.233 22.1694C241.316 22.235 241.37 22.3301 241.383 22.4344C241.375 22.5487 241.326 22.6563 241.244 22.7373C241.162 22.8183 241.054 22.867 240.938 22.8744H237.291C237.232 22.8779 237.172 22.8689 237.117 22.848C237.061 22.8271 237.011 22.7948 236.969 22.7533C236.927 22.7117 236.894 22.6618 236.873 22.6068C236.852 22.5519 236.843 22.4931 236.846 22.4344V17.0659C236.86 16.9616 236.913 16.8665 236.997 16.8009C237.08 16.7353 237.185 16.7045 237.291 16.715H240.85C240.955 16.7045 241.061 16.7353 241.144 16.8009C241.227 16.8665 241.281 16.9616 241.294 17.0659C241.287 17.1802 241.237 17.2878 241.156 17.3688C241.074 17.4498 240.965 17.4985 240.85 17.5059L237.736 17.5073Z" fill="#195190"/>
<path d="M243.162 22.0856H245.831C245.936 22.0751 246.042 22.1059 246.125 22.1714C246.208 22.237 246.262 22.3321 246.275 22.4365C246.268 22.5507 246.219 22.6584 246.137 22.7393C246.055 22.8203 245.946 22.8691 245.831 22.8765H242.717C242.658 22.88 242.598 22.871 242.543 22.8501C242.487 22.8292 242.437 22.7969 242.395 22.7553C242.353 22.7137 242.32 22.6638 242.299 22.6089C242.278 22.5539 242.269 22.4952 242.272 22.4365V16.9782C242.295 16.8784 242.352 16.7893 242.432 16.7255C242.513 16.6617 242.613 16.627 242.717 16.627C242.82 16.627 242.921 16.6617 243.001 16.7255C243.082 16.7893 243.139 16.8784 243.161 16.9782L243.162 22.0856Z" fill="#195190"/>
<path d="M248.055 22.6139C248.032 22.714 247.976 22.8035 247.895 22.8676C247.814 22.9318 247.714 22.9667 247.61 22.9667C247.506 22.9667 247.406 22.9318 247.325 22.8676C247.244 22.8035 247.188 22.714 247.165 22.6139V17.0665C247.188 16.9664 247.244 16.8769 247.325 16.8128C247.406 16.7487 247.506 16.7137 247.61 16.7137C247.714 16.7137 247.814 16.7487 247.895 16.8128C247.976 16.8769 248.032 16.9664 248.055 17.0665V22.6139Z" fill="#195190"/>
<path d="M250.99 22.5256L249.122 17.4168C249.069 17.3069 249.039 17.1876 249.033 17.0659C249.046 16.9616 249.1 16.8665 249.183 16.8009C249.266 16.7353 249.372 16.7045 249.478 16.715C249.581 16.7146 249.682 16.7492 249.763 16.813C249.843 16.8768 249.9 16.966 249.922 17.0659L251.702 21.8197L253.481 17.0659C253.57 16.8021 253.659 16.715 253.926 16.715C254.031 16.7045 254.137 16.7353 254.22 16.8009C254.303 16.8665 254.357 16.9616 254.37 17.0659C254.365 17.1876 254.334 17.3069 254.282 17.4168L252.414 22.5228C252.236 22.9628 252.147 23.139 251.705 23.139C251.543 23.1036 251.394 23.0289 251.269 22.9218C251.144 22.8148 251.049 22.6786 250.99 22.5256Z" fill="#195190"/>
<path d="M256.151 17.5073V19.3558H258.375C258.434 19.3523 258.493 19.3613 258.549 19.3822C258.604 19.4031 258.655 19.4354 258.697 19.4769C258.739 19.5185 258.771 19.5684 258.793 19.6234C258.814 19.6783 258.823 19.7371 258.819 19.7958C258.819 20.0596 258.641 20.1467 258.375 20.1467H256.151V22.0835H259.353C259.459 22.073 259.565 22.1038 259.648 22.1694C259.731 22.235 259.785 22.3301 259.798 22.4344C259.79 22.5487 259.741 22.6563 259.659 22.7373C259.577 22.8183 259.469 22.867 259.353 22.8744H255.706C255.647 22.8779 255.587 22.8689 255.532 22.848C255.476 22.8271 255.426 22.7948 255.384 22.7533C255.342 22.7117 255.309 22.6618 255.288 22.6068C255.267 22.5519 255.258 22.4931 255.261 22.4344V17.0659C255.275 16.9616 255.329 16.8665 255.412 16.8009C255.495 16.7353 255.6 16.7045 255.706 16.715H259.265C259.37 16.7045 259.476 16.7353 259.559 16.8009C259.642 16.8665 259.696 16.9616 259.709 17.0659C259.702 17.1802 259.652 17.2878 259.571 17.3688C259.489 17.4498 259.38 17.4985 259.265 17.5059L256.151 17.5073Z" fill="#195190"/>
<path d="M261.666 20.4126V22.5256C261.643 22.6254 261.586 22.7145 261.505 22.7783C261.425 22.8421 261.324 22.8768 261.221 22.8768C261.118 22.8768 261.017 22.8421 260.937 22.7783C260.856 22.7145 260.799 22.6254 260.776 22.5256V17.0659C260.79 16.9616 260.843 16.8665 260.926 16.8009C261.01 16.7353 261.115 16.7045 261.221 16.715H263.089C264.601 16.715 265.313 17.4168 265.313 18.5635C265.299 18.9233 265.171 19.2696 264.948 19.5539C264.724 19.8381 264.416 20.0459 264.068 20.1481L265.491 22.0849C265.602 22.2054 265.665 22.3618 265.669 22.5249C265.656 22.6293 265.602 22.7244 265.519 22.79C265.436 22.8555 265.33 22.8863 265.224 22.8758C265.046 22.8758 264.957 22.7881 264.779 22.6997L263.089 20.4105H261.666V20.4126ZM263.089 19.6203C263.979 19.6203 264.424 19.1803 264.424 18.5642C264.424 17.948 263.979 17.508 263.089 17.508H261.666V19.6203H263.089Z" fill="#195190"/>
<path d="M270.385 16.8916C270.427 16.805 270.496 16.7335 270.581 16.6866C270.666 16.6397 270.763 16.6197 270.86 16.6293C270.957 16.6388 271.049 16.6775 271.123 16.7401C271.197 16.8026 271.249 16.8861 271.274 16.9793C271.263 17.1291 271.233 17.2769 271.185 17.4193L269.14 20.5008V22.5253C269.117 22.6251 269.06 22.7142 268.979 22.778C268.899 22.8418 268.798 22.8765 268.695 22.8765C268.592 22.8765 268.491 22.8418 268.41 22.778C268.33 22.7142 268.273 22.6251 268.25 22.5253V20.5015L266.204 17.42C266.093 17.2995 266.03 17.1432 266.026 16.98C266.026 16.7161 266.204 16.6291 266.471 16.6291C266.649 16.6291 266.826 16.7168 266.826 16.893L268.605 19.6221L270.385 16.8916Z" fill="#195190"/>
<path d="M235.423 20.5012C235.429 20.8226 235.368 21.1417 235.244 21.4387C235.12 21.7357 234.935 22.0042 234.701 22.2273C234.467 22.4504 234.189 22.6233 233.885 22.7353C233.58 22.8473 233.256 22.8959 232.932 22.8781H231.152C231.093 22.8815 231.034 22.8725 230.978 22.8516C230.923 22.8308 230.872 22.7985 230.83 22.7569C230.788 22.7153 230.756 22.6654 230.734 22.6105C230.713 22.5555 230.704 22.4967 230.708 22.438V17.0667C230.721 16.9624 230.775 16.8673 230.858 16.8017C230.941 16.7362 231.047 16.7053 231.152 16.7159H232.932C233.258 16.6906 233.585 16.734 233.893 16.8433C234.201 16.9526 234.482 17.1252 234.717 17.3499C234.953 17.5745 235.137 17.846 235.259 18.1464C235.381 18.4468 235.437 18.7694 235.423 19.0927V20.5012ZM231.598 17.5082V22.0858H232.932C233.145 22.0941 233.357 22.0587 233.555 21.982C233.753 21.9054 233.933 21.7889 234.083 21.6401C234.234 21.4913 234.351 21.3133 234.429 21.1173C234.506 20.9212 234.542 20.7115 234.534 20.5012V19.0927C234.534 18.8844 234.494 18.678 234.413 18.4854C234.333 18.2927 234.215 18.1177 234.066 17.9704C233.918 17.8231 233.741 17.7064 233.546 17.6271C233.351 17.5477 233.143 17.5073 232.932 17.5082H231.598Z" stroke="#195190" stroke-width="0.176136" stroke-miterlimit="10"/>
<path d="M237.736 17.5073V19.3558H239.96C240.019 19.3523 240.078 19.3613 240.134 19.3822C240.189 19.4031 240.24 19.4354 240.282 19.4769C240.324 19.5185 240.356 19.5684 240.378 19.6234C240.399 19.6783 240.408 19.7371 240.404 19.7958C240.404 20.0596 240.226 20.1467 239.96 20.1467H237.736V22.0835H240.938C241.044 22.073 241.15 22.1038 241.233 22.1694C241.316 22.235 241.37 22.3301 241.383 22.4344C241.375 22.5487 241.326 22.6563 241.244 22.7373C241.162 22.8183 241.054 22.867 240.938 22.8744H237.291C237.232 22.8779 237.172 22.8689 237.117 22.848C237.061 22.8271 237.011 22.7948 236.969 22.7533C236.927 22.7117 236.894 22.6618 236.873 22.6068C236.852 22.5519 236.843 22.4931 236.846 22.4344V17.0659C236.86 16.9616 236.913 16.8665 236.997 16.8009C237.08 16.7353 237.185 16.7045 237.291 16.715H240.85C240.955 16.7045 241.061 16.7353 241.144 16.8009C241.227 16.8665 241.281 16.9616 241.294 17.0659C241.287 17.1802 241.237 17.2878 241.156 17.3688C241.074 17.4498 240.965 17.4985 240.85 17.5059L237.736 17.5073Z" stroke="#195190" stroke-width="0.176136" stroke-miterlimit="10"/>
<path d="M243.162 22.0856H245.831C245.936 22.0751 246.042 22.1059 246.125 22.1714C246.208 22.237 246.262 22.3321 246.275 22.4365C246.268 22.5507 246.219 22.6584 246.137 22.7393C246.055 22.8203 245.946 22.8691 245.831 22.8765H242.717C242.658 22.88 242.598 22.871 242.543 22.8501C242.487 22.8292 242.437 22.7969 242.395 22.7553C242.353 22.7137 242.32 22.6638 242.299 22.6089C242.278 22.5539 242.269 22.4952 242.272 22.4365V16.9782C242.295 16.8784 242.352 16.7893 242.432 16.7255C242.513 16.6617 242.613 16.627 242.717 16.627C242.82 16.627 242.921 16.6617 243.001 16.7255C243.082 16.7893 243.139 16.8784 243.161 16.9782L243.162 22.0856Z" stroke="#195190" stroke-width="0.176136" stroke-miterlimit="10"/>
<path d="M248.055 22.6139C248.032 22.714 247.976 22.8035 247.895 22.8676C247.814 22.9318 247.714 22.9667 247.61 22.9667C247.506 22.9667 247.406 22.9318 247.325 22.8676C247.244 22.8035 247.188 22.714 247.165 22.6139V17.0665C247.188 16.9664 247.244 16.8769 247.325 16.8128C247.406 16.7487 247.506 16.7137 247.61 16.7137C247.714 16.7137 247.814 16.7487 247.895 16.8128C247.976 16.8769 248.032 16.9664 248.055 17.0665V22.6139Z" stroke="#195190" stroke-width="0.176136" stroke-miterlimit="10"/>
<path d="M250.99 22.5256L249.122 17.4168C249.069 17.3069 249.039 17.1876 249.033 17.0659C249.046 16.9616 249.1 16.8665 249.183 16.8009C249.266 16.7353 249.372 16.7045 249.478 16.715C249.581 16.7146 249.682 16.7492 249.763 16.813C249.843 16.8768 249.9 16.966 249.922 17.0659L251.702 21.8197L253.481 17.0659C253.57 16.8021 253.659 16.715 253.926 16.715C254.031 16.7045 254.137 16.7353 254.22 16.8009C254.303 16.8665 254.357 16.9616 254.37 17.0659C254.365 17.1876 254.334 17.3069 254.282 17.4168L252.414 22.5228C252.236 22.9628 252.147 23.139 251.705 23.139C251.543 23.1036 251.394 23.0289 251.269 22.9218C251.144 22.8148 251.049 22.6786 250.99 22.5256V22.5256Z" stroke="#195190" stroke-width="0.176136" stroke-miterlimit="10"/>
<path d="M256.151 17.5073V19.3558H258.375C258.434 19.3523 258.493 19.3613 258.549 19.3822C258.604 19.4031 258.655 19.4354 258.697 19.4769C258.739 19.5185 258.771 19.5684 258.793 19.6234C258.814 19.6783 258.823 19.7371 258.819 19.7958C258.819 20.0596 258.641 20.1467 258.375 20.1467H256.151V22.0835H259.353C259.459 22.073 259.565 22.1038 259.648 22.1694C259.731 22.235 259.785 22.3301 259.798 22.4344C259.79 22.5487 259.741 22.6563 259.659 22.7373C259.577 22.8183 259.469 22.867 259.353 22.8744H255.706C255.647 22.8779 255.587 22.8689 255.532 22.848C255.476 22.8271 255.426 22.7948 255.384 22.7533C255.342 22.7117 255.309 22.6618 255.288 22.6068C255.267 22.5519 255.258 22.4931 255.261 22.4344V17.0659C255.275 16.9616 255.329 16.8665 255.412 16.8009C255.495 16.7353 255.6 16.7045 255.706 16.715H259.265C259.37 16.7045 259.476 16.7353 259.559 16.8009C259.642 16.8665 259.696 16.9616 259.709 17.0659C259.702 17.1802 259.652 17.2878 259.571 17.3688C259.489 17.4498 259.38 17.4985 259.265 17.5059L256.151 17.5073Z" stroke="#195190" stroke-width="0.176136" stroke-miterlimit="10"/>
<path d="M261.666 20.4126V22.5256C261.643 22.6254 261.586 22.7145 261.505 22.7783C261.425 22.8421 261.324 22.8768 261.221 22.8768C261.118 22.8768 261.017 22.8421 260.937 22.7783C260.856 22.7145 260.799 22.6254 260.776 22.5256V17.0659C260.79 16.9616 260.843 16.8665 260.926 16.8009C261.01 16.7353 261.115 16.7045 261.221 16.715H263.089C264.601 16.715 265.313 17.4168 265.313 18.5635C265.299 18.9233 265.171 19.2696 264.948 19.5539C264.724 19.8381 264.416 20.0459 264.068 20.1481V20.1481L265.491 22.0849C265.602 22.2054 265.665 22.3618 265.669 22.5249C265.656 22.6293 265.602 22.7244 265.519 22.79C265.436 22.8555 265.33 22.8863 265.224 22.8758C265.046 22.8758 264.957 22.7881 264.779 22.6997L263.089 20.4105H261.666V20.4126ZM263.089 19.6203C263.979 19.6203 264.424 19.1803 264.424 18.5642C264.424 17.948 263.979 17.508 263.089 17.508H261.666V19.6203H263.089Z" stroke="#195190" stroke-width="0.176136" stroke-miterlimit="10"/>
<path d="M270.385 16.8916C270.427 16.805 270.496 16.7335 270.581 16.6866C270.666 16.6397 270.763 16.6197 270.86 16.6293C270.957 16.6388 271.049 16.6775 271.123 16.7401C271.197 16.8026 271.249 16.8861 271.274 16.9793C271.263 17.1291 271.233 17.2769 271.185 17.4193L269.14 20.5008V22.5253C269.117 22.6251 269.06 22.7142 268.979 22.778C268.899 22.8418 268.798 22.8765 268.695 22.8765C268.592 22.8765 268.491 22.8418 268.41 22.778C268.33 22.7142 268.273 22.6251 268.25 22.5253V20.5015L266.204 17.42C266.093 17.2995 266.03 17.1432 266.026 16.98C266.026 16.7161 266.204 16.6291 266.471 16.6291C266.649 16.6291 266.826 16.7168 266.826 16.893L268.605 19.6221L270.385 16.8916Z" stroke="#195190" stroke-width="0.176136" stroke-miterlimit="10"/>
<defs>
<clipPath id="clip0_5169_5626">
<rect width="30.7801" height="26.7055" fill="white" transform="translate(40.7275 2.90906)"/>
</clipPath>
<clipPath id="clip1_5169_5626">
<rect width="36.7375" height="30.814" fill="white" transform="translate(36.7559 0.85437)"/>
</clipPath>
</defs>
</svg>
