<svg width="32" height="32" viewBox="0 0 32 32" fill="none" xmlns="http://www.w3.org/2000/svg">
<path fill-rule="evenodd" clip-rule="evenodd" d="M3.61791 13.7108H5.66798C6.76869 13.7108 7.18304 14.2681 7.11901 15.0867C7.01317 16.4382 6.19611 17.186 5.11233 17.186H4.56515C4.41645 17.186 4.31643 17.2844 4.27621 17.5511L4.0439 19.1016C4.02856 19.2022 3.97564 19.2604 3.89626 19.2683H2.60822C2.48703 19.2683 2.44417 19.1757 2.47592 18.9752L3.26123 14.0045C3.29193 13.8055 3.40094 13.7108 3.61791 13.7108Z" fill="#009EE3"/>
<path fill-rule="evenodd" clip-rule="evenodd" d="M12.5179 13.6188C13.2096 13.6188 13.8478 13.994 13.7604 14.929C13.6546 16.0403 13.0593 16.6553 12.12 16.6579H11.2992C11.1812 16.6579 11.124 16.7542 11.0933 16.9516L10.9346 17.9608C10.9108 18.1132 10.8324 18.1883 10.7171 18.1883H9.95346C9.83175 18.1883 9.78941 18.1105 9.8164 17.9364L10.4467 13.8918C10.4779 13.6929 10.5525 13.6188 10.6885 13.6188H12.5163H12.5179ZM11.2743 15.7842H11.8961C12.2851 15.7694 12.5433 15.5 12.5692 15.0142C12.5851 14.7142 12.3824 14.4993 12.0602 14.5009L11.4749 14.5036L11.2743 15.7842ZM15.8364 17.8787C15.9063 17.8152 15.9772 17.7824 15.9672 17.8607L15.9423 18.0481C15.9296 18.146 15.9682 18.1978 16.0592 18.1978H16.7376C16.852 18.1978 16.9075 18.1518 16.9356 17.975L17.3536 15.3513C17.3748 15.2196 17.3425 15.155 17.2425 15.155H16.4963C16.4291 15.155 16.3963 15.1926 16.3789 15.2952L16.3513 15.4566C16.3371 15.5408 16.2984 15.5556 16.2624 15.4709C16.136 15.1714 15.8132 15.037 15.3628 15.0476C14.3166 15.0693 13.6112 15.8636 13.5355 16.8817C13.4773 17.6692 14.0414 18.2878 14.7855 18.2878C15.3252 18.2878 15.5666 18.129 15.8386 17.8803L15.8364 17.8787ZM15.2681 17.475C14.8178 17.475 14.5039 17.1156 14.569 16.6754C14.6341 16.2351 15.0554 15.8758 15.5057 15.8758C15.956 15.8758 16.2698 16.2351 16.2048 16.6754C16.1397 17.1156 15.719 17.475 15.2681 17.475ZM18.6814 15.1465H17.9934C17.8516 15.1465 17.7939 15.2524 17.8389 15.3826L18.693 17.8835L17.8553 19.0736C17.7849 19.1731 17.8394 19.2636 17.9384 19.2636H18.7115C18.7566 19.2688 18.8022 19.261 18.8429 19.241C18.8836 19.221 18.9177 19.1897 18.9412 19.1509L21.5681 15.3831C21.649 15.2672 21.6109 15.1455 21.4781 15.1455H20.7462C20.6208 15.1455 20.5706 15.1952 20.4986 15.2995L19.4032 16.887L18.9137 15.2958C18.8851 15.1995 18.8137 15.1465 18.6819 15.1465H18.6814Z" fill="#113984"/>
<path fill-rule="evenodd" clip-rule="evenodd" d="M24.3016 13.6189C24.9932 13.6189 25.6314 13.9941 25.5441 14.9291C25.4383 16.0404 24.8429 16.6553 23.9036 16.658H23.0834C22.9654 16.658 22.9082 16.7543 22.8775 16.9517L22.7188 17.9608C22.6949 18.1132 22.6166 18.1884 22.5013 18.1884H21.7376C21.6159 18.1884 21.5736 18.1106 21.6006 17.9365L22.2319 13.8909C22.2631 13.6919 22.3377 13.6178 22.4737 13.6178H24.3016V13.6189ZM23.058 15.7843H23.6798C24.0687 15.7695 24.327 15.5001 24.3529 15.0143C24.3688 14.7143 24.1661 14.4994 23.8438 14.501L23.2585 14.5037L23.058 15.7843ZM27.6201 17.8788C27.6899 17.8153 27.7609 17.7825 27.7508 17.8608L27.7259 18.0482C27.7132 18.1461 27.7519 18.1979 27.8429 18.1979H28.5213C28.6356 18.1979 28.6912 18.1519 28.7192 17.9751L29.1373 15.3514C29.1584 15.2196 29.1262 15.1551 29.0261 15.1551H28.281C28.2138 15.1551 28.181 15.1927 28.1636 15.2953L28.136 15.4567C28.1218 15.5409 28.0831 15.5557 28.0471 15.471C27.9207 15.1715 27.5979 15.0371 27.1475 15.0477C26.1013 15.0694 25.3959 15.8637 25.3202 16.8818C25.262 17.6693 25.8261 18.2879 26.5702 18.2879C27.11 18.2879 27.3513 18.1291 27.6233 17.8804L27.6201 17.8788ZM27.0523 17.475C26.6019 17.475 26.2881 17.1157 26.3532 16.6754C26.4183 16.2352 26.8395 15.8758 27.2899 15.8758C27.7402 15.8758 28.054 16.2352 27.9889 16.6754C27.9238 17.1157 27.5026 17.475 27.0523 17.475ZM30.1814 18.2022H29.3982C29.3845 18.2028 29.3709 18.2004 29.3584 18.1951C29.3458 18.1899 29.3345 18.1819 29.3254 18.1718C29.3162 18.1617 29.3094 18.1497 29.3054 18.1366C29.3015 18.1236 29.3004 18.1098 29.3024 18.0963L29.9903 13.7379C29.9969 13.7082 30.0133 13.6815 30.037 13.6623C30.0606 13.6431 30.09 13.6324 30.1205 13.6321H30.9037C30.9173 13.6315 30.9309 13.6339 30.9435 13.6391C30.9561 13.6444 30.9674 13.6524 30.9765 13.6625C30.9857 13.6726 30.9925 13.6846 30.9964 13.6976C31.0004 13.7107 31.0014 13.7244 30.9995 13.7379L30.3115 18.0963C30.3052 18.1263 30.2888 18.1531 30.2652 18.1726C30.2415 18.192 30.212 18.2028 30.1814 18.2032V18.2022Z" fill="#009EE3"/>
<path fill-rule="evenodd" clip-rule="evenodd" d="M2.33558 12H4.38777C4.96564 12 5.65147 12.0185 6.10975 12.4234C6.41615 12.6938 6.57702 13.124 6.53998 13.5876C6.41403 15.1545 5.47684 16.0324 4.21949 16.0324H3.20768C3.03517 16.0324 2.92139 16.1467 2.87271 16.4558L2.59012 18.255C2.5716 18.3714 2.52133 18.4402 2.43136 18.4487H1.16502C1.02478 18.4487 0.975039 18.3428 1.01155 18.1089L1.92176 12.3419C1.95827 12.1101 2.0858 12 2.33558 12Z" fill="#113984"/>
<path fill-rule="evenodd" clip-rule="evenodd" d="M2.90234 16.2732L3.2606 14.0046C3.29183 13.8056 3.40084 13.7103 3.61781 13.7103H5.66788C6.00709 13.7103 6.28174 13.7632 6.49659 13.8611C6.29073 15.2561 5.38847 16.0308 4.20732 16.0308H3.1971C3.06163 16.0313 2.96214 16.0991 2.90234 16.2732Z" fill="#172C70"/>
</svg>
