<svg width="233" height="32" viewBox="0 0 233 32" fill="none" xmlns="http://www.w3.org/2000/svg">
<path d="M20.5401 11C18.41 11 16.5064 12.1041 16.5064 14.144C16.5064 16.4833 19.8825 16.6449 19.8825 17.8201C19.8825 18.3149 19.3154 18.7579 18.3468 18.7579C16.9723 18.7579 15.9449 18.139 15.9449 18.139L15.5053 20.1974C15.5053 20.1974 16.6888 20.7202 18.2601 20.7202C20.589 20.7202 22.4215 19.5619 22.4215 17.4872C22.4215 15.0152 19.0314 14.8585 19.0314 13.7677C19.0314 13.38 19.4969 12.9553 20.4627 12.9553C21.5524 12.9553 22.4415 13.4054 22.4415 13.4054L22.8717 11.4173C22.8717 11.4173 21.9043 11 20.5401 11V11ZM1.05158 11.15L1 11.4501C1 11.4501 1.89614 11.6141 2.70327 11.9413C3.7425 12.3165 3.81654 12.5349 3.99156 13.2132L5.8988 20.5655H8.45546L12.3942 11.15H9.84339L7.31252 17.5517L6.27977 12.1254C6.18506 11.5043 5.70532 11.15 5.11808 11.15H1.05158V11.15ZM13.4199 11.15L11.4189 20.5655H13.8513L15.8453 11.15H13.4199V11.15ZM26.9862 11.15C26.3997 11.15 26.0889 11.4641 25.8609 12.0128L22.2973 20.5655H24.8481L25.3416 19.14H28.4492L28.7493 20.5655H31L29.0365 11.15H26.9862V11.15ZM27.318 13.6938L28.0741 17.2269H26.0485L27.318 13.6938V13.6938Z" fill="#1434CB"/>
<g clip-path="url(#clip0_5170_6105)">
<g clip-path="url(#clip1_5170_6105)">
<path d="M46.4452 27.7909V26.2554C46.454 26.1263 46.4357 25.9967 46.3917 25.8754C46.3476 25.754 46.2788 25.6437 46.1898 25.5517C46.1007 25.4596 45.9935 25.3881 45.8753 25.3418C45.7571 25.2954 45.6306 25.2754 45.5043 25.283C45.3389 25.2719 45.1736 25.3064 45.0257 25.3829C44.8778 25.4594 44.7527 25.5752 44.6634 25.718C44.5821 25.5795 44.4657 25.4659 44.3265 25.3893C44.1873 25.3128 44.0305 25.276 43.8726 25.283C43.735 25.2759 43.5979 25.3056 43.475 25.3694C43.3521 25.4331 43.2476 25.5286 43.1719 25.6464V25.3444H42.6514V27.7909H43.1769V26.4448C43.1657 26.3611 43.1728 26.276 43.1975 26.1954C43.2222 26.1149 43.2641 26.0409 43.32 25.9788C43.376 25.9167 43.4447 25.868 43.5211 25.8362C43.5976 25.8044 43.68 25.7902 43.7625 25.7948C44.1079 25.7948 44.283 26.0251 44.283 26.4397V27.8011H44.8086V26.4448C44.7978 26.3612 44.8052 26.2762 44.8301 26.1959C44.855 26.1155 44.8969 26.0418 44.9527 25.9798C45.0086 25.9178 45.0771 25.8691 45.1533 25.8371C45.2296 25.8051 45.3118 25.7907 45.3942 25.7948C45.7495 25.7948 45.9197 26.0251 45.9197 26.4397V27.8011L46.4452 27.7909ZM54.2207 25.3444H53.3648V24.6022H52.8393V25.3444H52.3638V25.8306H52.8493V26.9566C52.8493 27.5247 53.0645 27.8625 53.6801 27.8625C53.9101 27.8633 54.1357 27.7977 54.3308 27.6732L54.1806 27.2176C54.041 27.3028 53.8826 27.3503 53.7202 27.3558C53.4699 27.3558 53.3748 27.192 53.3748 26.9464V25.8306H54.2257L54.2207 25.3444ZM58.6602 25.283C58.5333 25.2791 58.4077 25.3104 58.2967 25.3735C58.1857 25.4365 58.0934 25.529 58.0296 25.6412V25.3444H57.514V27.7909H58.0346V26.4192C58.0346 26.0149 58.2047 25.7897 58.5351 25.7897C58.6464 25.7881 58.757 25.809 58.8604 25.8511L59.0206 25.3393C58.9017 25.2958 58.7765 25.2733 58.6502 25.2727L58.6602 25.283ZM51.9484 25.5389C51.6537 25.3597 51.3149 25.2709 50.9724 25.283C50.3667 25.283 49.9713 25.5798 49.9713 26.066C49.9713 26.4653 50.2616 26.7109 50.7972 26.7877L51.0474 26.8235C51.3327 26.8645 51.4679 26.9413 51.4679 27.0794C51.4679 27.2688 51.2777 27.3763 50.9223 27.3763C50.6365 27.3848 50.3562 27.2946 50.1265 27.1204L49.8762 27.535C50.1795 27.7515 50.5426 27.8627 50.9123 27.8523C51.603 27.8523 52.0034 27.5196 52.0034 27.0539C52.0034 26.5881 51.6881 26.3987 51.1676 26.322L50.9173 26.2861C50.6921 26.2554 50.5119 26.2094 50.5119 26.0456C50.5119 25.8818 50.6821 25.759 50.9674 25.759C51.231 25.7621 51.4895 25.8343 51.7181 25.9688L51.9484 25.5389ZM65.8901 25.283C65.7632 25.2791 65.6376 25.3104 65.5266 25.3735C65.4156 25.4365 65.3233 25.529 65.2594 25.6412V25.3444H64.7439V27.7909H65.2644V26.4192C65.2644 26.0149 65.4346 25.7897 65.765 25.7897C65.8763 25.7881 65.9868 25.809 66.0903 25.8511L66.2505 25.3393C66.1316 25.2958 66.0063 25.2733 65.8801 25.2727L65.8901 25.283ZM59.1832 26.5625C59.177 26.7344 59.206 26.9058 59.2683 27.0656C59.3306 27.2254 59.4248 27.3702 59.545 27.4906C59.6651 27.6111 59.8085 27.7045 59.966 27.765C60.1235 27.8256 60.2916 27.8518 60.4595 27.8421C60.7721 27.8583 61.0792 27.7542 61.3204 27.5503L61.0702 27.1204C60.8902 27.2607 60.6708 27.3379 60.4445 27.3405C60.2521 27.3246 60.0726 27.2351 59.9417 27.09C59.8109 26.9449 59.7382 26.7548 59.7382 26.5574C59.7382 26.36 59.8109 26.1698 59.9417 26.0247C60.0726 25.8796 60.2521 25.7902 60.4445 25.7743C60.6708 25.7769 60.8902 25.8541 61.0702 25.9944L61.3204 25.5645C61.0792 25.3606 60.7721 25.2565 60.4595 25.2727C60.2916 25.263 60.1235 25.2892 59.966 25.3497C59.8085 25.4103 59.6651 25.5037 59.545 25.6242C59.4248 25.7446 59.3306 25.8894 59.2683 26.0492C59.206 26.209 59.177 26.3803 59.1832 26.5523V26.5625ZM64.0582 26.5625V25.3444H63.5377V25.6412C63.4493 25.5249 63.3351 25.4318 63.2046 25.3695C63.074 25.3072 62.9309 25.2775 62.7869 25.283C62.4551 25.283 62.1368 25.4178 61.9021 25.6577C61.6675 25.8977 61.5356 26.2232 61.5356 26.5625C61.5356 26.9019 61.6675 27.2273 61.9021 27.4673C62.1368 27.7072 62.4551 27.8421 62.7869 27.8421C62.9309 27.8475 63.074 27.8178 63.2046 27.7555C63.3351 27.6932 63.4493 27.6001 63.5377 27.4838V27.7806H64.0582V26.5625ZM62.1212 26.5625C62.1295 26.4185 62.1788 26.2801 62.2631 26.1644C62.3473 26.0487 62.4628 25.9607 62.5953 25.9112C62.7279 25.8618 62.8716 25.8531 63.0089 25.8861C63.1463 25.9192 63.2711 25.9926 63.3682 26.0973C63.4652 26.202 63.5302 26.3334 63.5551 26.4754C63.58 26.6174 63.5638 26.7638 63.5084 26.8964C63.453 27.0291 63.3609 27.1423 63.2433 27.2221C63.1258 27.3019 62.988 27.3448 62.847 27.3456C62.7479 27.3469 62.6496 27.3272 62.5583 27.2877C62.4671 27.2483 62.3847 27.19 62.3166 27.1164C62.2484 27.0429 62.1959 26.9557 62.1623 26.8604C62.1286 26.765 62.1147 26.6636 62.1212 26.5625V26.5625ZM55.8398 25.283C55.508 25.2877 55.1915 25.4271 54.9602 25.6704C54.7288 25.9137 54.6014 26.2411 54.6061 26.5804C54.6107 26.9198 54.747 27.2433 54.9849 27.4799C55.2229 27.7166 55.543 27.8468 55.8749 27.8421C56.2349 27.861 56.589 27.7424 56.8684 27.5094L56.6181 27.1153C56.4205 27.2773 56.1757 27.3674 55.9224 27.3712C55.7503 27.3863 55.5793 27.3322 55.4456 27.2204C55.312 27.1086 55.2262 26.9478 55.2067 26.7724H56.9835C56.9835 26.7058 56.9835 26.6393 56.9835 26.5676C56.9835 25.7999 56.518 25.2881 55.8473 25.2881L55.8398 25.283ZM55.8398 25.759C55.9177 25.7573 55.9952 25.7713 56.0678 25.8002C56.1404 25.8291 56.2067 25.8724 56.2629 25.9275C56.3192 25.9826 56.3642 26.0486 56.3955 26.1215C56.4269 26.1945 56.4438 26.273 56.4454 26.3527H55.1942C55.2032 26.1884 55.2748 26.0343 55.3936 25.9233C55.5124 25.8123 55.669 25.7533 55.8298 25.759H55.8398ZM68.8806 26.5676V24.3617H68.3801V25.6412C68.2917 25.5249 68.1775 25.4318 68.047 25.3695C67.9165 25.3072 67.7733 25.2775 67.6294 25.283C67.2975 25.283 66.9792 25.4178 66.7446 25.6577C66.5099 25.8977 66.3781 26.2232 66.3781 26.5625C66.3781 26.9019 66.5099 27.2273 66.7446 27.4673C66.9792 27.7072 67.2975 27.8421 67.6294 27.8421C67.7733 27.8475 67.9165 27.8178 68.047 27.7555C68.1775 27.6932 68.2917 27.6001 68.3801 27.4838V27.7806H68.8806V26.5676ZM69.749 27.4352C69.7816 27.4348 69.8139 27.4408 69.8441 27.4531C69.8729 27.4651 69.8992 27.4824 69.9217 27.5043C69.9437 27.5263 69.9615 27.5523 69.9743 27.581C69.9869 27.6109 69.9935 27.6431 69.9935 27.6757C69.9935 27.7083 69.9869 27.7405 69.9743 27.7704C69.9615 27.7991 69.9437 27.8251 69.9217 27.8472C69.8992 27.869 69.8729 27.8864 69.8441 27.8984C69.8142 27.9119 69.7818 27.9188 69.749 27.9188C69.7016 27.9185 69.6552 27.9043 69.6153 27.878C69.5755 27.8518 69.5437 27.8144 69.5238 27.7704C69.5113 27.7405 69.5048 27.7083 69.5048 27.6757C69.5048 27.6432 69.5113 27.6109 69.5238 27.581C69.5365 27.5523 69.5544 27.5263 69.5763 27.5043C69.5989 27.4824 69.6252 27.4651 69.6539 27.4531C69.6865 27.4398 69.7215 27.4337 69.7565 27.4352H69.749ZM69.749 27.8676C69.774 27.8678 69.7987 27.8626 69.8216 27.8523C69.8431 27.8425 69.8627 27.8286 69.8792 27.8113C69.9105 27.7764 69.9278 27.7308 69.9278 27.6834C69.9278 27.636 69.9105 27.5904 69.8792 27.5554C69.8627 27.5382 69.8432 27.5243 69.8216 27.5145C69.7987 27.5043 69.774 27.4991 69.749 27.4991C69.7241 27.4993 69.6994 27.5045 69.6764 27.5145C69.654 27.5239 69.6335 27.5378 69.6164 27.5554C69.5851 27.5904 69.5677 27.636 69.5677 27.6834C69.5677 27.7308 69.5851 27.7764 69.6164 27.8113C69.6336 27.8289 69.654 27.8428 69.6764 27.8523C69.7017 27.8634 69.7291 27.8687 69.7565 27.8676H69.749ZM69.764 27.5631C69.7874 27.562 69.8104 27.5692 69.8291 27.5836C69.8368 27.5901 69.8428 27.5983 69.8467 27.6077C69.8506 27.617 69.8523 27.6272 69.8516 27.6373C69.852 27.6458 69.8506 27.6543 69.8476 27.6622C69.8446 27.6702 69.84 27.6774 69.8341 27.6834C69.8196 27.6969 69.8011 27.705 69.7816 27.7064L69.8541 27.7909H69.7966L69.729 27.7064H69.7065V27.7909H69.6589V27.5657L69.764 27.5631ZM69.709 27.6066V27.668H69.764C69.7738 27.671 69.7843 27.671 69.7941 27.668C69.7958 27.6645 69.7967 27.6605 69.7967 27.6565C69.7967 27.6525 69.7958 27.6486 69.7941 27.645C69.7958 27.6414 69.7967 27.6375 69.7967 27.6335C69.7967 27.6295 69.7958 27.6255 69.7941 27.622C69.7843 27.619 69.7738 27.619 69.764 27.622L69.709 27.6066ZM66.9562 26.5676C66.9645 26.4236 67.0138 26.2852 67.098 26.1695C67.1822 26.0538 67.2977 25.9658 67.4303 25.9164C67.5628 25.8669 67.7066 25.8582 67.8439 25.8912C67.9812 25.9243 68.1061 25.9977 68.2031 26.1024C68.3001 26.2071 68.3651 26.3386 68.39 26.4805C68.4149 26.6225 68.3987 26.7689 68.3433 26.9015C68.2879 27.0342 68.1958 27.1474 68.0783 27.2272C67.9608 27.307 67.823 27.35 67.6819 27.3507C67.5828 27.352 67.4846 27.3323 67.3933 27.2928C67.302 27.2534 67.2197 27.1951 67.1515 27.1215C67.0833 27.048 67.0308 26.9608 66.9972 26.8655C66.9636 26.7701 66.9496 26.6687 66.9562 26.5676V26.5676ZM49.3807 26.5676V25.3444H48.8602V25.6412C48.7718 25.5249 48.6576 25.4318 48.5271 25.3695C48.3965 25.3072 48.2534 25.2775 48.1094 25.283C47.7776 25.283 47.4593 25.4178 47.2247 25.6577C46.99 25.8977 46.8582 26.2232 46.8582 26.5625C46.8582 26.9019 46.99 27.2273 47.2247 27.4673C47.4593 27.7072 47.7776 27.8421 48.1094 27.8421C48.2534 27.8475 48.3965 27.8178 48.5271 27.7555C48.6576 27.6932 48.7718 27.6001 48.8602 27.4838V27.7806H49.3807V26.5676ZM47.4438 26.5676C47.4521 26.4236 47.5014 26.2852 47.5856 26.1695C47.6698 26.0538 47.7853 25.9658 47.9179 25.9164C48.0504 25.8669 48.1942 25.8582 48.3315 25.8912C48.4688 25.9243 48.5937 25.9977 48.6907 26.1024C48.7877 26.2071 48.8527 26.3386 48.8776 26.4805C48.9025 26.6225 48.8863 26.7689 48.8309 26.9015C48.7755 27.0342 48.6834 27.1474 48.5659 27.2272C48.4483 27.307 48.3106 27.35 48.1695 27.3507C48.07 27.3527 47.9712 27.3335 47.8793 27.2944C47.7874 27.2553 47.7045 27.1971 47.6358 27.1234C47.5671 27.0498 47.5141 26.9624 47.4802 26.8667C47.4462 26.771 47.4321 26.6692 47.4388 26.5676H47.4438Z" fill="#231F20"/>
<path d="M60.2053 6.85657H52.3223V21.3436H60.2053V6.85657Z" fill="#FF5F00"/>
<path d="M52.8235 14.1021C52.8221 12.7067 53.1311 11.3292 53.7273 10.074C54.3235 8.81884 55.1911 7.71883 56.2645 6.85729C54.9355 5.78918 53.3393 5.12498 51.6586 4.94062C49.9778 4.75625 48.2802 5.05915 46.7599 5.81469C45.2395 6.57024 43.9576 7.74794 43.0609 9.21321C42.1641 10.6785 41.6885 12.3722 41.6885 14.1008C41.6885 15.8294 42.1641 17.5231 43.0609 18.9884C43.9576 20.4536 45.2395 21.6313 46.7599 22.3869C48.2802 23.1424 49.9778 23.4453 51.6586 23.2609C53.3393 23.0766 54.9355 22.4124 56.2645 21.3443C55.1914 20.483 54.324 19.3834 53.7278 18.1287C53.1317 16.874 52.8224 15.497 52.8235 14.1021V14.1021Z" fill="#EB001B"/>
<path d="M70.5774 14.1011C70.5773 15.8298 70.1017 17.5236 69.2047 18.9889C68.3077 20.4542 67.0257 21.6319 65.5051 22.3874C63.9846 23.1428 62.2868 23.4455 60.606 23.2609C58.9251 23.0762 57.329 22.4117 56 21.3433C57.0727 20.4812 57.9399 19.3813 58.5362 18.1265C59.1325 16.8718 59.4423 15.4949 59.4423 14.0998C59.4423 12.7047 59.1325 11.3278 58.5362 10.073C57.9399 8.81823 57.0727 7.71832 56 6.85627C57.329 5.78783 58.9251 5.12332 60.606 4.93869C62.2868 4.75405 63.9846 5.05676 65.5051 5.81219C67.0257 6.56763 68.3077 7.74532 69.2047 9.21064C70.1017 10.676 70.5773 12.3698 70.5774 14.0985V14.1011Z" fill="#F79E1B"/>
<path d="M69.981 19.8086V19.5117H70.0986V19.4503H69.8008V19.5117H69.9284V19.8086H69.981ZM70.5591 19.8086V19.4503H70.469L70.3639 19.7062L70.2587 19.4503H70.1787V19.8086H70.2437V19.5399L70.3413 19.7728H70.4089L70.5065 19.5399V19.8111L70.5591 19.8086Z" fill="#F79E1B"/>
</g>
</g>
<path d="M106.084 7.99951H85.1888C85.1017 7.99951 85.0145 7.99951 84.9277 8.00001C84.8542 8.00052 84.781 8.00132 84.7077 8.00329C84.5479 8.00753 84.3868 8.01679 84.229 8.04463C84.0687 8.07295 83.9195 8.11916 83.774 8.19191C83.6309 8.26334 83.5 8.35678 83.3864 8.46827C83.2729 8.57976 83.1777 8.70815 83.105 8.84877C83.0309 8.99166 82.9838 9.13817 82.9551 9.29568C82.9266 9.45065 82.9171 9.60884 82.9128 9.76556C82.9109 9.83749 82.91 9.90942 82.9095 9.98134C82.909 10.0668 82.9092 10.1522 82.9092 10.2379V21.7613C82.9092 21.847 82.909 21.9322 82.9095 22.0179C82.91 22.0898 82.9109 22.1617 82.9128 22.2336C82.9171 22.3902 82.9266 22.5484 82.9551 22.7033C82.9838 22.8609 83.0309 23.0074 83.105 23.1503C83.1777 23.2909 83.2729 23.4194 83.3864 23.5308C83.5 23.6424 83.6309 23.7359 83.774 23.8071C83.9195 23.8801 84.0687 23.9263 84.229 23.9546C84.3868 23.9823 84.5479 23.9917 84.7077 23.9959C84.781 23.9975 84.8542 23.9985 84.9277 23.9988C85.0145 23.9995 85.1017 23.9995 85.1888 23.9995H106.084C106.171 23.9995 106.258 23.9995 106.345 23.9988C106.418 23.9985 106.492 23.9975 106.565 23.9959C106.725 23.9917 106.886 23.9823 107.044 23.9546C107.204 23.9263 107.353 23.8801 107.499 23.8071C107.642 23.7359 107.773 23.6424 107.886 23.5308C108 23.4194 108.095 23.2909 108.168 23.1503C108.242 23.0074 108.289 22.8609 108.318 22.7033C108.346 22.5484 108.355 22.3902 108.36 22.2336C108.362 22.1617 108.363 22.0898 108.363 22.0179C108.364 21.9322 108.364 21.847 108.364 21.7613V10.2379C108.364 10.1522 108.364 10.0668 108.363 9.98134C108.363 9.90942 108.362 9.83749 108.36 9.76556C108.355 9.60884 108.346 9.45065 108.318 9.29568C108.289 9.13817 108.242 8.99166 108.168 8.84877C108.095 8.70815 108 8.57976 107.886 8.46827C107.773 8.35678 107.642 8.26334 107.499 8.19191C107.353 8.11916 107.204 8.07295 107.044 8.04463C106.886 8.01679 106.725 8.00753 106.565 8.00329C106.492 8.00132 106.418 8.00052 106.345 8.00001C106.258 7.99951 106.171 7.99951 106.084 7.99951Z" fill="black"/>
<path d="M106.085 8.53271L106.342 8.5332C106.412 8.53368 106.481 8.53442 106.551 8.53629C106.673 8.53952 106.816 8.546 106.948 8.56938C107.064 8.58979 107.161 8.62083 107.254 8.66728C107.345 8.71305 107.429 8.77302 107.503 8.84497C107.576 8.9174 107.638 9.00005 107.685 9.09112C107.732 9.18164 107.763 9.27625 107.784 9.39043C107.808 9.51941 107.814 9.65968 107.818 9.78001C107.819 9.84792 107.82 9.91584 107.821 9.98537C107.821 10.0695 107.821 10.1535 107.821 10.2378V21.7612C107.821 21.8455 107.821 21.9294 107.821 22.0153C107.82 22.0832 107.819 22.1511 107.818 22.2191C107.814 22.3393 107.808 22.4794 107.784 22.61C107.763 22.7226 107.732 22.8172 107.685 22.9082C107.637 22.999 107.576 23.0816 107.503 23.1535C107.429 23.226 107.345 23.2858 107.253 23.332C107.16 23.3782 107.064 23.4092 106.949 23.4294C106.814 23.4531 106.665 23.4597 106.554 23.4626C106.483 23.4642 106.413 23.4651 106.342 23.4655C106.256 23.4661 106.17 23.4661 106.085 23.4661H85.1895C85.1884 23.4661 85.1873 23.4661 85.1861 23.4661C85.1016 23.4661 85.017 23.4661 84.9309 23.4654C84.8608 23.4651 84.7908 23.4642 84.7232 23.4627C84.6088 23.4597 84.4603 23.4532 84.3259 23.4296C84.2106 23.4092 84.1139 23.3782 84.0205 23.3314C83.9285 23.2856 83.8448 23.2259 83.771 23.1533C83.6977 23.0815 83.6369 22.9992 83.5898 22.9082C83.5427 22.8173 83.5111 22.7224 83.4904 22.6084C83.4664 22.4782 83.4599 22.3385 83.4566 22.2192C83.4547 22.1509 83.4539 22.0826 83.4535 22.0147L83.4531 21.8142L83.4531 21.7612V10.2378L83.4531 10.1848L83.4534 9.98474C83.4539 9.91642 83.4547 9.84811 83.4566 9.77984C83.4599 9.66039 83.4664 9.52069 83.4906 9.38936C83.5111 9.27643 83.5427 9.18152 83.59 9.09018C83.6367 8.9999 83.6977 8.91749 83.7714 8.8452C83.8447 8.77314 83.9287 8.71324 84.0212 8.66704C84.1137 8.62082 84.2105 8.58979 84.3258 8.56942C84.4586 8.54599 84.6012 8.53952 84.7233 8.53628C84.7929 8.53442 84.8625 8.53368 84.9316 8.53321L85.1895 8.53271H106.085" fill="white"/>
<path d="M89.8584 13.3805C90.0764 13.1129 90.2243 12.7535 90.1853 12.3862C89.8662 12.4018 89.4769 12.5929 89.2515 12.8608C89.0491 13.0902 88.87 13.4646 88.9167 13.8164C89.2748 13.8469 89.6326 13.6407 89.8584 13.3805Z" fill="black"/>
<path d="M90.1809 13.8855C89.6607 13.855 89.2185 14.1753 88.9701 14.1753C88.7216 14.1753 88.3413 13.9008 87.9299 13.9082C87.3944 13.9159 86.8976 14.2132 86.6259 14.6859C86.067 15.6317 86.4784 17.0346 87.0219 17.8048C87.2858 18.1859 87.6039 18.6055 88.023 18.5904C88.419 18.5752 88.5742 18.3387 89.0555 18.3387C89.5365 18.3387 89.6763 18.5904 90.0955 18.5828C90.5302 18.5752 90.8019 18.2015 91.0659 17.8201C91.3686 17.3857 91.4926 16.9662 91.5004 16.9432C91.4926 16.9356 90.6622 16.6228 90.6545 15.6849C90.6466 14.8996 91.3064 14.526 91.3375 14.5029C90.9649 13.9618 90.3827 13.9008 90.1809 13.8855Z" fill="black"/>
<path d="M94.7097 12.8221C95.8401 12.8221 96.6273 13.5872 96.6273 14.7012C96.6273 15.8191 95.824 16.5881 94.6813 16.5881H93.4297V18.5425H92.5254V12.8221H94.7097V12.8221ZM93.4297 15.8428H94.4673C95.2547 15.8428 95.7028 15.4266 95.7028 14.7051C95.7028 13.9837 95.2547 13.5714 94.4714 13.5714H93.4297V15.8428V15.8428Z" fill="black"/>
<path d="M96.8633 17.3576C96.8633 16.6282 97.4326 16.1802 98.442 16.1247L99.6047 16.0574V15.7363C99.6047 15.2725 99.2857 14.995 98.7529 14.995C98.2481 14.995 97.9332 15.2328 97.8565 15.6055H97.0329C97.0813 14.8522 97.7353 14.2972 98.7851 14.2972C99.8147 14.2972 100.473 14.8324 100.473 15.6688V18.5429H99.6369V17.8571H99.6169C99.3706 18.3209 98.8336 18.6142 98.2764 18.6142C97.4447 18.6142 96.8633 18.1068 96.8633 17.3576ZM99.6047 16.981V16.652L98.559 16.7154C98.0381 16.7511 97.7434 16.9771 97.7434 17.3338C97.7434 17.6985 98.0503 17.9364 98.5186 17.9364C99.1283 17.9364 99.6047 17.5241 99.6047 16.981Z" fill="black"/>
<path d="M101.263 20.0768V19.383C101.327 19.3989 101.472 19.3989 101.545 19.3989C101.949 19.3989 102.167 19.2324 102.3 18.8043C102.3 18.7963 102.377 18.5506 102.377 18.5466L100.843 14.3723H101.787L102.862 17.7657H102.878L103.952 14.3723H104.872L103.281 18.7606C102.918 19.7716 102.498 20.0966 101.618 20.0966C101.545 20.0966 101.327 20.0887 101.263 20.0768Z" fill="black"/>
<path d="M147.134 22.3734H124.866C122.72 22.3734 121 20.6348 121 18.5078V13.8654C121 11.7199 122.739 9.9998 124.866 9.9998H147.134C149.28 9.9998 151 11.7384 151 13.8654V18.5078C151 20.6348 149.28 22.3734 147.134 22.3734V22.3734Z" fill="#5AFEAE"/>
<path d="M145.599 13.9768L144.064 19.8399V19.8584H145.267L146.802 13.9953H145.599V13.9768ZM126.623 17.306C126.438 17.3985 126.253 17.4355 126.05 17.4355C125.624 17.4355 125.384 17.3615 125.347 17.0101V16.9916C125.347 16.9731 125.347 16.9731 125.347 16.9546V15.9373V15.8263V15.105V14.8091V14.6981V14.0138L124.274 14.1432C124.995 13.9953 125.402 13.4404 125.402 12.867V12.5156H124.2V14.1617L124.126 14.1802V17.2135C124.163 18.0643 124.736 18.5822 125.643 18.5822C125.976 18.5822 126.327 18.5082 126.604 18.3787L126.623 17.306Z" fill="#292929"/>
<path d="M126.808 13.755L123.441 14.2728V15.1236L126.808 14.6058V13.755ZM126.808 15.0127L123.441 15.5306V16.3444L126.808 15.8265V15.0127ZM130.581 15.4011C130.525 14.4578 129.933 13.8844 128.972 13.8844C128.417 13.8844 127.954 14.1064 127.64 14.5133C127.325 14.9202 127.159 15.5121 127.159 16.2334C127.159 16.9547 127.325 17.5466 127.64 17.9535C127.954 18.3604 128.417 18.5638 128.972 18.5638C129.933 18.5638 130.525 18.009 130.581 17.0472V18.4714H131.783V13.9954L130.581 14.1804V15.4011V15.4011ZM130.655 16.2334C130.655 17.0657 130.211 17.6206 129.526 17.6206C128.824 17.6206 128.398 17.1027 128.398 16.2334C128.398 15.3641 128.824 14.8462 129.526 14.8462C129.859 14.8462 130.155 14.9757 130.359 15.2346C130.544 15.4751 130.655 15.8265 130.655 16.2334V16.2334ZM135.279 13.8844C134.317 13.8844 133.725 14.4393 133.67 15.4011V12.6822L132.467 12.8672V18.4714H133.67V17.0472C133.725 18.009 134.317 18.5638 135.279 18.5638C136.407 18.5638 137.091 17.6945 137.091 16.2334C137.091 14.7722 136.407 13.8844 135.279 13.8844V13.8844ZM134.742 17.6206C134.058 17.6206 133.614 17.0842 133.614 16.2334C133.614 15.8265 133.725 15.4751 133.91 15.2346C134.113 14.9757 134.391 14.8462 134.742 14.8462C135.445 14.8462 135.871 15.3641 135.871 16.2334C135.871 17.1027 135.445 17.6206 134.742 17.6206ZM140.346 13.8844C139.385 13.8844 138.793 14.4393 138.737 15.4011V12.6822L137.535 12.8672V18.4714H138.737V17.0472C138.793 18.009 139.385 18.5638 140.346 18.5638C141.475 18.5638 142.159 17.6945 142.159 16.2334C142.159 14.7722 141.475 13.8844 140.346 13.8844V13.8844ZM139.81 17.6206C139.126 17.6206 138.682 17.0842 138.682 16.2334C138.682 15.8265 138.793 15.4751 138.978 15.2346C139.181 14.9757 139.459 14.8462 139.81 14.8462C140.513 14.8462 140.938 15.3641 140.938 16.2334C140.938 17.1027 140.513 17.6206 139.81 17.6206ZM142.159 13.9769H143.435L144.471 18.4714H143.324L142.159 13.9769ZM147.782 14.4393V14.0879H147.634V14.0139H148.022V14.0879H147.874V14.4393H147.782ZM148.041 14.4393V13.9954H148.189L148.263 14.1989C148.281 14.2543 148.3 14.2728 148.3 14.2913C148.3 14.2728 148.318 14.2543 148.337 14.1989L148.411 13.9954H148.559V14.4393H148.466V14.0879L148.337 14.4393H148.244L148.133 14.0879V14.4393H148.041V14.4393Z" fill="#292929"/>
<path d="M181.544 18.2118C181.447 18.0425 181.316 17.8942 181.159 17.7757C181.003 17.6572 180.824 17.5708 180.634 17.5216C180.443 17.4723 180.244 17.4613 180.05 17.4891C179.855 17.5168 179.667 17.5829 179.498 17.6833V17.6833L176.296 19.5318C176.212 19.1995 176.017 18.9051 175.742 18.6971C175.467 18.4891 175.129 18.3798 174.783 18.3872H170.958L170.869 18.2995C169.978 17.6973 168.924 17.3752 167.845 17.3752C166.766 17.3752 165.712 17.6973 164.82 18.2995V17.8595C164.811 17.7224 164.752 17.5932 164.654 17.4961C164.556 17.3989 164.425 17.3403 164.286 17.3311H161.262C161.123 17.3403 160.993 17.3989 160.895 17.4961C160.797 17.5932 160.737 17.7224 160.728 17.8595V23.8455C160.725 23.9157 160.737 23.9858 160.763 24.0512C160.788 24.1167 160.828 24.1761 160.878 24.2258C160.928 24.2755 160.988 24.3143 161.054 24.3398C161.12 24.3653 161.191 24.3769 161.262 24.374H164.286C164.425 24.3648 164.556 24.3061 164.654 24.2089C164.752 24.1118 164.811 23.9826 164.82 23.8455V23.7578L165.265 24.1087C165.499 24.2741 165.778 24.366 166.066 24.3726H173.539C173.785 24.3662 174.027 24.3061 174.248 24.1964L181.009 20.3227C181.354 20.1045 181.601 19.7641 181.7 19.3712C181.8 18.9783 181.743 18.5627 181.543 18.2097L181.544 18.2118ZM163.752 23.2301H161.706V18.2118H163.752V23.2301ZM180.476 19.3563L173.715 23.2301C173.68 23.2634 173.638 23.2886 173.592 23.3037C173.546 23.3189 173.497 23.3237 173.449 23.3178H166.065C166.017 23.3237 165.968 23.3189 165.922 23.3037C165.876 23.2886 165.833 23.2634 165.798 23.2301L164.731 22.5283V19.3563C164.779 19.3623 164.828 19.3575 164.874 19.3423C164.921 19.3271 164.963 19.3019 164.998 19.2686L165.264 19.0925C166.007 18.6184 166.872 18.3662 167.755 18.3662C168.639 18.3662 169.504 18.6184 170.246 19.0925L170.424 19.2686C170.459 19.3019 170.501 19.3271 170.547 19.3423C170.594 19.3575 170.643 19.3623 170.691 19.3563H174.697C174.826 19.3477 174.952 19.3891 175.05 19.4716C175.147 19.5541 175.209 19.6711 175.22 19.7977C175.232 19.9242 175.193 20.0503 175.112 20.1488C175.031 20.2473 174.914 20.3105 174.786 20.3248H171.577C171.439 20.334 171.308 20.3926 171.21 20.4898C171.112 20.587 171.053 20.7161 171.043 20.8532C171.04 20.9234 171.052 20.9934 171.078 21.0589C171.104 21.1244 171.143 21.1838 171.193 21.2335C171.243 21.2832 171.303 21.322 171.369 21.3475C171.436 21.373 171.506 21.3846 171.577 21.3816H174.602C174.955 21.3589 175.294 21.2372 175.58 21.0308L179.764 18.6539C179.868 18.5843 179.994 18.5533 180.119 18.5662C180.188 18.5702 180.254 18.5993 180.303 18.6479C180.352 18.6965 180.381 18.7613 180.385 18.83C180.419 18.8647 180.445 18.9064 180.46 18.952C180.475 18.9977 180.48 19.0461 180.474 19.0939C180.741 19.0939 180.652 19.27 180.474 19.3577L180.476 19.3563Z" fill="#195190"/>
<path d="M181.545 8.44057H165.977C165.906 8.4376 165.835 8.44923 165.769 8.47473C165.703 8.50023 165.643 8.53905 165.593 8.58872C165.542 8.6384 165.503 8.69785 165.477 8.76331C165.452 8.82877 165.44 8.89881 165.443 8.969V16.0996C165.452 16.2367 165.511 16.3659 165.61 16.463C165.708 16.5602 165.838 16.6188 165.977 16.6281H181.545C181.683 16.6188 181.814 16.5602 181.912 16.463C182.01 16.3659 182.069 16.2367 182.079 16.0996V8.88058C182.066 8.75268 182.002 8.63496 181.902 8.5527C181.803 8.47044 181.674 8.43018 181.545 8.44057V8.44057Z" fill="#195190"/>
<path d="M173.627 16.0988C175.592 16.0988 177.185 14.5222 177.185 12.5774C177.185 10.6325 175.592 9.05591 173.627 9.05591C171.662 9.05591 170.068 10.6325 170.068 12.5774C170.068 14.5222 171.662 16.0988 173.627 16.0988Z" fill="white"/>
<path d="M173.626 11.2572C173.686 11.2538 173.745 11.2628 173.801 11.2837C173.856 11.3045 173.907 11.3368 173.949 11.3784C173.991 11.42 174.023 11.4699 174.044 11.5248C174.065 11.5798 174.075 11.6386 174.071 11.6972V11.785H174.96C174.957 11.5142 174.87 11.251 174.711 11.0306C174.552 10.8103 174.329 10.6435 174.071 10.5527V9.93652H173.182V10.465C172.857 10.5893 172.593 10.8321 172.444 11.1434C172.295 11.4547 172.273 11.8107 172.381 12.138C172.458 12.3783 172.613 12.5865 172.822 12.7299C173.032 12.8733 173.283 12.9438 173.538 12.9302C173.597 12.9268 173.656 12.9358 173.712 12.9567C173.767 12.9775 173.818 13.0098 173.86 13.0514C173.902 13.093 173.935 13.1429 173.956 13.1978C173.977 13.2528 173.986 13.3116 173.982 13.3703V13.3703C173.982 13.487 173.935 13.5991 173.852 13.6816C173.769 13.7642 173.655 13.8106 173.537 13.8106C173.419 13.8106 173.306 13.7642 173.223 13.6816C173.139 13.5991 173.092 13.487 173.092 13.3703H172.203C172.206 13.641 172.293 13.9043 172.452 14.1246C172.611 14.3449 172.835 14.5117 173.092 14.6026V15.1296H173.982V14.6012C174.307 14.4768 174.571 14.234 174.72 13.9227C174.869 13.6114 174.891 13.2554 174.783 12.9281C174.706 12.6878 174.551 12.4796 174.342 12.3362C174.132 12.1928 173.881 12.1223 173.626 12.1359C173.567 12.1393 173.508 12.1303 173.452 12.1094C173.397 12.0886 173.346 12.0563 173.304 12.0147C173.262 11.9731 173.23 11.9232 173.208 11.8683C173.187 11.8133 173.178 11.7545 173.182 11.6958C173.182 11.432 173.36 11.1674 173.626 11.2558V11.2572Z" fill="#195190"/>
<path d="M186.525 24.7261C186.466 24.7295 186.407 24.7205 186.351 24.6996C186.296 24.6788 186.245 24.6465 186.203 24.6049C186.161 24.5633 186.129 24.5134 186.108 24.4585C186.086 24.4035 186.077 24.3447 186.081 24.2861V8.43952C186.081 8.32282 186.128 8.2109 186.211 8.12839C186.294 8.04587 186.408 7.99951 186.525 7.99951C186.643 7.99951 186.756 8.04587 186.84 8.12839C186.923 8.2109 186.97 8.32282 186.97 8.43952V24.2861C186.963 24.4003 186.913 24.508 186.832 24.5889C186.75 24.6699 186.641 24.7186 186.525 24.7261V24.7261Z" fill="#195190"/>
<path d="M190.529 11.3445C190.548 10.827 190.731 10.3284 191.052 9.91945C191.373 9.51046 191.816 9.21177 192.318 9.06568C192.82 8.91959 193.355 8.93351 193.849 9.10546C194.343 9.27741 194.769 9.59868 195.068 10.0238C195.14 10.1589 195.17 10.3117 195.156 10.4638C195.156 10.6399 194.978 10.9038 194.802 10.9038C194.625 10.9038 194.535 10.8161 194.357 10.5529C194.233 10.3159 194.039 10.122 193.8 9.99666C193.562 9.87135 193.291 9.8206 193.023 9.85113C192.812 9.85029 192.604 9.89071 192.409 9.97005C192.214 10.0494 192.037 10.1661 191.889 10.3134C191.74 10.4607 191.622 10.6357 191.542 10.8283C191.461 11.021 191.421 11.2274 191.421 11.4357V13.1964C191.413 13.4068 191.449 13.6165 191.526 13.8125C191.604 14.0085 191.721 14.1865 191.872 14.3354C192.022 14.4842 192.202 14.6006 192.4 14.6773C192.598 14.754 192.81 14.7893 193.023 14.781C193.311 14.7961 193.599 14.7296 193.851 14.5893C194.103 14.4491 194.309 14.2408 194.446 13.9887C194.535 13.8126 194.624 13.6378 194.891 13.6378C194.95 13.6344 195.009 13.6434 195.065 13.6643C195.12 13.6851 195.171 13.7174 195.213 13.759C195.255 13.8006 195.287 13.8505 195.308 13.9054C195.33 13.9604 195.339 14.0192 195.335 14.0779C195.317 14.265 195.256 14.4456 195.157 14.6063C194.924 14.9451 194.602 15.2144 194.226 15.3852C193.85 15.5559 193.433 15.6214 193.022 15.5747C192.698 15.5925 192.373 15.5439 192.069 15.432C191.764 15.32 191.486 15.147 191.252 14.9239C191.019 14.7009 190.834 14.4324 190.71 14.1354C190.585 13.8384 190.525 13.5192 190.531 13.1978V11.3445H190.529Z" fill="#195190"/>
<path d="M199.96 13.7219H197.202L196.757 14.9542C196.669 15.2181 196.579 15.3051 196.313 15.3051C196.207 15.3156 196.101 15.2848 196.018 15.2192C195.935 15.1537 195.881 15.0586 195.868 14.9542C195.874 14.8326 195.904 14.7133 195.957 14.6033L197.914 9.4973C198.092 9.14642 198.269 8.96887 198.623 8.96887C198.978 8.96887 199.157 9.14501 199.332 9.4973L201.29 14.6033C201.342 14.7133 201.373 14.8326 201.378 14.9542C201.365 15.0586 201.311 15.1537 201.228 15.2192C201.145 15.2848 201.039 15.3156 200.934 15.3051C200.83 15.3055 200.73 15.2709 200.649 15.2071C200.568 15.1433 200.512 15.0541 200.489 14.9542L199.96 13.7219ZM197.469 12.9296H199.604L198.537 10.2005H198.448L197.469 12.9296Z" fill="#195190"/>
<path d="M202.895 10.7288C202.895 12.0495 206.542 11.4306 206.542 13.5457C206.542 14.5141 205.653 15.3941 204.14 15.3941C203.732 15.4159 203.324 15.3392 202.952 15.1705C202.58 15.0018 202.255 14.7462 202.005 14.4257C201.906 14.265 201.846 14.0844 201.827 13.8973C201.835 13.783 201.884 13.6754 201.966 13.5944C202.048 13.5134 202.156 13.4647 202.272 13.4573C202.538 13.4573 202.626 13.6334 202.716 13.8082C202.839 14.0719 203.042 14.2906 203.298 14.4329C203.554 14.5753 203.848 14.6339 204.14 14.6004C205.118 14.6004 205.652 14.072 205.652 13.5443C205.652 12.2236 202.005 12.8425 202.005 10.7274C202.005 9.75897 202.806 8.96668 204.14 8.96668C204.544 8.95368 204.945 9.04406 205.303 9.22907C205.662 9.41409 205.966 9.68749 206.186 10.0228C206.275 10.199 206.364 10.2867 206.364 10.4628C206.357 10.5771 206.308 10.6848 206.226 10.7657C206.144 10.8467 206.035 10.8954 205.92 10.9029C205.653 10.9029 205.653 10.8151 205.475 10.552C205.351 10.315 205.156 10.121 204.918 9.99573C204.68 9.87042 204.408 9.81967 204.14 9.8502C203.34 9.76038 202.895 10.2004 202.895 10.7288Z" fill="#195190"/>
<path d="M212.502 14.9542C212.479 15.0539 212.423 15.143 212.342 15.2068C212.261 15.2706 212.161 15.3054 212.058 15.3054C211.954 15.3054 211.854 15.2706 211.773 15.2068C211.692 15.143 211.636 15.0539 211.613 14.9542V12.5773H208.588V14.9542C208.566 15.0539 208.509 15.143 208.428 15.2068C208.348 15.2706 208.247 15.3054 208.144 15.3054C208.04 15.3054 207.94 15.2706 207.859 15.2068C207.779 15.143 207.722 15.0539 207.699 14.9542V9.40674C207.722 9.307 207.779 9.21792 207.859 9.15411C207.94 9.0903 208.04 9.05554 208.144 9.05554C208.247 9.05554 208.348 9.0903 208.428 9.15411C208.509 9.21792 208.566 9.307 208.588 9.40674V11.6959H211.613V9.40674C211.636 9.307 211.692 9.21792 211.773 9.15411C211.854 9.0903 211.954 9.05554 212.058 9.05554C212.161 9.05554 212.261 9.0903 212.342 9.15411C212.423 9.21792 212.479 9.307 212.502 9.40674V14.9542Z" fill="#195190"/>
<path d="M221.22 13.1087C221.226 13.4301 221.165 13.7493 221.041 14.0463C220.917 14.3433 220.732 14.6117 220.498 14.8348C220.264 15.0579 219.987 15.2309 219.682 15.3428C219.378 15.4548 219.053 15.5034 218.729 15.4856C218.403 15.5108 218.075 15.4673 217.767 15.3579C217.46 15.2486 217.179 15.0759 216.944 14.8513C216.708 14.6267 216.524 14.3552 216.402 14.0549C216.281 13.7545 216.225 13.432 216.238 13.1087V11.3452C216.232 11.0238 216.293 10.7046 216.417 10.4076C216.541 10.1106 216.726 9.84217 216.96 9.61907C217.194 9.39597 217.472 9.22303 217.776 9.11105C218.081 8.99907 218.405 8.95048 218.73 8.9683C219.056 8.94301 219.383 8.98644 219.691 9.09573C219.999 9.20502 220.28 9.37767 220.515 9.6023C220.751 9.82693 220.935 10.0984 221.057 10.3989C221.179 10.6993 221.234 11.0218 221.221 11.3452L221.22 13.1087ZM220.331 11.348C220.332 11.1397 220.291 10.9332 220.211 10.7406C220.13 10.548 220.013 10.373 219.864 10.2257C219.715 10.0783 219.538 9.96166 219.343 9.88232C219.149 9.80298 218.94 9.76257 218.73 9.7634C218.517 9.7551 218.305 9.79042 218.107 9.86711C217.909 9.94381 217.729 10.0602 217.579 10.2091C217.428 10.3579 217.311 10.5359 217.233 10.7319C217.156 10.9279 217.12 11.1377 217.128 11.348V13.1087C217.127 13.317 217.168 13.5235 217.248 13.7161C217.329 13.9087 217.447 14.0837 217.595 14.231C217.744 14.3784 217.921 14.495 218.116 14.5744C218.31 14.6537 218.519 14.6941 218.73 14.6933C218.942 14.7016 219.154 14.6663 219.352 14.5896C219.55 14.5129 219.73 14.3965 219.88 14.2476C220.031 14.0988 220.149 13.9208 220.226 13.7248C220.304 13.5288 220.339 13.319 220.331 13.1087V11.348Z" fill="#195190"/>
<path d="M223.444 10.6407V14.9544C223.421 15.0541 223.365 15.1432 223.284 15.207C223.203 15.2708 223.103 15.3056 222.999 15.3056C222.896 15.3056 222.796 15.2708 222.715 15.207C222.634 15.1432 222.578 15.0541 222.555 14.9544V9.49608C222.555 9.23222 222.733 9.05607 223.089 9.05607C223.202 9.05869 223.312 9.09304 223.407 9.15513C223.501 9.21723 223.576 9.30454 223.623 9.40695L226.469 13.7207V9.40695C226.492 9.30686 226.548 9.21738 226.629 9.15326C226.71 9.08914 226.811 9.0542 226.914 9.0542C227.018 9.0542 227.118 9.08914 227.199 9.15326C227.28 9.21738 227.337 9.30686 227.359 9.40695V14.8667C227.359 15.1305 227.181 15.3067 226.825 15.3067C226.703 15.2935 226.584 15.2555 226.477 15.1952C226.37 15.1348 226.277 15.0533 226.203 14.9558L223.445 10.6421L223.444 10.6407Z" fill="#195190"/>
<path d="M190.529 11.3445C190.548 10.827 190.731 10.3284 191.052 9.91945C191.373 9.51046 191.816 9.21177 192.318 9.06568C192.82 8.91959 193.355 8.93351 193.849 9.10546C194.343 9.27741 194.769 9.59868 195.068 10.0238C195.14 10.1589 195.17 10.3117 195.156 10.4638C195.156 10.6399 194.978 10.9038 194.802 10.9038C194.625 10.9038 194.535 10.8161 194.357 10.5529C194.233 10.3159 194.039 10.122 193.8 9.99666C193.562 9.87135 193.291 9.8206 193.023 9.85113C192.812 9.85029 192.604 9.89071 192.409 9.97005C192.214 10.0494 192.037 10.1661 191.889 10.3134C191.74 10.4607 191.622 10.6357 191.542 10.8283C191.461 11.021 191.421 11.2274 191.421 11.4357V13.1964C191.413 13.4068 191.449 13.6165 191.526 13.8125C191.604 14.0085 191.721 14.1865 191.872 14.3354C192.022 14.4842 192.202 14.6006 192.4 14.6773C192.598 14.754 192.81 14.7893 193.023 14.781C193.311 14.7961 193.599 14.7296 193.851 14.5893C194.103 14.4491 194.309 14.2408 194.446 13.9887C194.535 13.8126 194.624 13.6378 194.891 13.6378C194.95 13.6344 195.009 13.6434 195.065 13.6643C195.12 13.6851 195.171 13.7174 195.213 13.759C195.255 13.8006 195.287 13.8505 195.308 13.9054C195.33 13.9604 195.339 14.0192 195.335 14.0779C195.317 14.265 195.256 14.4456 195.157 14.6063C194.924 14.9451 194.602 15.2144 194.226 15.3852C193.85 15.5559 193.433 15.6214 193.022 15.5747C192.698 15.5925 192.373 15.5439 192.069 15.432C191.764 15.32 191.486 15.147 191.252 14.9239C191.019 14.7009 190.834 14.4324 190.71 14.1354C190.585 13.8384 190.525 13.5192 190.531 13.1978V11.3445H190.529Z" stroke="#195190" stroke-width="0.176136" stroke-miterlimit="10"/>
<path d="M199.96 13.7219H197.202L196.757 14.9542C196.669 15.2181 196.579 15.3051 196.313 15.3051C196.207 15.3156 196.101 15.2848 196.018 15.2192C195.935 15.1537 195.881 15.0586 195.868 14.9542C195.874 14.8326 195.904 14.7133 195.957 14.6033L197.914 9.4973C198.092 9.14642 198.269 8.96887 198.623 8.96887C198.978 8.96887 199.157 9.14501 199.332 9.4973L201.29 14.6033C201.342 14.7133 201.373 14.8326 201.378 14.9542C201.365 15.0586 201.311 15.1537 201.228 15.2192C201.145 15.2848 201.039 15.3156 200.934 15.3051C200.83 15.3055 200.73 15.2709 200.649 15.2071C200.568 15.1433 200.512 15.0541 200.489 14.9542L199.96 13.7219ZM197.469 12.9296H199.604L198.537 10.2005H198.448L197.469 12.9296Z" stroke="#195190" stroke-width="0.176136" stroke-miterlimit="10"/>
<path d="M202.895 10.7288C202.895 12.0495 206.542 11.4306 206.542 13.5457C206.542 14.5141 205.653 15.3941 204.14 15.3941C203.732 15.4159 203.324 15.3392 202.952 15.1705C202.58 15.0018 202.255 14.7462 202.005 14.4257C201.906 14.265 201.846 14.0844 201.827 13.8973C201.835 13.783 201.884 13.6754 201.966 13.5944C202.048 13.5134 202.156 13.4647 202.272 13.4573C202.538 13.4573 202.626 13.6334 202.716 13.8082C202.839 14.0719 203.042 14.2906 203.298 14.4329C203.554 14.5753 203.848 14.6339 204.14 14.6004C205.118 14.6004 205.652 14.072 205.652 13.5443C205.652 12.2236 202.005 12.8425 202.005 10.7274C202.005 9.75897 202.806 8.96668 204.14 8.96668C204.544 8.95368 204.945 9.04406 205.303 9.22907C205.662 9.41409 205.966 9.68749 206.186 10.0228C206.275 10.199 206.364 10.2867 206.364 10.4628C206.357 10.5771 206.308 10.6848 206.226 10.7657C206.144 10.8467 206.035 10.8954 205.92 10.9029C205.653 10.9029 205.653 10.8151 205.475 10.552C205.351 10.315 205.156 10.121 204.918 9.99573C204.68 9.87042 204.408 9.81967 204.14 9.8502C203.34 9.76038 202.895 10.2004 202.895 10.7288Z" stroke="#195190" stroke-width="0.176136" stroke-miterlimit="10"/>
<path d="M212.502 14.9542C212.479 15.0539 212.423 15.143 212.342 15.2068C212.261 15.2706 212.161 15.3054 212.058 15.3054C211.954 15.3054 211.854 15.2706 211.773 15.2068C211.692 15.143 211.636 15.0539 211.613 14.9542V12.5773H208.588V14.9542C208.566 15.0539 208.509 15.143 208.428 15.2068C208.348 15.2706 208.247 15.3054 208.144 15.3054C208.04 15.3054 207.94 15.2706 207.859 15.2068C207.779 15.143 207.722 15.0539 207.699 14.9542V9.40674C207.722 9.307 207.779 9.21792 207.859 9.15411C207.94 9.0903 208.04 9.05554 208.144 9.05554C208.247 9.05554 208.348 9.0903 208.428 9.15411C208.509 9.21792 208.566 9.307 208.588 9.40674V11.6959H211.613V9.40674C211.636 9.307 211.692 9.21792 211.773 9.15411C211.854 9.0903 211.954 9.05554 212.058 9.05554C212.161 9.05554 212.261 9.0903 212.342 9.15411C212.423 9.21792 212.479 9.307 212.502 9.40674V14.9542Z" stroke="#195190" stroke-width="0.176136" stroke-miterlimit="10"/>
<path d="M221.22 13.1087C221.226 13.4301 221.165 13.7493 221.041 14.0463C220.917 14.3433 220.732 14.6117 220.498 14.8348C220.264 15.0579 219.987 15.2309 219.682 15.3428C219.378 15.4548 219.053 15.5034 218.729 15.4856C218.403 15.5108 218.075 15.4673 217.767 15.3579C217.46 15.2486 217.179 15.0759 216.944 14.8513C216.708 14.6267 216.524 14.3552 216.402 14.0549C216.281 13.7545 216.225 13.432 216.238 13.1087V11.3452C216.232 11.0238 216.293 10.7046 216.417 10.4076C216.541 10.1106 216.726 9.84217 216.96 9.61907C217.194 9.39597 217.472 9.22303 217.776 9.11105C218.081 8.99907 218.405 8.95048 218.73 8.9683C219.056 8.94301 219.383 8.98644 219.691 9.09573C219.999 9.20502 220.28 9.37767 220.515 9.6023C220.751 9.82693 220.935 10.0984 221.057 10.3989C221.179 10.6993 221.234 11.0218 221.221 11.3452L221.22 13.1087ZM220.331 11.348C220.332 11.1397 220.291 10.9332 220.211 10.7406C220.13 10.548 220.013 10.373 219.864 10.2257C219.715 10.0783 219.538 9.96166 219.343 9.88232C219.149 9.80298 218.94 9.76257 218.73 9.7634C218.517 9.7551 218.305 9.79042 218.107 9.86711C217.909 9.94381 217.729 10.0602 217.579 10.2091C217.428 10.3579 217.311 10.5359 217.233 10.7319C217.156 10.9279 217.12 11.1377 217.128 11.348V13.1087C217.127 13.317 217.168 13.5235 217.248 13.7161C217.329 13.9087 217.447 14.0837 217.595 14.231C217.744 14.3784 217.921 14.495 218.116 14.5744C218.31 14.6537 218.519 14.6941 218.73 14.6933C218.942 14.7016 219.154 14.6663 219.352 14.5896C219.55 14.5129 219.73 14.3965 219.88 14.2476C220.031 14.0988 220.149 13.9208 220.226 13.7248C220.304 13.5288 220.339 13.319 220.331 13.1087V11.348Z" stroke="#195190" stroke-width="0.176136" stroke-miterlimit="10"/>
<path d="M223.444 10.6407V14.9544C223.421 15.0541 223.365 15.1432 223.284 15.207C223.203 15.2708 223.103 15.3056 222.999 15.3056C222.896 15.3056 222.796 15.2708 222.715 15.207C222.634 15.1432 222.578 15.0541 222.555 14.9544V9.49608C222.555 9.23222 222.733 9.05607 223.089 9.05607C223.202 9.05869 223.312 9.09304 223.407 9.15513C223.501 9.21723 223.576 9.30454 223.623 9.40695L226.469 13.7207V9.40695C226.492 9.30686 226.548 9.21738 226.629 9.15326C226.71 9.08914 226.811 9.0542 226.914 9.0542C227.018 9.0542 227.118 9.08914 227.199 9.15326C227.28 9.21738 227.337 9.30686 227.359 9.40695V14.8667C227.359 15.1305 227.181 15.3067 226.825 15.3067C226.703 15.2935 226.584 15.2555 226.477 15.1952C226.37 15.1348 226.277 15.0533 226.203 14.9558L223.445 10.6421L223.444 10.6407Z" stroke="#195190" stroke-width="0.176136" stroke-miterlimit="10"/>
<path d="M195.423 20.5012C195.429 20.8226 195.368 21.1417 195.244 21.4387C195.12 21.7357 194.935 22.0042 194.701 22.2273C194.467 22.4504 194.189 22.6233 193.885 22.7353C193.58 22.8473 193.256 22.8959 192.932 22.8781H191.152C191.093 22.8815 191.034 22.8725 190.978 22.8516C190.923 22.8308 190.872 22.7985 190.83 22.7569C190.788 22.7153 190.756 22.6654 190.734 22.6105C190.713 22.5555 190.704 22.4967 190.708 22.438V17.0667C190.721 16.9624 190.775 16.8673 190.858 16.8017C190.941 16.7362 191.047 16.7053 191.152 16.7159H192.932C193.258 16.6906 193.585 16.734 193.893 16.8433C194.201 16.9526 194.482 17.1252 194.717 17.3499C194.953 17.5745 195.137 17.846 195.259 18.1464C195.381 18.4468 195.437 18.7694 195.423 19.0927V20.5012ZM191.598 17.5082V22.0858H192.932C193.145 22.0941 193.357 22.0587 193.555 21.982C193.753 21.9054 193.933 21.7889 194.083 21.6401C194.234 21.4913 194.351 21.3133 194.429 21.1173C194.506 20.9212 194.542 20.7115 194.534 20.5012V19.0927C194.534 18.8844 194.494 18.678 194.413 18.4854C194.333 18.2927 194.215 18.1177 194.066 17.9704C193.918 17.8231 193.741 17.7064 193.546 17.6271C193.351 17.5477 193.143 17.5073 192.932 17.5082H191.598Z" fill="#195190"/>
<path d="M197.736 17.5073V19.3558H199.96C200.019 19.3523 200.078 19.3613 200.134 19.3822C200.189 19.4031 200.24 19.4354 200.282 19.4769C200.324 19.5185 200.356 19.5684 200.378 19.6234C200.399 19.6783 200.408 19.7371 200.404 19.7958C200.404 20.0596 200.226 20.1467 199.96 20.1467H197.736V22.0835H200.938C201.044 22.073 201.15 22.1038 201.233 22.1694C201.316 22.235 201.37 22.3301 201.383 22.4344C201.375 22.5487 201.326 22.6563 201.244 22.7373C201.162 22.8183 201.054 22.867 200.938 22.8744H197.291C197.232 22.8779 197.172 22.8689 197.117 22.848C197.061 22.8271 197.011 22.7948 196.969 22.7533C196.927 22.7117 196.894 22.6618 196.873 22.6068C196.852 22.5519 196.843 22.4931 196.846 22.4344V17.0659C196.86 16.9616 196.913 16.8665 196.997 16.8009C197.08 16.7353 197.185 16.7045 197.291 16.715H200.85C200.955 16.7045 201.061 16.7353 201.144 16.8009C201.227 16.8665 201.281 16.9616 201.294 17.0659C201.287 17.1802 201.237 17.2878 201.156 17.3688C201.074 17.4498 200.965 17.4985 200.85 17.5059L197.736 17.5073Z" fill="#195190"/>
<path d="M203.162 22.0856H205.831C205.936 22.0751 206.042 22.1059 206.125 22.1714C206.208 22.237 206.262 22.3321 206.275 22.4365C206.268 22.5507 206.219 22.6584 206.137 22.7393C206.055 22.8203 205.946 22.8691 205.831 22.8765H202.717C202.658 22.88 202.598 22.871 202.543 22.8501C202.487 22.8292 202.437 22.7969 202.395 22.7553C202.353 22.7137 202.32 22.6638 202.299 22.6089C202.278 22.5539 202.269 22.4952 202.272 22.4365V16.9782C202.295 16.8784 202.352 16.7893 202.432 16.7255C202.513 16.6617 202.613 16.627 202.717 16.627C202.82 16.627 202.921 16.6617 203.001 16.7255C203.082 16.7893 203.139 16.8784 203.161 16.9782L203.162 22.0856Z" fill="#195190"/>
<path d="M208.055 22.6139C208.032 22.714 207.976 22.8035 207.895 22.8676C207.814 22.9318 207.714 22.9667 207.61 22.9667C207.506 22.9667 207.406 22.9318 207.325 22.8676C207.244 22.8035 207.188 22.714 207.165 22.6139V17.0665C207.188 16.9664 207.244 16.8769 207.325 16.8128C207.406 16.7487 207.506 16.7137 207.61 16.7137C207.714 16.7137 207.814 16.7487 207.895 16.8128C207.976 16.8769 208.032 16.9664 208.055 17.0665V22.6139Z" fill="#195190"/>
<path d="M210.99 22.5256L209.122 17.4168C209.069 17.3069 209.039 17.1876 209.033 17.0659C209.046 16.9616 209.1 16.8665 209.183 16.8009C209.266 16.7353 209.372 16.7045 209.478 16.715C209.581 16.7146 209.682 16.7492 209.763 16.813C209.843 16.8768 209.9 16.966 209.922 17.0659L211.702 21.8197L213.481 17.0659C213.57 16.8021 213.659 16.715 213.926 16.715C214.031 16.7045 214.137 16.7353 214.22 16.8009C214.303 16.8665 214.357 16.9616 214.37 17.0659C214.365 17.1876 214.334 17.3069 214.282 17.4168L212.414 22.5228C212.236 22.9628 212.147 23.139 211.705 23.139C211.543 23.1036 211.394 23.0289 211.269 22.9218C211.144 22.8148 211.049 22.6786 210.99 22.5256V22.5256Z" fill="#195190"/>
<path d="M216.151 17.5073V19.3558H218.375C218.434 19.3523 218.493 19.3613 218.549 19.3822C218.604 19.4031 218.655 19.4354 218.697 19.4769C218.739 19.5185 218.771 19.5684 218.793 19.6234C218.814 19.6783 218.823 19.7371 218.819 19.7958C218.819 20.0596 218.641 20.1467 218.375 20.1467H216.151V22.0835H219.353C219.459 22.073 219.565 22.1038 219.648 22.1694C219.731 22.235 219.785 22.3301 219.798 22.4344C219.79 22.5487 219.741 22.6563 219.659 22.7373C219.577 22.8183 219.469 22.867 219.353 22.8744H215.706C215.647 22.8779 215.587 22.8689 215.532 22.848C215.476 22.8271 215.426 22.7948 215.384 22.7533C215.342 22.7117 215.309 22.6618 215.288 22.6068C215.267 22.5519 215.258 22.4931 215.261 22.4344V17.0659C215.275 16.9616 215.329 16.8665 215.412 16.8009C215.495 16.7353 215.6 16.7045 215.706 16.715H219.265C219.37 16.7045 219.476 16.7353 219.559 16.8009C219.642 16.8665 219.696 16.9616 219.709 17.0659C219.702 17.1802 219.652 17.2878 219.571 17.3688C219.489 17.4498 219.38 17.4985 219.265 17.5059L216.151 17.5073Z" fill="#195190"/>
<path d="M221.666 20.4126V22.5256C221.643 22.6254 221.586 22.7145 221.505 22.7783C221.425 22.8421 221.324 22.8768 221.221 22.8768C221.118 22.8768 221.017 22.8421 220.937 22.7783C220.856 22.7145 220.799 22.6254 220.776 22.5256V17.0659C220.79 16.9616 220.843 16.8665 220.926 16.8009C221.01 16.7353 221.115 16.7045 221.221 16.715H223.089C224.601 16.715 225.313 17.4168 225.313 18.5635C225.299 18.9233 225.171 19.2696 224.948 19.5539C224.724 19.8381 224.416 20.0459 224.068 20.1481V20.1481L225.491 22.0849C225.602 22.2054 225.665 22.3618 225.669 22.5249C225.656 22.6293 225.602 22.7244 225.519 22.79C225.436 22.8555 225.33 22.8863 225.224 22.8758C225.046 22.8758 224.957 22.7881 224.779 22.6997L223.089 20.4105H221.666V20.4126ZM223.089 19.6203C223.979 19.6203 224.424 19.1803 224.424 18.5642C224.424 17.948 223.979 17.508 223.089 17.508H221.666V19.6203H223.089Z" fill="#195190"/>
<path d="M230.385 16.8916C230.427 16.805 230.496 16.7335 230.581 16.6866C230.666 16.6397 230.763 16.6197 230.86 16.6293C230.957 16.6388 231.049 16.6775 231.123 16.7401C231.197 16.8026 231.249 16.8861 231.274 16.9793C231.263 17.1291 231.233 17.2769 231.185 17.4193L229.14 20.5008V22.5253C229.117 22.6251 229.06 22.7142 228.979 22.778C228.899 22.8418 228.798 22.8765 228.695 22.8765C228.592 22.8765 228.491 22.8418 228.41 22.778C228.33 22.7142 228.273 22.6251 228.25 22.5253V20.5015L226.204 17.42C226.093 17.2995 226.03 17.1432 226.026 16.98C226.026 16.7161 226.204 16.6291 226.471 16.6291C226.649 16.6291 226.826 16.7168 226.826 16.893L228.605 19.6221L230.385 16.8916Z" fill="#195190"/>
<path d="M195.423 20.5012C195.429 20.8226 195.368 21.1417 195.244 21.4387C195.12 21.7357 194.935 22.0042 194.701 22.2273C194.467 22.4504 194.189 22.6233 193.885 22.7353C193.58 22.8473 193.256 22.8959 192.932 22.8781H191.152C191.093 22.8815 191.034 22.8725 190.978 22.8516C190.923 22.8308 190.872 22.7985 190.83 22.7569C190.788 22.7153 190.756 22.6654 190.734 22.6105C190.713 22.5555 190.704 22.4967 190.708 22.438V17.0667C190.721 16.9624 190.775 16.8673 190.858 16.8017C190.941 16.7362 191.047 16.7053 191.152 16.7159H192.932C193.258 16.6906 193.585 16.734 193.893 16.8433C194.201 16.9526 194.482 17.1252 194.717 17.3499C194.953 17.5745 195.137 17.846 195.259 18.1464C195.381 18.4468 195.437 18.7694 195.423 19.0927V20.5012ZM191.598 17.5082V22.0858H192.932C193.145 22.0941 193.357 22.0587 193.555 21.982C193.753 21.9054 193.933 21.7889 194.083 21.6401C194.234 21.4913 194.351 21.3133 194.429 21.1173C194.506 20.9212 194.542 20.7115 194.534 20.5012V19.0927C194.534 18.8844 194.494 18.678 194.413 18.4854C194.333 18.2927 194.215 18.1177 194.066 17.9704C193.918 17.8231 193.741 17.7064 193.546 17.6271C193.351 17.5477 193.143 17.5073 192.932 17.5082H191.598Z" stroke="#195190" stroke-width="0.176136" stroke-miterlimit="10"/>
<path d="M197.736 17.5073V19.3558H199.96C200.019 19.3523 200.078 19.3613 200.134 19.3822C200.189 19.4031 200.24 19.4354 200.282 19.4769C200.324 19.5185 200.356 19.5684 200.378 19.6234C200.399 19.6783 200.408 19.7371 200.404 19.7958C200.404 20.0596 200.226 20.1467 199.96 20.1467H197.736V22.0835H200.938C201.044 22.073 201.15 22.1038 201.233 22.1694C201.316 22.235 201.37 22.3301 201.383 22.4344C201.375 22.5487 201.326 22.6563 201.244 22.7373C201.162 22.8183 201.054 22.867 200.938 22.8744H197.291C197.232 22.8779 197.172 22.8689 197.117 22.848C197.061 22.8271 197.011 22.7948 196.969 22.7533C196.927 22.7117 196.894 22.6618 196.873 22.6068C196.852 22.5519 196.843 22.4931 196.846 22.4344V17.0659C196.86 16.9616 196.913 16.8665 196.997 16.8009C197.08 16.7353 197.185 16.7045 197.291 16.715H200.85C200.955 16.7045 201.061 16.7353 201.144 16.8009C201.227 16.8665 201.281 16.9616 201.294 17.0659C201.287 17.1802 201.237 17.2878 201.156 17.3688C201.074 17.4498 200.965 17.4985 200.85 17.5059L197.736 17.5073Z" stroke="#195190" stroke-width="0.176136" stroke-miterlimit="10"/>
<path d="M203.162 22.0856H205.831C205.936 22.0751 206.042 22.1059 206.125 22.1714C206.208 22.237 206.262 22.3321 206.275 22.4365C206.268 22.5507 206.219 22.6584 206.137 22.7393C206.055 22.8203 205.946 22.8691 205.831 22.8765H202.717C202.658 22.88 202.598 22.871 202.543 22.8501C202.487 22.8292 202.437 22.7969 202.395 22.7553C202.353 22.7137 202.32 22.6638 202.299 22.6089C202.278 22.5539 202.269 22.4952 202.272 22.4365V16.9782C202.295 16.8784 202.352 16.7893 202.432 16.7255C202.513 16.6617 202.613 16.627 202.717 16.627C202.82 16.627 202.921 16.6617 203.001 16.7255C203.082 16.7893 203.139 16.8784 203.161 16.9782L203.162 22.0856Z" stroke="#195190" stroke-width="0.176136" stroke-miterlimit="10"/>
<path d="M208.055 22.6139C208.032 22.714 207.976 22.8035 207.895 22.8676C207.814 22.9318 207.714 22.9667 207.61 22.9667C207.506 22.9667 207.406 22.9318 207.325 22.8676C207.244 22.8035 207.188 22.714 207.165 22.6139V17.0665C207.188 16.9664 207.244 16.8769 207.325 16.8128C207.406 16.7487 207.506 16.7137 207.61 16.7137C207.714 16.7137 207.814 16.7487 207.895 16.8128C207.976 16.8769 208.032 16.9664 208.055 17.0665V22.6139Z" stroke="#195190" stroke-width="0.176136" stroke-miterlimit="10"/>
<path d="M210.99 22.5256L209.122 17.4168C209.069 17.3069 209.039 17.1876 209.033 17.0659C209.046 16.9616 209.1 16.8665 209.183 16.8009C209.266 16.7353 209.372 16.7045 209.478 16.715C209.581 16.7146 209.682 16.7492 209.763 16.813C209.843 16.8768 209.9 16.966 209.922 17.0659L211.702 21.8197L213.481 17.0659C213.57 16.8021 213.659 16.715 213.926 16.715C214.031 16.7045 214.137 16.7353 214.22 16.8009C214.303 16.8665 214.357 16.9616 214.37 17.0659C214.365 17.1876 214.334 17.3069 214.282 17.4168L212.414 22.5228C212.236 22.9628 212.147 23.139 211.705 23.139C211.543 23.1036 211.394 23.0289 211.269 22.9218C211.144 22.8148 211.049 22.6786 210.99 22.5256V22.5256Z" stroke="#195190" stroke-width="0.176136" stroke-miterlimit="10"/>
<path d="M216.151 17.5073V19.3558H218.375C218.434 19.3523 218.493 19.3613 218.549 19.3822C218.604 19.4031 218.655 19.4354 218.697 19.4769C218.739 19.5185 218.771 19.5684 218.793 19.6234C218.814 19.6783 218.823 19.7371 218.819 19.7958C218.819 20.0596 218.641 20.1467 218.375 20.1467H216.151V22.0835H219.353C219.459 22.073 219.565 22.1038 219.648 22.1694C219.731 22.235 219.785 22.3301 219.798 22.4344C219.79 22.5487 219.741 22.6563 219.659 22.7373C219.577 22.8183 219.469 22.867 219.353 22.8744H215.706C215.647 22.8779 215.587 22.8689 215.532 22.848C215.476 22.8271 215.426 22.7948 215.384 22.7533C215.342 22.7117 215.309 22.6618 215.288 22.6068C215.267 22.5519 215.258 22.4931 215.261 22.4344V17.0659C215.275 16.9616 215.329 16.8665 215.412 16.8009C215.495 16.7353 215.6 16.7045 215.706 16.715H219.265C219.37 16.7045 219.476 16.7353 219.559 16.8009C219.642 16.8665 219.696 16.9616 219.709 17.0659C219.702 17.1802 219.652 17.2878 219.571 17.3688C219.489 17.4498 219.38 17.4985 219.265 17.5059L216.151 17.5073Z" stroke="#195190" stroke-width="0.176136" stroke-miterlimit="10"/>
<path d="M221.666 20.4126V22.5256C221.643 22.6254 221.586 22.7145 221.505 22.7783C221.425 22.8421 221.324 22.8768 221.221 22.8768C221.118 22.8768 221.017 22.8421 220.937 22.7783C220.856 22.7145 220.799 22.6254 220.776 22.5256V17.0659C220.79 16.9616 220.843 16.8665 220.926 16.8009C221.01 16.7353 221.115 16.7045 221.221 16.715H223.089C224.601 16.715 225.313 17.4168 225.313 18.5635C225.299 18.9233 225.171 19.2696 224.948 19.5539C224.724 19.8381 224.416 20.0459 224.068 20.1481V20.1481L225.491 22.0849C225.602 22.2054 225.665 22.3618 225.669 22.5249C225.656 22.6293 225.602 22.7244 225.519 22.79C225.436 22.8555 225.33 22.8863 225.224 22.8758C225.046 22.8758 224.957 22.7881 224.779 22.6997L223.089 20.4105H221.666V20.4126ZM223.089 19.6203C223.979 19.6203 224.424 19.1803 224.424 18.5642C224.424 17.948 223.979 17.508 223.089 17.508H221.666V19.6203H223.089Z" stroke="#195190" stroke-width="0.176136" stroke-miterlimit="10"/>
<path d="M230.385 16.8916C230.427 16.805 230.496 16.7335 230.581 16.6866C230.666 16.6397 230.763 16.6197 230.86 16.6293C230.957 16.6388 231.049 16.6775 231.123 16.7401C231.197 16.8026 231.249 16.8861 231.274 16.9793C231.263 17.1291 231.233 17.2769 231.185 17.4193L229.14 20.5008V22.5253C229.117 22.6251 229.06 22.7142 228.979 22.778C228.899 22.8418 228.798 22.8765 228.695 22.8765C228.592 22.8765 228.491 22.8418 228.41 22.778C228.33 22.7142 228.273 22.6251 228.25 22.5253V20.5015L226.204 17.42C226.093 17.2995 226.03 17.1432 226.026 16.98C226.026 16.7161 226.204 16.6291 226.471 16.6291C226.649 16.6291 226.826 16.7168 226.826 16.893L228.605 19.6221L230.385 16.8916Z" stroke="#195190" stroke-width="0.176136" stroke-miterlimit="10"/>
<defs>
<clipPath id="clip0_5170_6105">
<rect width="30.7801" height="26.7055" fill="white" transform="translate(40.7275 2.90906)"/>
</clipPath>
<clipPath id="clip1_5170_6105">
<rect width="36.7375" height="30.814" fill="white" transform="translate(36.7559 0.85437)"/>
</clipPath>
</defs>
</svg>
